<mxfile host="Electron" agent="Mozilla/5.0 (Windows NT 10.0; Win64; x64) AppleWebKit/537.36 (KHTML, like Gecko) draw.io/27.0.9 Chrome/134.0.6998.205 Electron/35.4.0 Safari/537.36" version="27.0.9">
  <diagram name="Page-1" id="Va7sxyUNYD8wFlDU6vqc">
    <mxGraphModel dx="872" dy="537" grid="1" gridSize="10" guides="1" tooltips="1" connect="1" arrows="1" fold="1" page="1" pageScale="1" pageWidth="850" pageHeight="1100" math="0" shadow="0">
      <root>
        <mxCell id="0" />
        <mxCell id="1" parent="0" />
        <mxCell id="kkyCF6RHFg_3seXWVsR8-1" value="" style="rounded=0;whiteSpace=wrap;html=1;fillColor=none;dashed=1;strokeColor=light-dark(#828282, #ededed);" vertex="1" parent="1">
          <mxGeometry x="40" y="190" width="140" height="450" as="geometry" />
        </mxCell>
        <mxCell id="kkyCF6RHFg_3seXWVsR8-2" value="Sources" style="rounded=0;whiteSpace=wrap;html=1;fontSize=20;strokeColor=none;" vertex="1" parent="1">
          <mxGeometry x="50" y="170" width="120" height="30" as="geometry" />
        </mxCell>
        <mxCell id="kkyCF6RHFg_3seXWVsR8-4" value="" style="rounded=0;whiteSpace=wrap;html=1;fillColor=none;dashed=1;strokeColor=light-dark(#a6a6a6, #ededed);" vertex="1" parent="1">
          <mxGeometry x="220" y="190" width="450" height="450" as="geometry" />
        </mxCell>
        <mxCell id="kkyCF6RHFg_3seXWVsR8-5" value="Data Warehouse" style="rounded=0;whiteSpace=wrap;html=1;fontSize=20;strokeColor=none;" vertex="1" parent="1">
          <mxGeometry x="350" y="170" width="170" height="30" as="geometry" />
        </mxCell>
        <mxCell id="kkyCF6RHFg_3seXWVsR8-6" value="" style="rounded=0;whiteSpace=wrap;html=1;fillColor=none;dashed=1;strokeColor=light-dark(#828282, #ededed);" vertex="1" parent="1">
          <mxGeometry x="710" y="190" width="120" height="450" as="geometry" />
        </mxCell>
        <mxCell id="kkyCF6RHFg_3seXWVsR8-7" value="Consumer" style="rounded=0;whiteSpace=wrap;html=1;fontSize=20;strokeColor=none;" vertex="1" parent="1">
          <mxGeometry x="720" y="170" width="100" height="30" as="geometry" />
        </mxCell>
        <mxCell id="kkyCF6RHFg_3seXWVsR8-8" value="Bronze layer" style="rounded=0;whiteSpace=wrap;html=1;fontSize=18;fillColor=#ffe6cc;strokeColor=#d79b00;" vertex="1" parent="1">
          <mxGeometry x="240" y="220" width="120" height="30" as="geometry" />
        </mxCell>
        <mxCell id="kkyCF6RHFg_3seXWVsR8-9" value="" style="rounded=0;whiteSpace=wrap;html=1;fontSize=18;fillColor=none;strokeColor=light-dark(#454545, #959595);" vertex="1" parent="1">
          <mxGeometry x="240" y="260" width="120" height="370" as="geometry" />
        </mxCell>
        <mxCell id="kkyCF6RHFg_3seXWVsR8-10" value="Silver layer" style="rounded=0;whiteSpace=wrap;html=1;fontSize=18;fillColor=#f5f5f5;strokeColor=#666666;fontColor=#333333;" vertex="1" parent="1">
          <mxGeometry x="390" y="220" width="120" height="30" as="geometry" />
        </mxCell>
        <mxCell id="kkyCF6RHFg_3seXWVsR8-11" value="" style="rounded=0;whiteSpace=wrap;html=1;fontSize=18;fillColor=none;strokeColor=#666666;gradientColor=#b3b3b3;" vertex="1" parent="1">
          <mxGeometry x="390" y="260" width="120" height="370" as="geometry" />
        </mxCell>
        <mxCell id="kkyCF6RHFg_3seXWVsR8-12" value="Gold layer" style="rounded=0;whiteSpace=wrap;html=1;fontSize=18;fillColor=#fff2cc;strokeColor=#d6b656;" vertex="1" parent="1">
          <mxGeometry x="539" y="220" width="120" height="30" as="geometry" />
        </mxCell>
        <mxCell id="kkyCF6RHFg_3seXWVsR8-13" value="" style="rounded=0;whiteSpace=wrap;html=1;fontSize=18;fillColor=none;strokeColor=#d6b656;" vertex="1" parent="1">
          <mxGeometry x="539" y="260" width="120" height="370" as="geometry" />
        </mxCell>
        <mxCell id="kkyCF6RHFg_3seXWVsR8-15" value="" style="image;aspect=fixed;html=1;points=[];align=center;fontSize=12;image=img/lib/azure2/general/Folder_Blank.svg;" vertex="1" parent="1">
          <mxGeometry x="80" y="280" width="49.29" height="40" as="geometry" />
        </mxCell>
        <mxCell id="kkyCF6RHFg_3seXWVsR8-16" value="" style="image;aspect=fixed;html=1;points=[];align=center;fontSize=12;image=img/lib/azure2/general/File.svg;" vertex="1" parent="1">
          <mxGeometry x="110" y="300" width="24.35" height="30" as="geometry" />
        </mxCell>
        <mxCell id="kkyCF6RHFg_3seXWVsR8-17" value="CRM&lt;div&gt;&lt;br&gt;&lt;/div&gt;" style="text;html=1;align=center;verticalAlign=middle;whiteSpace=wrap;rounded=0;fontSize=10;fontStyle=1" vertex="1" parent="1">
          <mxGeometry x="89.65" y="330" width="30" height="20" as="geometry" />
        </mxCell>
        <mxCell id="kkyCF6RHFg_3seXWVsR8-18" value="ERP" style="text;html=1;align=center;verticalAlign=middle;whiteSpace=wrap;rounded=0;fontSize=10;fontStyle=1" vertex="1" parent="1">
          <mxGeometry x="89.64999999999998" y="410" width="30" height="20" as="geometry" />
        </mxCell>
        <mxCell id="kkyCF6RHFg_3seXWVsR8-20" value="" style="image;aspect=fixed;html=1;points=[];align=center;fontSize=12;image=img/lib/azure2/general/Folder_Blank.svg;" vertex="1" parent="1">
          <mxGeometry x="80" y="360" width="49.29" height="40" as="geometry" />
        </mxCell>
        <mxCell id="kkyCF6RHFg_3seXWVsR8-21" value="" style="image;aspect=fixed;html=1;points=[];align=center;fontSize=12;image=img/lib/azure2/general/File.svg;" vertex="1" parent="1">
          <mxGeometry x="110" y="380" width="24.35" height="30" as="geometry" />
        </mxCell>
        <mxCell id="kkyCF6RHFg_3seXWVsR8-23" value="Object Type: &lt;span style=&quot;font-weight: normal;&quot;&gt;CSV Files&lt;/span&gt;&lt;div&gt;&lt;br&gt;&lt;div&gt;Interface: &lt;span style=&quot;font-weight: normal;&quot;&gt;Files in Folder&lt;/span&gt;&lt;/div&gt;&lt;/div&gt;" style="text;html=1;align=center;verticalAlign=middle;whiteSpace=wrap;rounded=0;fontSize=10;fontStyle=1" vertex="1" parent="1">
          <mxGeometry x="44.91" y="500" width="130.18" height="40" as="geometry" />
        </mxCell>
        <mxCell id="kkyCF6RHFg_3seXWVsR8-24" value="" style="endArrow=none;html=1;rounded=0;fillColor=#f5f5f5;strokeColor=#666666;" edge="1" parent="1">
          <mxGeometry width="50" height="50" relative="1" as="geometry">
            <mxPoint x="46.09" y="480" as="sourcePoint" />
            <mxPoint x="166.09" y="480" as="targetPoint" />
            <Array as="points">
              <mxPoint x="173.91" y="480" />
            </Array>
          </mxGeometry>
        </mxCell>
        <mxCell id="kkyCF6RHFg_3seXWVsR8-25" value="" style="html=1;verticalLabelPosition=bottom;align=center;labelBackgroundColor=#ffffff;verticalAlign=top;strokeWidth=2;strokeColor=#d79b00;shadow=0;dashed=0;shape=mxgraph.ios7.icons.data;fillColor=#ffe6cc;" vertex="1" parent="1">
          <mxGeometry x="285" y="280" width="30" height="40" as="geometry" />
        </mxCell>
        <mxCell id="kkyCF6RHFg_3seXWVsR8-26" value="" style="html=1;verticalLabelPosition=bottom;align=center;labelBackgroundColor=#ffffff;verticalAlign=top;strokeWidth=2;strokeColor=#666666;shadow=0;dashed=0;shape=mxgraph.ios7.icons.data;fillColor=#f5f5f5;fontColor=#333333;" vertex="1" parent="1">
          <mxGeometry x="440" y="280" width="30" height="40" as="geometry" />
        </mxCell>
        <mxCell id="kkyCF6RHFg_3seXWVsR8-27" value="" style="html=1;verticalLabelPosition=bottom;align=center;labelBackgroundColor=#ffffff;verticalAlign=top;strokeWidth=2;strokeColor=#d6b656;shadow=0;dashed=0;shape=mxgraph.ios7.icons.data;fillColor=#fff2cc;" vertex="1" parent="1">
          <mxGeometry x="584" y="280" width="30" height="40" as="geometry" />
        </mxCell>
        <mxCell id="kkyCF6RHFg_3seXWVsR8-28" value="" style="endArrow=none;html=1;rounded=0;fillColor=#f5f5f5;strokeColor=light-dark(#454545, #959595);" edge="1" parent="1">
          <mxGeometry width="50" height="50" relative="1" as="geometry">
            <mxPoint x="250" y="379" as="sourcePoint" />
            <mxPoint x="350" y="379" as="targetPoint" />
            <Array as="points" />
          </mxGeometry>
        </mxCell>
        <mxCell id="kkyCF6RHFg_3seXWVsR8-31" value="" style="shape=singleArrow;whiteSpace=wrap;html=1;fillColor=#b1ddf0;strokeColor=#10739e;" vertex="1" parent="1">
          <mxGeometry x="180" y="375" width="40" height="40" as="geometry" />
        </mxCell>
        <mxCell id="kkyCF6RHFg_3seXWVsR8-32" value="" style="shape=singleArrow;whiteSpace=wrap;html=1;fillColor=#b1ddf0;strokeColor=#10739e;" vertex="1" parent="1">
          <mxGeometry x="360" y="375" width="30" height="40" as="geometry" />
        </mxCell>
        <mxCell id="kkyCF6RHFg_3seXWVsR8-33" value="" style="shape=singleArrow;whiteSpace=wrap;html=1;fillColor=#b1ddf0;strokeColor=#10739e;" vertex="1" parent="1">
          <mxGeometry x="510" y="375" width="30" height="40" as="geometry" />
        </mxCell>
        <mxCell id="kkyCF6RHFg_3seXWVsR8-34" value="" style="shape=singleArrow;whiteSpace=wrap;html=1;fillColor=#b1ddf0;strokeColor=#10739e;" vertex="1" parent="1">
          <mxGeometry x="670" y="375" width="40" height="40" as="geometry" />
        </mxCell>
        <mxCell id="kkyCF6RHFg_3seXWVsR8-36" value="" style="endArrow=none;html=1;rounded=0;fillColor=#f5f5f5;strokeColor=light-dark(#454545, #959595);" edge="1" parent="1">
          <mxGeometry width="50" height="50" relative="1" as="geometry">
            <mxPoint x="400" y="379" as="sourcePoint" />
            <mxPoint x="500" y="379" as="targetPoint" />
            <Array as="points" />
          </mxGeometry>
        </mxCell>
        <mxCell id="kkyCF6RHFg_3seXWVsR8-38" value="&lt;div&gt;Raw Data&lt;/div&gt;" style="text;html=1;align=center;verticalAlign=middle;whiteSpace=wrap;rounded=0;fontSize=12;fontStyle=0" vertex="1" parent="1">
          <mxGeometry x="260" y="330" width="80" height="20" as="geometry" />
        </mxCell>
        <mxCell id="kkyCF6RHFg_3seXWVsR8-41" value="&lt;div&gt;Cleaned,&lt;/div&gt;&lt;div&gt;Standardiz&lt;span style=&quot;background-color: transparent; color: light-dark(rgb(0, 0, 0), rgb(255, 255, 255));&quot;&gt;ed Data&lt;/span&gt;&lt;/div&gt;" style="text;html=1;align=center;verticalAlign=middle;whiteSpace=wrap;rounded=0;fontSize=12;fontStyle=0" vertex="1" parent="1">
          <mxGeometry x="420" y="330" width="70" height="30" as="geometry" />
        </mxCell>
        <mxCell id="kkyCF6RHFg_3seXWVsR8-42" value="&lt;div&gt;Business Ready Data&lt;/div&gt;" style="text;html=1;align=center;verticalAlign=middle;whiteSpace=wrap;rounded=0;fontSize=12;fontStyle=0" vertex="1" parent="1">
          <mxGeometry x="559" y="330" width="80" height="20" as="geometry" />
        </mxCell>
        <mxCell id="kkyCF6RHFg_3seXWVsR8-43" value="&lt;font style=&quot;font-size: 8px;&quot;&gt;Object Type: &lt;span style=&quot;font-weight: 400;&quot;&gt;Tables&lt;/span&gt;&lt;/font&gt;&lt;div&gt;&lt;span style=&quot;background-color: transparent; color: light-dark(rgb(0, 0, 0), rgb(255, 255, 255));&quot;&gt;&lt;font style=&quot;font-size: 8px;&quot;&gt;&lt;br&gt;&lt;/font&gt;&lt;/span&gt;&lt;/div&gt;&lt;div&gt;&lt;div style=&quot;&quot;&gt;&lt;span style=&quot;background-color: transparent; color: light-dark(rgb(0, 0, 0), rgb(255, 255, 255));&quot;&gt;&lt;font style=&quot;font-size: 8px;&quot;&gt;Load:&amp;nbsp;&lt;/font&gt;&lt;/span&gt;&lt;/div&gt;&lt;div&gt;&lt;ul&gt;&lt;li style=&quot;&quot;&gt;&lt;span style=&quot;font-weight: normal;&quot;&gt;&lt;font style=&quot;font-size: 8px;&quot;&gt;Batch Processing&lt;/font&gt;&lt;/span&gt;&lt;/li&gt;&lt;li style=&quot;&quot;&gt;&lt;span style=&quot;font-weight: normal;&quot;&gt;&lt;font style=&quot;font-size: 8px;&quot;&gt;Full Load&lt;/font&gt;&lt;/span&gt;&lt;/li&gt;&lt;li style=&quot;&quot;&gt;&lt;span style=&quot;font-weight: normal;&quot;&gt;&lt;font style=&quot;font-size: 8px;&quot;&gt;Truncate &amp;amp;Insert&lt;/font&gt;&lt;/span&gt;&lt;/li&gt;&lt;/ul&gt;&lt;div style=&quot;&quot;&gt;&lt;font style=&quot;font-size: 8px;&quot;&gt;&lt;span style=&quot;font-weight: 400;&quot;&gt;No &lt;/span&gt;Transformations&lt;/font&gt;&lt;/div&gt;&lt;/div&gt;&lt;/div&gt;&lt;div style=&quot;&quot;&gt;&lt;span style=&quot;font-weight: 400;&quot;&gt;&lt;font style=&quot;font-size: 8px;&quot;&gt;&lt;br&gt;&lt;/font&gt;&lt;/span&gt;&lt;/div&gt;&lt;div style=&quot;&quot;&gt;&lt;font style=&quot;font-size: 8px;&quot;&gt;Data Model&lt;span style=&quot;font-weight: 400;&quot;&gt;: None(As-is)&lt;/span&gt;&lt;/font&gt;&lt;/div&gt;" style="text;html=1;align=left;verticalAlign=middle;whiteSpace=wrap;rounded=0;fontSize=10;fontStyle=1" vertex="1" parent="1">
          <mxGeometry x="245" y="440" width="110" height="40" as="geometry" />
        </mxCell>
        <mxCell id="kkyCF6RHFg_3seXWVsR8-44" value="&lt;font style=&quot;font-size: 8px;&quot;&gt;Object Type: &lt;span style=&quot;font-weight: 400;&quot;&gt;Tables&lt;/span&gt;&lt;/font&gt;&lt;div&gt;&lt;span style=&quot;background-color: transparent; color: light-dark(rgb(0, 0, 0), rgb(255, 255, 255));&quot;&gt;&lt;font style=&quot;font-size: 8px;&quot;&gt;&lt;br&gt;&lt;/font&gt;&lt;/span&gt;&lt;/div&gt;&lt;div&gt;&lt;div style=&quot;&quot;&gt;&lt;span style=&quot;background-color: transparent; color: light-dark(rgb(0, 0, 0), rgb(255, 255, 255));&quot;&gt;&lt;font style=&quot;font-size: 8px;&quot;&gt;Load:&amp;nbsp;&lt;/font&gt;&lt;/span&gt;&lt;/div&gt;&lt;div&gt;&lt;ul&gt;&lt;li style=&quot;&quot;&gt;&lt;span style=&quot;font-weight: normal;&quot;&gt;&lt;font style=&quot;font-size: 8px;&quot;&gt;Batch Processing&lt;/font&gt;&lt;/span&gt;&lt;/li&gt;&lt;li style=&quot;&quot;&gt;&lt;span style=&quot;font-weight: normal;&quot;&gt;&lt;font style=&quot;font-size: 8px;&quot;&gt;Full Load&lt;/font&gt;&lt;/span&gt;&lt;/li&gt;&lt;li style=&quot;&quot;&gt;&lt;span style=&quot;font-weight: normal;&quot;&gt;&lt;font style=&quot;font-size: 8px;&quot;&gt;Truncate &amp;amp;Insert&lt;/font&gt;&lt;/span&gt;&lt;/li&gt;&lt;/ul&gt;&lt;div style=&quot;&quot;&gt;&lt;font style=&quot;font-size: 8px;&quot;&gt;Transformations:&lt;/font&gt;&lt;/div&gt;&lt;/div&gt;&lt;/div&gt;&lt;div style=&quot;&quot;&gt;&lt;ul&gt;&lt;li&gt;&lt;font style=&quot;font-size: 8px; font-weight: normal;&quot;&gt;Data Cleaning&lt;/font&gt;&lt;/li&gt;&lt;li&gt;&lt;font style=&quot;font-size: 8px; font-weight: normal;&quot;&gt;Data Standardization&lt;/font&gt;&lt;/li&gt;&lt;li&gt;&lt;font style=&quot;font-size: 8px; font-weight: normal;&quot;&gt;Data Normalization&lt;/font&gt;&lt;/li&gt;&lt;li&gt;&lt;font style=&quot;font-size: 8px; font-weight: normal;&quot;&gt;Derived columns&lt;/font&gt;&lt;/li&gt;&lt;li&gt;&lt;font style=&quot;font-size: 8px; font-weight: normal;&quot;&gt;Data Enrichment&lt;/font&gt;&lt;/li&gt;&lt;/ul&gt;&lt;/div&gt;&lt;div style=&quot;&quot;&gt;&lt;span style=&quot;font-weight: 400;&quot;&gt;&lt;font style=&quot;font-size: 8px;&quot;&gt;&lt;br&gt;&lt;/font&gt;&lt;/span&gt;&lt;/div&gt;&lt;div style=&quot;&quot;&gt;&lt;font style=&quot;font-size: 8px;&quot;&gt;Data Model&lt;span style=&quot;font-weight: 400;&quot;&gt;: None(As-is)&lt;/span&gt;&lt;/font&gt;&lt;/div&gt;" style="text;html=1;align=left;verticalAlign=middle;whiteSpace=wrap;rounded=0;fontSize=10;fontStyle=1" vertex="1" parent="1">
          <mxGeometry x="400" y="490" width="110" height="40" as="geometry" />
        </mxCell>
        <mxCell id="kkyCF6RHFg_3seXWVsR8-45" value="&lt;font style=&quot;font-size: 8px;&quot;&gt;Object Type: &lt;span style=&quot;font-weight: 400;&quot;&gt;Views&lt;/span&gt;&lt;/font&gt;&lt;div&gt;&lt;span style=&quot;background-color: transparent; color: light-dark(rgb(0, 0, 0), rgb(255, 255, 255));&quot;&gt;&lt;font style=&quot;font-size: 8px;&quot;&gt;&lt;br&gt;&lt;/font&gt;&lt;/span&gt;&lt;/div&gt;&lt;div&gt;&lt;div style=&quot;&quot;&gt;&lt;span style=&quot;background-color: transparent; color: light-dark(rgb(0, 0, 0), rgb(255, 255, 255));&quot;&gt;&lt;font style=&quot;font-size: 8px;&quot;&gt;No Load:&amp;nbsp;&lt;/font&gt;&lt;/span&gt;&lt;/div&gt;&lt;div&gt;&lt;ul&gt;&lt;li style=&quot;&quot;&gt;&lt;span style=&quot;font-weight: normal;&quot;&gt;&lt;font style=&quot;font-size: 8px;&quot;&gt;Batch Processing&lt;/font&gt;&lt;/span&gt;&lt;/li&gt;&lt;li style=&quot;&quot;&gt;&lt;span style=&quot;font-weight: normal;&quot;&gt;&lt;font style=&quot;font-size: 8px;&quot;&gt;Full Load&lt;/font&gt;&lt;/span&gt;&lt;/li&gt;&lt;li style=&quot;&quot;&gt;&lt;span style=&quot;font-weight: normal;&quot;&gt;&lt;font style=&quot;font-size: 8px;&quot;&gt;Truncate &amp;amp;Insert&lt;/font&gt;&lt;/span&gt;&lt;/li&gt;&lt;/ul&gt;&lt;div style=&quot;&quot;&gt;&lt;font style=&quot;font-size: 8px;&quot;&gt;Transformations:&lt;/font&gt;&lt;/div&gt;&lt;/div&gt;&lt;/div&gt;&lt;div style=&quot;&quot;&gt;&lt;ul&gt;&lt;li&gt;&lt;font style=&quot;font-size: 8px; font-weight: normal;&quot;&gt;Data Integration&lt;/font&gt;&lt;/li&gt;&lt;li&gt;&lt;span style=&quot;font-size: 8px; font-weight: 400;&quot;&gt;Aggregations&lt;/span&gt;&lt;/li&gt;&lt;li&gt;&lt;span style=&quot;font-size: 8px; font-weight: 400;&quot;&gt;Business Logics&lt;/span&gt;&lt;/li&gt;&lt;/ul&gt;&lt;/div&gt;&lt;div style=&quot;&quot;&gt;&lt;span style=&quot;font-size: 8px; background-color: transparent; color: light-dark(rgb(0, 0, 0), rgb(255, 255, 255));&quot;&gt;Data Model&lt;/span&gt;&lt;span style=&quot;font-size: 8px; background-color: transparent; color: light-dark(rgb(0, 0, 0), rgb(255, 255, 255)); font-weight: 400;&quot;&gt;:&amp;nbsp;&lt;/span&gt;&lt;/div&gt;&lt;div style=&quot;&quot;&gt;&lt;ul&gt;&lt;li&gt;&lt;span style=&quot;font-size: 8px; background-color: transparent; color: light-dark(rgb(0, 0, 0), rgb(255, 255, 255)); font-weight: 400;&quot;&gt;Star Schema&lt;/span&gt;&lt;/li&gt;&lt;li&gt;&lt;span style=&quot;font-size: 8px; background-color: transparent; color: light-dark(rgb(0, 0, 0), rgb(255, 255, 255)); font-weight: 400;&quot;&gt;Flat Table&lt;/span&gt;&lt;/li&gt;&lt;li&gt;&lt;span style=&quot;font-size: 8px; background-color: transparent; color: light-dark(rgb(0, 0, 0), rgb(255, 255, 255)); font-weight: 400;&quot;&gt;Aggregated Table&amp;nbsp;&lt;span style=&quot;white-space: pre;&quot;&gt;&#x9;&lt;/span&gt;&lt;/span&gt;&lt;/li&gt;&lt;/ul&gt;&lt;/div&gt;" style="text;html=1;align=left;verticalAlign=middle;whiteSpace=wrap;rounded=0;fontSize=10;fontStyle=1" vertex="1" parent="1">
          <mxGeometry x="550" y="490" width="110" height="40" as="geometry" />
        </mxCell>
        <mxCell id="kkyCF6RHFg_3seXWVsR8-46" value="" style="shape=image;verticalLabelPosition=bottom;labelBackgroundColor=default;verticalAlign=top;aspect=fixed;imageAspect=0;image=data:image/png,iVBORw0KGgoAAAANSUhEUgAAAgAAAAIACAYAAAD0eNT6AAAAAXNSR0IArs4c6QAAIABJREFUeAHtnQuQHVd5oK9expKxZMkPPazRPCSMMQ4OGIzjyEbYlmaEzZJUVgHJgWyxyW5qUyG7ebGVhVrvkqIoSEGCqexSidnCiRyiYZOANXqO5iXJTyFsa0byhmwSQhKTBIIfYv2S9G/1yC1fzfS9t7v/Pqf/7vOpSnVn+vY5ffo7/3/+7/a907fR4B8EIAABCEAAAhCAAAQgAAEIQAACEIAABCAAAQhAAAIQgAAEIAABCEAAAhCAAAQgAAEIQAACEIAABCAAAQhAAAIQgAAEIAABCEAAAhCAAAQgAAEIQAACEIAABCAAAQhAAAIQgAAEIAABCEAAAhCAAAQgAAEIQAACEIAABCAAAQhAAAIQgAAEIAABCEAAAhCAAAQgAAEIQAACEIAABCAAAQhAAAIQgAAEIAABCEAAAhCAAAQgAAEIQAACEIAABCAAAQhAAAIQgAAEIAABCEAAAhCAAAQgAAEIQAACEIAABCAAAQhAAAIQgAAEIAABCEAAAhCAAAQgAAEIQAACEIAABCAAAQhAAAIQgEAuAqfWd8mpm7vOnLql68ypm7tOn3pX1yun3rXmxdPv7n7u9K1rvnv6tjVPnbptzeEzG7sHT/f3fOpU/5oPyu3db8p1MBpBAAIQgAAEIGCDwLQARBKQ9f/NXWdOb+g6efr2rm+d2bjma6c3dX9MBvreYeOsGAUEIAABCEAAAm0JZC78nUTh5q7Tp29d8/SZjV27Tg+s+YjcsWZp2wHwJAQgAAEIQAAC/gkULgAJgnD61jXPntrYfeBUf++HZEtjnv+z5IgQgAAEIAABCJxHwIcAnHeM6ArBbWv+5nR/9xfkzquuPG8w/AIBCEAAAhCAgB8C5xXnhFfvrp8/feuafzy9ac3vyqa1V/g5Y44CAQhAAAIQgEDDdYFP3X/0ocLoysDAmv8sDd4mIDQhAAEIQAACTgmkLtA+rw5Ef4q4qWtC+te9zenJ0zkEIAABCEAgVAImBaBJNmRb733yM73XhTo/nDcEIAABCEDACYEKCIDItt7o/yHZ1rtFNmyY7wQEnUIAAhCAAARCIlAhAYhF4IRs488JQ4pRzhUCEIAABBwQqKAAvCoCfVPTVwQajTkOsNAlBCAAAQhAoN4EqisA028LiGzrOSIf6Luj3rPE2UEAAhCAAAQKJlB9AXhVBLb2jspdfT9SMB66gwAEIAABCNSTQG0E4OwHBV+Rbb2/K1v6ltRztjgrCEAAAhCAQEEEaiYA8QcFvyfben5Z7m7MLQgT3UAAAhCAAATqRaCmAhCLwEHZ1veGes0YZwMBCEAAAhAogEDNBSASgf8n23o+ytWAAoKFLiAAAQhAoD4EAhCA+GrAIXn/urX1mTnOBAIQgAAEIKAgEJAARCLwrNzV92EFLppCAAIQgAAE6kEgMAE4ezXgrp77Zcs1r6/HDHIWEIAABCAAgRwEghSAs38y+JRsXffmHMhoAgEIQAACEKg+gYAFILoa8Lzc1fP+6s8iZwABCEAAAhDISCBwAYgk4Ixs6/ks3zKYMXDYHQIQgAAEqk0AAYi/U6B3v9y1bnHps3n/V9/cuH/wc43tg5ON7YMnG9sHJej/ygl59aukz3724+xbP0H9rMRHcwhAoM4EEIBzAhAVhiflrnWrS5nvHTsuaGwf/EJj++CpoAv+TOFRTgYCoARIcwhAoL4EEIDzBEBka9/fyc/0Xud1xnfseH1j++AYhT/haodyIhAAJUCaQwAC9SWAAMwQgLOXif9Ftva8y8us33ffRY37B0cp/gnFP7oaoPyHACgB0hwCEKgvAQQgUQCitwNelA/03eF05in+nT/foJwABEAJkOYQgEB9CSAALQUgkoCXZFvP+5zMPsW/c/HnCoD6A4tOYpdOIQCBehBAANoKgBsJoPinK/4IAAJQj2WWs4CATQIIQEcBKFYCKP7piz8CgADYXDYZFQTqQQABSCUAZyVga+97VbNO8c9W/BEABECVcDSGAATaEkAAUgtAtBi/IFv71rcF2upJin/24o8AIACt8ontEICAngACkEkAogX5e7K15+pM5Cn++Yo/AoAAZEo0doYABDIRQAAyC0C0KP+VbOlZkQo0xT9/8UcAEIBUScZOEIBALgIIQC4BENnW9w3Zcs3r20Kn+OuKPwKAALRNMJ6EAARUBBCAvAIQtevbJVsa8xIngOKvL/4IAAKQmFxshAAECiGAAGgEoFdka88nZ00Exb+Y4o8AIACzkosNEIBAYQQQAKUAbOs9I1v7furchFD8iyv+CAACcC6x+AECJRKQ0a5rZaL752Rs9edlbOWQjCx/TA5c9i0ZvuS7snfxc7J74Uuy58KXZWj+men/O+eJPNBQf5mJ61NGANQCEC3Sz03/ZYDT4r/jUOPer13sOh7oHwIQgECwBOTBtTfJeNcnZGTlfhle9h3Zs+hF2Tl3uphHBT3rf+sgEYBCBECe+9DVk/P/6CsTbr7Vj+JvPY8YHwQgUDECcnjtFTLe/asyumJE9i/5nuyafyZrge+0v3UkCIBeAE5+8I2y4Z5PFXvpO7r8Pf2f4m89hxgfBCBQAQIy2nOhTPT+kowsf0j2XnxSHpiT+RV9p4I/83nrWBAAnQBQ/K1HOOODAASCJSDjfW+QsdX3Tl/Od/AKf2bBn/m7dfAIQH4BoPhbj27GBwEIBEdAHl3bJeOrvzj9AT3F+/czi3me363DRwDyCQDF33pkMz4IQCAYAjJ5zQXTH94bXvq05kN7eYp8uzbWJwAByC4AFH/rUc34IACBIAjIg91vlbGVu2T3ha+0K8RlPWd9EhCAbAJA8bce0YwPAhCoPYHpD/NFr/Y9fJAvlzzsWyzy2I9yH4D1XaKRDNmWrUC73J/iX/tlhROEAASsEpDRDfOnL/NHN97J8Tf5XtoMLxV57G0ixwem/1tlGY9LU5x9tHVZ0LP0TfGPI4ZHCEAAAh4JyJFVi2Tsyi9bvcwvO+eIjK4U+eZN5wo/AqB75R/LRZYi7Wpfir/HZOdQEIAABCICcuT6BTK66h7ZvfBlL6/e81xVGF0l8sQtswo/AlAPAaD4sxZBAAIQ8ExAJtZ8evo2vHmKso82+5eJHP2xloUfAai+AFD8PSc9h4MABMImIIf77pD9S/7Z7Cv+PYumP9wXF/hOj9ZnM77UbvXR1WX9Tv1S/K1HLuODAARqQ0AOr1srI1c8bvZT/UMLRB68SmRqU8dX/c1SYH2CrBb+eFydCrWL5yn+1qOW8UEAArUgINKYO/0BvxJu05v6KsPYSpFjt2Yq/LEEWJ+kuNBafXRR4Nv16bL4X/97n/th3xe/uMR6TDA+CEAAAs4JyIPr3iX7lnw/dSH28d5+8zF2vU7ksbfmKvwIQPU+A+Cy+P/4Fz4jz33wapG7ev+188TiAOcItJO9EJ47ByLnDyEwaneOObHRrB2B6dv2jq56wNIte2dJyPhqkcnbVMU/koB2HCw8Z/WVfzyudslZ5HNeiv/0TY16JuXuxlwLcx/CGIqMkSr2pZ3jKp5zkWPW8qP9DAJyqOdG2bv4mVkFt/mVd5k/714ocuTt6sLPFYDqXAHwV/xfvashVwFmrArufi2yGFSxLy3ZKp5zkWPW8qN9EwEZW/V5GZp/xmzxj27mM3l7YcWfKwB6CSgymZP68l78uQrQtCK4/zFpzkPapiUcEqukc9Xyo310Q58Hr7pShpf9tdnCH31l8EPXFFr4uQKgL/7R2wBJSVnUtnKKP1cBfC6KRcVKVfvRsq7qeRc1bi2/4NvL4d5Npm/os/tCkaM3Oin+XAHQS0BRiTyzn1KL/9kvODoa/OLgAcDMeQ/tdy3i0HjNPF8tv6Dby3jXb5m+5H/g8kI+6Be/2k96tB4A8YftrD7OTMgifjdQ/M9e2dja/WPW46Pq4ysiXqrch3b+qnzuRYxdyy/I9tOf8h9Z/pDdS/5zRA6/wdmr/mYRsB4AVgt/PK4ikri5DzPF/+xVgPusx0fVx9c89yH+rJ2/EJk1n7OWX3Dt5fDaK2R46dN2i/9ckUev81L8eQvA1lsAxop/dBXgRfng2iuCWyQ8nnDzYh7iz1rUITJrPmctv6Day0TvW2TvxSfNFv/odr5Hb/BW/BEAOwJgsPi/+gHHno8GtUh4PtnmxTzEn7W4Q2TWfM5afsG0l7He98ruC18xW/z3LBR5Yr3X4o8A2BGAe3/jp6WxfbDw/+vv+Yw8/6E3av5a4W9kS2NeMAuF5xNtXsxD/FmLO0Rmzees5RdEe5no/jnTH/bbt1jk2Lu9F38EwI4AREn9qY9/uFABOHd737Pv5yskoO89QSwUJZxk82Ie4s9a5CEyaz5nLb/at5eDaz4iu+bZvbnPgUsLv7lPVNjT/rceAPGH7aw+NidjET8XJQHFFf/p+wLssB4nVR1fETFT5T6081blcy9i7Fp+tW4v410fM30//+Go+G9MXazTFvUs+1kPAKuFPx5XEUk8sw+tBBRc/KMrBz+UDy6/yHqsVHF8M+c+tN+1cxYar5nnq+VX2/Yy1vVJ28V/mchUucU/EgXrARAXWquPMxOyqN/zSoCD4h+/dbDFeqxUcXxFxUtV+9HOWVXPu6hxa/nVsr2Mr/mo7eK/tPRX/vFVAusBYLXwx+MqKpGT+skqAQ6LfyQBvA3gIFmS5j2kbVqkIbFKOlctv9q1l4meX5Cd88Tsp/33X1Lqe/5x4Y8frQdAXGitPiYlZZHb0kqA4+LP2wDWE4XxQSB0AnKw78MyZPgDf9Gn/SdvK/U9/7jwx4/WY8Zq4Y/HVWSxb9VXJwnwUPzPvg3A1wRbTxfGB4EwCUz/nb/lr/Lde5G54h9JgPVoiQut1cdWRbvo7a0kwFvxj/6U8K7eP7EeL4wPAhAIjIAcuepq2b3wZbOX/XctEHniFlOv/LkCoL8HQCQlRRf6dv3NlACvxf/svQSe4aZAgS2unC4ELBOQB69ZJvsuft5s8X9gjsg3/N7eNy7uaR4tz200Nquv/ONxtSvYLp6LJaCE4v/q2wB977AeM4wPAhAIgICMbpgv+5f+g93i3xB55EdMvvKP5cB6mMSF1uqjiyLfqc8vfXSL9va+iisXfDeA9ZxhfBAIgoCMLH/YdPE/tNZ08Y8kwHqgWC388bg6FesaPr/HeswwPghAoOYEZHz1p0wX/9EV5os/AqD/HEANC3ynqwM/lC3XXFDz5YXTgwAErBKQgz0Dpr/cZ88iU3/rH1/uT3q0OsfxuOJX2lYfAxQAkQ+svSmeHx4hAAEIeCMgD151pexe9JLZV/8754p886ZKvPrnCgBXAHIKzMe8JTwHggAEIBATkOFlf222+D/QEHnoTZUp/ggAApBPAHqG4nzkEQIQgIAXAjLW9VnTxf/A5ZUq/ggAApBLALb2/Z2XhOcgEIAABCICMtLzTtPv++++UOTYrQhAweFq9b3/eFy5CujZm+p0+rCd7ee3XnVZwVNNdxCAAARmE5Aj1y+QfYufMfvqf6ftm/0kffgv3jabtq0tcaG1+hisAGzrfretSGE0EIBALQnI2Mohs8U/et9/ortyr/wRAP3l/0hKwhWAnl+u5WLDSUEAAnYIyHjvLaa/3je69D95OwLgKGSsvvKPxxWsAGztudfRlNMtBCAAgUZDpDFX9i35vulX/4+9rbLFnw8B6q8CBCsA23qOsEbpCYQbP73TV8+0BOGnJWi4vYytvs908R+pxt3+4sv9SY+Gp396aPErbauPAS9AP7QeO1UYX8DxgwAU8GHgKsR4rjFOf8XvrvlnzArA0HyRJ99d6Vf/XAHgCoCqAH3oyktzJTeNzhFQ8S+ggJR9/HMgcv5Q9vjLPn5ObPabyfBlx80W/+iDfw9fU/nijwAgAKoFbGvvW+yvJLZHqOKPADTgZzu+c41ODvZukQfmiFkB2LdYZKofAcg1u9kaWb30H48r7AWo7z3ZZpO9ZxIIO3561d9GCr+ZEVWD32Xfkh+YLf7Rq/8j76hF8ecKAFcAVAvoXb0/X4PlptRTUPHnCgBXAEqNXgcHl4k1nzZd/IcvrU3xRwAQAF0B6rvbwRIQVJc6/mc/SV/lPrSTXeVzL2LsWn6m2svkNRfInkUvmhaAozciAB6jJr7UbvWxiCSucB9/4DEUanmoCs99ITfB0k4q/LQEDbWX8a7/abr4jy6vVfHnCgBXAHQLaN8uQ8tHJYei488VAPhVMuxnD/rsq/+FL5kVgOh+/0+sRwBmT53TLVZf+cfjCnoB2to74XTyA+g86PjZxocAtfNfmxSR8a4vmy3+0Qf/xlbXrvhzBYArAMoF6LHaLEAlnYiSfyGX4cscgxZ7mWO3cGwtPxPtp1/9777wFbMCMP3q/xYEoIRoiV9pW320sAiUN4a+qRJColaHLG/ubLx9oJ1M+GkJGmgv46t/x2zxj179j9Tvvf/o1T9XALgCoFxA/8rA8lHpISj5cwWgBn8KqYmBSgd/PHjZe/HzpgXg6A21fPWPACAAmsVH7up9Os5hHvMRUPGvQfHLR+21VvB7jUUlf5KDPR8xXfyju/69+mq5jo/Wg8bqpf94XIEvQM9ajx/r4ws8frgToFLirMd3x/HJ8NKnTQvAo29BADrOorsd4kJr9THwBfxldzMfRs+Bxw8CELIAyEjPO03f83/360SmNiEAYazFnCUEIAABCPgiICMrxk2/+n/wqloX/yp8BsBXLHIcCEAAAhDwRKASf/r35AYEwFM8cBgIQAACEAiEgIx3/ZbpV/8H6vWlP60+wBhIuHGaEIAABCBghYD5D/89/CO1f/XPWwBWsoFxQAACEAiEgBx4U7fsnCtmrwBEY5u8HQEIJB45TQhAAAIQ8ERAxlbfa7b4R3f+G10RRPHnCoCngOcwEIAABCBwloDsX/LPpgXgyNsQAIIVAhCAAAQgUCQBeeTqq0z/7f/Qgtr/7X/zBwKLnFv6ggAEIAABCLQkYP7y/9iVwbz65y2AlmHKExCAAAQgUDQBGV72HdOX/x+5DgEoetLpDwIQgAAEwiYgoz0Xyq75Z8wKwM45IsduRQDCDlPOHgIQgAAEiiYgE72/ZLb4R5/+r/k3/zW/9x//XPQc0x8EIAABCEBgFgEZWf6QaQE41BfUq38+AzArRNkAAQhAAAIuCMjei0+aFoBv3IAAuJh4+oQABCAAgXAJyOG1V5j+87+d84L68z/eAgg3FzlzCEAAAl4JyET3r5t+9X/g8uBe/fMWgNcU4GAQgAAEwiQgoytGTQvA4XUIQJihyVlDAAIQgIBLArJ/yfdMC8Bj4dz+N778zxUAlxFP3xCAAAQg0BBpzDX99//RnwA+uYErAMQqBCAAAQhAoEgCcrBvvelX/7sWBFn8uQJQZJTTFwQgAAEIzCIg412/ZVoADlyKAMyaNTZAAAIQgAAElARkbMUB0wJwMLwbAMWfA1BOLc0hAAEIQAACrQmY/wKgR8P6AqC4+PMWQOuY5RkIQAACECiAgOxZ9KLpKwCPr+ctgALmmS4gAAEIQAAC5whM/wVAdJe96JP2Vv9PbUQAzs0YP0AAAhCAAAQKICCjXdeaLfyRkOx+XbDFn7cACghwuoAABCAAgWQCMtH9c6YFYP9SBCB56tgKAQhAAAIQyE9AJlZ/3rQAjK5CAPJPLy0hAAEIQAACyQRkbOUu0wJwsAcBSJ46tkIAAhCAAATyE5CR5Y+ZFoAHr0YA8k8vLSEAAQhAAALJBGT4sr80LQCPhHsPAD4EmByzbIUABCAAgQIIyL5L/tG0ABx5O1cACphnuoAABCAAAQicR0D2Xfy8aQH45o0IwHkzxi8QgAAEIACBAgjI7oUvmRaAJ8K9CyBvARQQ4HQBAQhAAALJBGTX606ZFoBj7+YKQPLUsRUCEIAABCCQn4DsuuC0aQGYvA0ByD+9tIQABCAAAQgkE5Ch+WdMC0DA3wPAWwDJMctWCEAAAhAogIDsnGv3S4Ci7wKY2sQVgALmmS4gAAEIQAAC5xGQB+YYF4B+BOC8GeMXCEAAAhCAQAEEEICBoAUjepuB/7kZnCogBekCAhCAQDkEeAsg9+JP4UQeflhO1nJUCEAAAgUQMP8hwMnbKbQUWqMx0P+DAlKQLiAAAQiUQ8D8nwEeC/vPALk8b/kKzebvlpO1HBUCEIBAAQRkt/EbAT0Z9o2AEADLAjDwtwWkIF1AAAIQKIeA+VsBP36z0cu/pgsTzLy8bbL5WDlZy1EhAAEIFEBA9i5+zvSNgI6G/WVAXAEwLVpjBaQgXUAAAhAoh4Dsv+S7pgXgyPW8mvXyatZ0obUaA39aTtZyVAhAAAIFEJADl33LtAA88hariz/jQkz+oIAUpAvDBEK/AqedGvhpCTpuL6PLHzUtAA9dTaGl0FqNgU87Tk+6L5kABUw3AfDT8XPeWsZWDpkWgIM9Vhd/xhW6mEwNfMR5gnKAUglQwHT44afj57y1jK3+vGkBGFlBoQ290Fo9/6n+9zlPUA5QKgEKmA4//HT8nLeWg30fNi0A+y9BAKwWwNDHNbX5rc4TlAOUSoACpsMPPx0/561ltOta0wKw60IEIPRCa/X8T9x2qfME5QClEqCA6fDDT8fPeWuRxhzZOc/uVwLvnCMytREJsFoEwx3Xs86TkwOUToACppsC+On4eWktexa9aPoqwOM3IQDhFlqjc9//sJfk5CClEqCA6fDDT8fPS2sZXva3pgXg0euMFgFunhNsgp/Y/CUvyclBSiUQbHy/+oJDCx9+WoIe2svIyv2mBeDwOgSAKwDWYuDXPaQmhyiZAAVMNwHw0/Hz0lrGuz5hWgBGl1tb/BlP6EJyYtOdXpKTg5RKgAKmww8/HT8vreVQz42mBWDPQgpu6AXX2vk/tXGVl+TkIKUSoIDp8MNPx89La5HGXBmaf8a0BBy7FQmwVgTDHc/feUlMDlI6AQqYbgrgp+PnrbXsX/LPpgWAbwVEgOwIx//2lpgcqFQCFDAdfvjp+HlrLWMrDpgWgMNvoADaKYCBz8Xmj3pLTA5UKgEKmA4//HT8vLWW8e5fNS0ABy4LvOjwJ4dmFpMTAxu8JSYHKpWAmZgrSf618OGnJeipvYxedZk8MMfuHQGH5okc70cCSloIQk/kpvN/Qb6zZaGntOQwEIAABPwQkL0XnzR9FeDojQgAAlBuDJwYOOAnGzkKBCAAAY8E5MDyB00LwOGryl38Kb7wn+r/TY8pyaEgAAEI+CEg492/aFoAhi+lACEhJcfA5hv9ZCNHgQAEIOCRgOxa9zoZWmD4fgBzRCZvK7kA8GG8pvfDQ5uL78vohvkeU5JDQQACEPBHwP4XA/1oaEWH8zVz1aP/y/4ykSNBAAIQ8ExAxlb/vum3AcZWURDNFMTAroac6P8pz+nI4SAAAQj4IyAH39Bn+s8Bd13AnwMiAGVI4Ivy1L+62F8mciQIQAACJRCQfZf8k+mrAEfeXkYB4Jhhi8fOElKRQ0IAAhDwS0DGV3/RtACMXUkxDrsY+5//qc13+c1CjgYBCECgBALy4FVXygNzDd8VcL7I5Eb/RYCiWwjzLx36iDw/+d5C+vL0FwknZXLD60tIRQ4JAQhAwD8B2b/s701fBXjsrVUqIIz1VXn6ryO/KY3tg3LTn39BnjtWGQn4Q/8ZyBEhAAEIlERAJtb8N9MCMHI5RbViVyTi4h8JQKUkYKp/oKQ05LAQgAAE/BOQI9cvkN0XvmJWAnbOEXlyAxJQEQmYWfwrIwFTA9/h5j/+1x+OCAEIlExARlaMmRWABxoih9YhABUQgFbFvyIS8LGS05DDQwACEPBPQA703mD6ngC7LxSZ4iuCPX0QLpdsdSr+xiXgZXlq4yr/mccRIQABCBggIMNLnzZ9FYAPA+YqzD6kIW3xtysB/V8xkIIMoUQCPvLE8jG06C2fm4+xafmV3l7Guv+DaQHYv9RsAfQRYFaPkbX4m5SAqf6bS09ABlAqAav55WtcWvi+xmn1OFp+JtrL3sXPmZaAb96IBBj6LEDe4m9MAh4xkXwMolQCVguLr3Fp4fsap9XjaPmZaC/jXb9tWgBGVyIARgRAW/zNSMBU//tMJB+DKJWA1cLia1xa+L7GafU4Wn4m2svkNRfI7oUv25WAOSJP3IIElCwBRRX/8iWg/7jI3XNNJB+DKJWA1cLia1xa+L7GafU4Wn5m2svYlV+yKwANEb4foFQBuvfgR6Zv7hMX76Ie1//5F/zfNvjEwL8xk3gMpFQCVguLr3Fp4fsap9XjaPmZaT99FWDPwpfMSkB0Y6Anbi61CFoNQh/jOjl5p2z4+uedSIDf2wZv/gtu/GNm2Sl9ID5yx/IxtBNg+dx8jE3Lz1R7Gev6PbMCEN0YaJxvCfQR1K2OURMJ+ICppGMwpRJoFeuhbNfCD4VTq/PU8jPVPnplJHsvesGsBERXAR5fz1WAEj8LUHEJeJL3/k0tOaUPptXCHsp27QSEwqnVeWr5mWsvY12fNCsA0VWAA3xJUKtg9LW9shJwYtOd5hKOAZVKwFfOWD2OFr7V8/I1Li0/k+1l/5LvmZaAI+/gKkCJVwGi5KqcBJwYOGAy2RhUqQR8FQqrx9HCt3pevsal5WeyvUz0/ITp7wjYu5jvCChZAKIEq5AEnJKnBt5iMtkYVKkEfBUKq8fRwrd6Xr7GpeVntr2MXH7M9FWAh9/MVQAkIF0MTG2+x2yiMbBSCfgqFFaPo4Vv9bx8jUvLz2x7Ge97gwwtOGNWAoYWiBy7NV0BMFAofQVkGccxfiXg+3LitkvNJhoDK5VAGfli6Zha+JbOpYyxaPmZbi9jq+81KwD8WaAp+TEsAf/WdJIxuFIJlFE0LB1TC9/SuZQxFi0/0+1FGnNkn/EPBB69wVQhLCMIrRzTnARMDYxEMWw6yRhcqQSs5E5Z49DCL2vcVo6r5We+vRzsWy+75tl9K2DPQpHJjUiAkbc5DEnAD+XY5rXmE4wBQgACELBMQMZWfc3SHjTAAAAgAElEQVT0WwET3QiAEQGIzNyIBPwnyznF2CAAAQhUgsD0HQL3LfkXsxIQ3SHwG7wVYOWymAEJOCiyZV4lkotBQgACELBOQEZ63ilD842/FXA7VwK4EvCMHH9Pt/V8YnwQgAAEKkVAxrs+Y/YqQPRXASMrEABDAlDKlYATA1srlVQMFgIQgEBVCMjwZX9pWgIevhYJCFYC+r9clTxinBCAAAQqR0Ae7l0uexa9aFYCds7jGwONCYCPKwHPHHvfcZnc8PrKJRQDhgAEIFAlAjLWu9H25wEuEpnk8wCWPhToWgIu+uM/Ptq492sXVymPGCsEIACBShKQ8a5PSPTp++i9d4v/R67gC4MCuxLQ+KPBw0hAJZcTBg0BCFSNgIwuP2Sy+MdCcmgdnwdAAqqWVowXAhCAgH0C0/cH2L/s781KQHSF4rG3IgFIgP1kYoQQgAAEqkZAHrxmmexd/JxZCRiaJ3L0RiQACahaajFeCEAAAvYJyCNXXyV7Fr5sVgJ2XSDyxC1IABJgP5kYIQQgAIGqEZBD3e+RoQV27xS49yKRY7chAUhA1VKL8UIAAhCwT0DGe94vuwzfLnjvYpFJJMDanwe6/hNB/jrA/trBCCEAgRoQkENr/r3prw/ef4nIFF8fjATUINk4BQhAAALWCMj4mo/Kzrk27w8Q/Yng8GUiU5t4OyC0twO2D0qD//VioFz8LIqwzzEp8TV8jtXisbT8atv+7I2CDEvAgcuRAIMCECX5yck7ZcPXP1+vQoV4uJlP5Qpqsaj4HJMSHwKgBVjn9jKx5j+afjtgeJnIJG8H+Fxw0h4rkoBbvn7PKV6xc9WibQwoF9C08VjX/ZT4EAAtwLq3l/HuXzT9vQFIgNW3Qk7+n2/+9Hsa9w+Oti0AvLJ288q6KlyVC2hdC3va81LiQwC0AENoL+M9P2v6TwT3LRE5dqvVQhjiuP5FJvtvmM6N++67CAngKkBLCVQuoGkLZV33U+JDALQAQ2kvh3o3mr5Z0J6FIk/cHGKxtXbOfyPHN117Xl4gAWG/ym93NeK8QMn+S10Le9rzyk7s/BZpj1PX/c6nwW9tCcih3jfK3ovt3jY4umPg0R+zVhADGk//N+WJzasTgwgJQAKSRCAxWNJvrGthSnte6Ukl75n2OHXdL5kKW1sSkIfXLZb9y75t9rbB0Z8vPvqWgIrugJVz/VM58t5FLQMnegIJQAJmSkDbgOn8ZF0LU9rz6kyo/R5pj1PX/drT4dlEAtPfIjiy4qBZCYjuFXCYrxL2mLSfFrl7bmKwzNyIBCABzRIwMz4y/u4xxq2I9nnjyIhr1u7wm4WEDWkJyETXfzf9FwIjy0Umbz8vYUIP+ILP/3k5vvn9aePl3H5IABIQS8C5oMj3Q8HxXLm1Ih+111rB7zUW/JSDgEz03SZ7Fr1g9mrAnotEHv/xyiV2BRLzKZnqf3OOkDnbBAlAAiIJUP6rQJ44XXuU+PgrAC1A2jcacnjtFXLgsr8wKwFD80QevtZpIga2EN0vT2y6SB37SAASoAyiwPJu1hqmxIcAaAHS/jUCMn7lb5t+S2B0Fd8mqLt98LNyYuDfvTbjBfyEBIQtAcoQQgB0AOGn40frGQRkpOedsm/JD8xeDdj1OpEj188y6dATIcX5H5Zjm9fOmO5ift2x4/WN7YNjLW8WE79fzGP9ZEEZQSnitta5rsTHFQAtQNrPJjD9VwJjq/5Mds6z+42CE918j0C6qwEvyImBX0n9Kf/Z4ZBuy44dFzS2f/WexvZBvj8gJNFJFx0t90IAWqJJ9QT8UmFipzwE5GDfetm35HtmrwbsWSRy5O21foWgSvCpgRF5auCNeeY+d5v7v/rmxv2Dn2vcv+NYY/vgSa4K1Pw2wrkD5WxDVXynE2DT64MSH1cAtABp35mAjK/+ogwtOG1WBMZW8V0CzYvhiYF/lOP9HxRpzOk8u+wBAQhAAAIQaENADq9bKyNXPC4PzLH5tsCuBSIPXSNyvN+08Tt+xXNapga+KE/esbTNVPIUBCAAAQhAIDsBOdgzIPsu+SezVwP2XhTqhwT3y/H+t2WfUVpAAAIQgAAEMhCQ8a5PmL6B0MjlYdxA6MTA43JioD/D1LErBCAAAQhAQEdAZMs8GV/zO7Jn4UtmrwiMrKjr1wx/S45v/pDzT/frQoTWEIAABCBQZwIyec0FMrb692XPwpdtisAckbErRR6/uQ6fD5iUqc13RfJV55ji3CAAAQhAoEIEpu8fMLHmk7J38XMmRWDnHJHorYGjN1ZRBI7I8YGf5BV/hRKCoUIAAhAIkYBM9PyC7F/6D2b/amB4mchjP2r9rwZekqnN2+XEpptCjCHOGQIQgAAEKkxAHlr3NhlftU92X/iKyasC0a2FD/aJPPkuS1cF/lam+n9Tjt22vMJTz9AhAAEIQAACjcbZtwe6Py7Dy74jO+fau5dA9PbAgctFHrlOZGpjGTLwrEwN/C853n877++TMRCAAAQgUEsCMvGmlTLe9T9k+JLvmpSBoflnPzQYfenQ1CaXMvCCTA18XY5vfr98Z8vCWk42JwUBCEAAAhBIIiDjb+ydvtXw/mXflqEFZ8y9TRDJwOhKkUevE5m8vQAZ2PxdOT7wB9Mf6Hti00VJTNgGAQhAAAIQCIrA9J8TTqz5eRlZcXD6LwnMvVUwR2R4qcjhdSJH35n2A4Qn5fjmfXJ84GMy2X8Dn+IPKqQ5WQhAAAIQyENAHrxmmUz0/pKMrNwv+y/5Jxmab+sKwdA8keFLRQ6tFXns+le/kGjzt+XEwNfkeP9vyPHNN0affchz7rSBAAQgAAEIQKCJgIz0vFPG19wtIyv3yPCyb8vei16QXfP8i8HQ3DOyd9FJGV72f2V0xU4ZvfK/yP7L39o0VH6EAAQgAAEIQMA1ATly1dUy3vOzMt71ORlb9XUZWf6IHLjsL2R46dOyb/GzsnvRS7Lnwpenv9Y4upIw1CQN0c/T2+afnt5nz6IXZe/Fz8q+pf8gBy49IcNXPCRjK/9Mxld/RsZXb5O9y3tdnw/9QwACEIAABCAAAQhAAAIQgAAEIAABCEAAAhCAAAQgAAEIQAACEIAABCAAAQhAAAIQgAAEIAABCEAAAhCAAAQgAAEIQAACEIAABCAAAQhAAAIQgAAEIAABCEAAAhCAAAQgAAEIQAACEIAABCAAAQhAAAIQgAAEIAABCEAAAhCAAAQgAAEIQAACEIAABCAAAQhAAAIQgAAEIAABCEAAAhCAAAQgAAEIQAACEIAABCAAAQhAAAIQqB6B7YPS0Pyv3hkzYghAICagyf2oLf8gAIEKE2ABqPDkMXQIKAmQ/0qANIdAlQmwAFR59hg7BHQEyH8dP1pDoNIEWAAqPX0MHgIqAuS/Ch+NIVBtAiwA1Z4/Rg8BDQHyX0OPthCoOAEWgIpPIMOHgIIA+a+AR1MIVJ0AC0DVZ5DxQyA/AfI/PztaQqDyBFgAKj+FnAAEchMg/3OjoyEEqk+ABaD6c1jjMzi1vks0/2Vbr2j+1xjt2VMj/2s/xZwgBFoTYAFozYZnSiegKf5RW03xj9qWDsD1AMh/14TpHwKGCbAAGJ4choYAOI4B8t8xYLqHgGUCLACWZyf4sSEAjkOA/HcMmO4hYJkAC4Dl2Ql+bAiA4xAg/x0DpnsIWCbAAmB5doIfGwLgOATIf8eA6R4ClgmwAFieneDHhgA4DgHy3zFguoeAZQIsAJZnJ/ixIQCOQ4D8dwyY7iFgmQALgOXZCX5sCIDjECD/HQOmewhYJsACYHl2gh8bAuA4BMh/x4DpHgKWCbAAWJ6d4MeGADgOAfLfMWC6h4BlAiwAlmcn+LEhAI5DgPx3DJjuIWCZAAuA5dkJfmwIgOMQIP8dA6Z7CFgmwAJgeXaCHxsC4DgEyH/HgOkeApYJsABYnp3gx4YAOA4B8t8xYLqHgGUCLACWZyf4sSEAjkOA/HcMmO4hYJkAC4Dl2Ql+bAiA4xAg/x0DpvtQCZza2D1m/9xZAOzPUcAjRAAcTz757xgw3YdIICr+0dpl/9xZAOzPUcAjRAAcTz757xgw3YdGIC7+CEBoM8/5Fk4AASgc6fkdIgDn8+A3CCgINBd/BEABkqYQiAggAI7jAAFwDJjuQyEws/gjAKHMPOfpjAAC4Azt2Y4RAMeA6T4EAknFHwEIYeY5R6cEEACneBsNBMAxYLqvO4FWxR8BqPvMc37OCSAAjhEjAI4B032dCbQr/ghAnWeec/NCAAFwjBkBcAyY7utKoFPxRwDqOvOclzcCCIBj1AiAY8B0X0cCaYo/AlDHmeecvBJAABzjRgAcA6b7uhFIW/wRgLrNPOfjnQAC4Bg5AuAYMN3XiUCW4o8A1GnmOZdSCCAAjrEjAI4B031dCGQt/ghAXWae8yiNAALgGD0C4Bgw3deBQJ7ijwDUYeY5h1IJIACO8SMAjgHTfdUJ5C3+CEDVZ57xl04AAXA8BQiAY8B0X2UCmuKPAFR55q2M/eP3SEPzv+ILPALgOBArHh+O6dB9wAS0xR8BCDh4Cjt1TfGP2lZ8gUcACouk5I4qHh/JJ8VWCOgIFFH8EQDdHNA6IoAAiEYCZFuvaP7XPggRgNpPMSeYjUBRxR8ByMadvZMIIAAIQFJcFLUNASiKJP3UgECRxR8BqEFAlH4KCAAC4DIIEQCXdOm7QgSKLv4IQIUm3+xQEQAEwGVwIgAu6dJ3RQi4KP4IQEUm3/QwEQAEwGWAIgAu6dJ3BQi4Kv4IQAUm3/wQEQAEwGWQIgAu6dK3cQIuiz8CYHzyKzE8BAABcBmoCIBLuvRtmIDr4o8AGJ78ygwNAUAAXAYrAuCSLn0bJeCj+CMARie/UsNCABAAlwGLALikS98GCfgq/giAwcmv3JAQAATAZdAiAC7p0rcxAj6LPwJgbPIrORwEAAFwGbgIgEu69G2IgO/ijwAYmvzKDgUBQABcBi8C4JIufRshUEbxRwCMTH6lh4EAIAAuAxgBcEmXvg0QKKv4IwAGJr/yQ0AAEACXQYwAuKRL3yUTKLP4IwAlT34tDo8AIAAuAxkBcEmXvkskUHbxRwBKnPzaHBoBQABcBjMC4JIufZdEwELxRwBKmvxaHRYBQABcBjQC4JIufZdAwErxRwBKmPzaHRIBQABcBjUC4JIufXsmYKn4IwCeJ7+Wh0MAEACXgY0AuKRL3x4JWCv+CIDHya/toRAABMBlcCMALunStycCFos/AuBp8mt9GAQAAXAZ4AiAS7r07YGA1eKPAHiY/NofAgFAAFwGOQLgki59OyZgufgjAI4nP4juEQAEwGWgIwAu6dK3QwLWi/+ZO7rF4ekX1DULQEEgHXWDACAAjkJrulvy3yVd+nZEoArFX7b1IgCO5j+cbhEABMBltCMALunStwMCVSn+CICDyQ+uSwQAAXAZ9AiAS7r0XTCBKhV/BKDgyQ+yOwQAAXAZ+AiAS7r0XSCBqhV/BKDAyQ+2KwQAAXAZ/AiAS7r0XRCBKhZ/BKCgyQ+6GwQAAXCZAAiAS7r0XQCBqhZ/BKCAyQ++CwQAAXCZBAiAS7r0rSRQ5eKPACgnn+aNRgMBQABcJgIC4IzudPHa2PWQswPUvOOqF38EoOYB6uX0EAAEwGWgIQBO6J5XvJCAzIzP47e+S7UGRHfkK/p/dJOfqMB3+p/5xL03YAHwjjzTAREAVfJ2StBOz2eaqyruTP4XPmuJxQsJSM05kZ+DIp5XCtIW/2htSX3Spe3IAlAa+lQHRgAQgFSBknMn8j8nuORmbYsXEpAMrWlrW34GJCBL8UcAmiaWH3MSQAAQgJyhk6oZApAKU5qdUhUvJKAlylT8SpSArMUfAWg51TyRmgACgACkDpYcOyIAOaDNbpKpeCEBswBm4leCBOQp/gjArGlmQ2YCCAACkDloMjRAADLASt41V/FCAs7BzMXPowTkLf4IwLkp5ofcBBAABCB38KRoiACkgNR6F1XxQgIaKn4eJEBT/BGA1nnDM2kJIAAIQNpYybMfApCH2nSbQopXwBJQCD+HEqAt/ghA7tSi4TkCCAACcC4YHPyAAOSCWmjxClACCuXnQAKKKP4IQK7UotF5BBAABOC8gCj4FwQgM1AnxSsgCXDCr0AJKKr4IwCZU4sGswggAAjArKAocAMCkAmm0+IVgAQ45VeABBRZ/BGATKnFzokEEAAEIDEwCtqIAKQG6aV41VgCvPBTSEDRxR8BSJ1a7NiSAAKAALQMjgKeQABSQfRavGooAV755ZAAF8UfAUiVWuzUlgACgAC0DRDlkwhAR4ClFK8aSUAp/DJIgKvijwB0TC126EgAAUAAOgaJYgcEoC28UotXDSSgVH4pJMBl8UcA2qZWuiflgYao/h8fEFH8TzdKh3shAAiAw/BqIAAt6ZooXhWWABP82kiA6+KPALRMrfRPqIp/JA+K4h+1TT9SR3siAAiAo9Ca7hYBSKRrqnhVUAJM8UuQAB/FHwFITK1sGxGAe6ShkYCKL/B5v7M7bhcloeZ/tmit4N4Vjw8XxE0WrwpJgEl+TRLgq/gjAAVkJwKAAMTFPM+jpvhXI4GVSYYAnAfQdPGqgASY5re+S3wW/2qsH8YXAAQAAchT+OM2CMB59W32L8bzf/aA3W2pRvHq+5Q7ArqeZVvf3Wfu7FG9ZRfnrYtH38UfAdDF03RrBAAB0CwGCECHJEQApgFVo/jHb2fZk4Co+Me5ZlECyij+CECHtSfN0wgAAoAApMmUnPsgABX9Slo7EtBc/C1KQFnFHwHIuSY1N0MAEAAEoDkjCv45cAGo1iv/+ApA/Fi+BCQVf0sSUGbxRwAKWKsQAAQAASggkVp1EbAAVLv4ly8B7Yq/BQkou/gjAK0WnQzbEQAEAAHIkDBZdw1UAOpR/MuTgDTFv0wJsFD8EYCsi1HC/ggAAoAAJCRGUZsCFIB6FX//EpCl+JchAVaKPwJQwCKFACAACEABidSqi8AEoJ7F358E5Cn+PiXAUvFHAFotOhm2IwAIAAKQIWGy7hqQANS7+LuXAE3x9yEB1oo/ApB1MUrYHwFAABCAhMQoalMgAhBG8XcnAUUUf5cSYLH4IwAFLFIIAAKAABSQSK26CEAAwir+xUtAkcXfhQRYLf4IQKtFJ8N2BAABQAAyJEzWXWsuAGEW/+IkwEXxL1ICLBd/BCDrYpSwPwKAACAACYlR1KYaC0DYxV8vAS6LfxESYL34IwAFLFIIAAKAABSQSK26qKkAUPxjAYges98x0Efx10hAFYo/AtBq0cmwHQFAABCADAmTddcaCgDFv7n4xz+nlwCfxT+PBFSl+CMAWRejhP0RAAQAAUhIjKI21UwAKP5xwU967CwBZRT/LBJQpeKPABSwSCEACAACUEAiteqiRgJA8U8q+jO3tZaAMot/GgmoWvFHAFotOhm2IwAIAAKQIWGy7loTAaD4zyz07X6fLQEWin87Cahi8UcAsi5GCfsjAAgAApCQGEVtqoEAUPzbFftWz70mAZaKf5IEVLX4IwAFLFIIAAKAABSQSK26qLgAUPxbFfg02/vutlj8Ywk4fUe3RP/j36v42Crt7Gw3vgAgAAgAAuBwuTCe/+3OnOKfpsizT5ni0C5+bTxnfAFAABAABMDhUmE8/1udOcWfwl5mYU977Fbxa2e78QUAAUAAEACHy4Xx/E86c4o/xT9tAS57v6T4tbXN+AKAACAACIDDJcN4/s88c4o/xb/sop7l+DPj197vxhcABAABQAAcLhvG87/5zCn+FP8sxdfCvs3xa/Nn4wsAAoAAIAAOlw7j+R+fOcWf4m+hoGcdQxy/dh+NLwAIAAKAADhcPoznf3TmFH+Kf9bCa2V/h5lbUNfGFwAEAAFAAArK9aRujOc/xZ/ib6WY5xlHUsrZ2mZ8AUAAEAAEwOGSYTz/NXPvo22eokCbcKTGYeYW1LXxBQABQAA0C7l2sS0oy+x2Yzz/NXPvo602vmhfbxmwm/jxyIwvAAgAAqBZyLULbJwmtX00nv+auffRVhtftEcAyl1bjC8ACAACoFnItQtsucnp4ejG818z9z7aauOL9giAhyxvcwjjCwACgABoFnLtAtsmc+rxlPH818y9j7ba+KI9AlDuQmJ8AUAAEADNQq5dYMtNTg9HN57/mrn30VYbX7RHADxkeZtDGF8AEAAEQLOQaxfYNplTj6eM579m7n201cYX7RGAchcS4wsAAoAAaBZy7QJbbnJ6OLrx/NfMvY+22viiPQLgIcvbHML4AoAAIACahVy7wLbJnHo8ZTz/NXOvbfsnWzf94N677nymXT/a+KK9XQHY8WvvG/3Sb2wZ08yR/UXC+AKAACAA7RbgTs9pkjdqaz+BlSM0nv+d5tfV81Hxb3z8bO61kwBtfNHepgBExb/xam5oJECZnR6aG18AEAAEQLPIaxdYDxlY7iGM579m7vO2bS7+nSRAG1+0tycAzcVfKwHlJneaoxtfABAABCDvQh610y6waVKo0vsYz3/N3Odpm1T820mANr5ob0sAkoq/RgLsrw3GFwAEAAHIs5DHbbQLrP0EVo7QeP7H8+jjsV3xbyUB2viivR0BaFf880qAMjs9NDe+ACAACIBm8dcusB4ysNxDGM9/zdxnaZum+CdJgDa+aG9DANIU/zwSUG5ypzm68QUAAUAAsizkM/fVLrBpUqjS+xjP/5nz6eL3LMV/pgRo44v25QtAluKfVQLsrw3GFwAEAAHQLPraBdZ+AitHaDz/NXOfpu1Xmj7tHxf3tI9/uHXzs9r4on25ApCn+GeRAGV2emhufAFAABCANAt5q320C6yHDCz3EMbzv9W8FrE9zyv/mXKg+RMxbWzSXicPmuKfVgLKTe40Rze+ACAACIBmsdcukmlSqNL7GM9/zdy3a1tE8Z+Wge2DggToCrE2R/O0L6L4p5EA+2uD8QUAAUAA2i3knZ7Lszg0t7GfwMoRGs//TvOb5/nCin90o6BX+SEB1ZGAIot/p/lXZqeH5sYXAAQAAcizyMdtmot5np89ZGC5hzCe//E8FvVYaPFvEoCoECAB9iXARfFvJwHlJneaoxtfABAABECz+Ocp+s1t0qRQpfcxnv+auZ/ZtvDiP0MAkADbAuCy+LeSAPtrg/EFAAFAAGYu5Fl+by7meX62n8DKERrP/yxz3W5fJ8U/QQCQAJsS4KP4J0mAMjs9NDe+ACAACEC7hb3Tc3mKfnMbDxlY7iGM53+n+U3zvLPi30IAkABbEuCz+M+UgHKTO83RjS8ACAACkGaRb7VPczHP83OaFKr0Psbzv9W8pt3utPi3EYCoEPzxr/3koTwxR5viBGLHr/zEWFyUfT9G829/bTC+ACAACEDaxT5pP+1iaj+BlSM0nv9Jc5p2m/Pi30EAooJT5Q8GRq+cqz5+30V/1vGU6em+ufEFAAFAANIu+En7IQAdlhDj+Z80p2m2eSn+KQSgqhLQfNm8ihLQPP5ZRVkb81nad0i/8p/OcjJJ+zo+AwQAAUiz4LfaBwHokKBJOZ1lW4futU+3mtd2270V/5QCUDUJSCqeVZKApPGXJgHaBHDePkuyJ+3reIAIAALQbrHv9BwC0CFBk3I6y7YO3Wuf7jS/M5/3WvwzCEBVJKBd8ayCBLQbfykSoE0A5+2zJHvSvo4HiAAgADMX+Sy/IwAdEjQpp7Ns69C99uksc+29+GcUAOsSkKZ4WpaANOP3LgHaBHDePkuyJ+3reIAIAAKQpQjM3BcB6JCgSTmdZVuH7rVPz5zPVr+XUvxzCIBVCchSPC1KQJbxe5UAbQI4b58l2ZP2dTxABAABaLXop9mOAHRI0KSczrKtQ/fap9PMcWnFP6cAWJOAPMXTkgTkGb83CdAmgPP2WZI9aV/HA0QAEIA0RaDVPghAhwRNyuks2zp0r3261bzG20st/goBsCIBmuJpQQI04/ciAdoEcN4+S7In7et4gAgAAhAv9nkeEYAOCZqU01m2dehe+3S7OS+9+CsFoGwJKKJ4likBRYzfuQRoE8B5+yzJnrSv4wEiAAhAuyLQ6TkEoEOCJuV0lm0dutc+3Wp+TRT/AgSgLAkosniWIQFFjt+pBGgTwHn7LMmetK/jASIACECrIpBmOwLQIUGTcjrLtg7da59OmmMzxb8gAfAtAS6Kp08JcDF+ZxKgTQDn7bMke9K+jgeIACAASUUg7TYEoEOCJuV0lm0dutc+PXOeTRX/AgXAlwS4LJ4+JMDl+J1IgDYBnLfPkuxJ+zoeIAKAAMwsAll+RwA6JGhSTmfZ1qF77dPNc22u+BcsAK4lwEfxdCkBPsZfuARoE8B5+yzJnrSv4wEiAAhAcxHI+jMC0CFBk3I6y7YO3WufjufbZPF3IACuJMBn8XQhAT7HX6gEaBPAefssyZ60r+MBIgAIQFwE8jwiAB0SNCmns2zr0L326WjOzRZ/RwJQtASUUTyLlIAyxl+YBGgTwHn7LMmetK/jASIACECewh+3QQA6JGhSTmfZ1qF77dNf+UD/M42o0Fr9n4VVxn2j75PXxu+OX/mJscKKWWDjL4SbNgGct884qbOgOB4gAqBc/IzPb6fwiQt53kftAtppfJV/3np8WC388bi0/Dq017yStvDKuerjn1XvOszXrP3NLxBZT2jm/o5PEAFAAPIW/6gdAtAhQWfmc9bfO3SvfjoutFYfs/LKsX+eImqh+MfFsOrjj88j16M6AVx3kCMgzwPheHwIAAKAADhMMuP5b/bSfywkWn4p22cpopaKf1wrqj7++DwyPzpM3WK6ThmALU+8mFG07AUBQAAQgJbpoX/CeP4jAIMSr71piqjF4l+X8cfnkelRn6GOezC+ACAACAAC4HANMJ7/CMBrAhAVnnYSYLn4x0Wz6uOPzyP1o8PULaZr4wsAAoAAIADFpHpiL8bzHwE4XwBaSUAVin9cNJMkoErjj88j1WNi0lnaaHwBQAAQAATA4c5x55EAAAWSSURBVIJhPP8RgNkCMFMCqlg8myWgiuNPVfyj3DL/z/gCgAAgAAiAw1XEeP4jAMkCEBWg6G/8y/w7/9RFsEWMVX38qc7fYeoW03WLyUl1clFb/kEAAtUlYD3/40/bW33U8qP9uQ85pq45VWJmfmXQwjR/ggwQAhBoScB6/lst/PG4tPxojwC0TE4fT2gD0McYOQYEIOCGgPX8jwut1UctP9ojAG4yO2Wv2gBMeRh2gwAEDBKwnv9WC388Li0/2iMApS4L2gAsdfAcHAIQUBGwnv9xobX6qOVHewRAlcDaxtoA1B6f9hCAQHkErOe/1cIfj0vLj/YIQHnZ32ioP3lZ6uA5OAQgoCKgLUCqg6doHBdaq49afrRHAFKkgbtdtAHobmT0DAEIuCZgPf+tFv54XFp+tEcAXOd42/61Adi2c56EAARME7Ce/3Ghtfqo5Ud7BKDUBUIbgKUOnoNDAAIqAtbz32rhj8el5Ud7BECVwNrG2gDUHp/2EIBAeQSs539caK0+avnRHgEoL/v5EGCp7Dk4BMomoC1ArsdvtfDH49Lyoz0C4DqH2vavDcC2nfMkBCBgmoD1/I8LrdVHLT/aIwClLhDaACx18BwcAhBQEbCe/1YLfzwuLT/aIwCqBNY21gag9vi0hwAEyiNgPf/jQmv1UcuP9ghAednPZwBKZc/BIVA2AW0Bcj1+q4U/HpeWH+0RANc51LZ/bQC27ZwnIQAB0wSs539caK0+avnRHgEodYHQBmCpg+fgEICAioD1/Lda+ONxafnRHgFQJbC2sTYAtcenPQQgUB4B6/kfF1qrj1p+tEcAyst+PgNQKnsODoGyCWgLkOvxWy388bi0/GiPALjOobb9awOwbec8CQEImCZgPf/jQmv1UcuP9ghAqQuENgBLHTwHhwAEVASs57/Vwh+PS8uP9giAKoG1jbUBqD0+7SEAgfIIWM//uNBafdTyoz0CUF728xmAUtlzcAiUTUBbgFyP32rhj8el5Ud7BMB1DrXtnwCsdwAyv/We37bJneJJ4qPe8cH82p7fFCnqdhcCxHaAMD/MT7sY0K4O7frmOWKPGHAbA9r8Vbdngt1OMHzh6zIGtAuAy7HRN7FPDLSPAW3+qtszQe0nCD7wsRwD2gXA8rkxNnKv7jGgzV91+7oD5vxYROocA9oFoM5sODdy33oMaPNX3d46IMZHEhMDrWNAuwDAtjVb2MDGdQxo81fd3vUJ0j9JRAy4iwHtAsDcuJsb2MK2Uwxo81fdvtMAeZ4gJgbsxoB2AWBu7c4tc1P/udHmr7r99sHnGgRa/QONOa7nHGsXAPK/nnFBvldjXrX5q26/fXAKARisRrCQ1MzTzBjQLgDkPzE1M6b43V9MaPNX3X77V38HAUAAiIGKxoB2ASD//S32FFZYz4wBbf6q29/3p9c2tg+eogBUtADMDCh+D2uR0S4A5H9Y8cL6YGu+tflbSPvtg19AABAAYqCCMVDEAkD+2yoKFOlw5qOI/FX3sWPHBY3tg8MUgAoWABaLcBaLpLlWJ3+j0SD/w46hpLhim5+YKCJ/C+ljehH46j28HYAEIIIVioFCkj+WAPKf2K9Q7NdBUorK38L6uf+rb25sH/xs4/4dxxrbB58nIUgIYsBwDBSW+K92RP77eeVXh+LFOehjpej8pT8IQAACEIAABCAAAQhAAAIQgAAEIAABCEAAAhCAAAQgAAEIQAACEIAABCAAAQhAAAIQgAAEIAABCEAAAhCAAAQgAAEIQAACEIAABCAAAQhAAAIQgAAEIAABCEAAAhCAAAQgAAEIQAACEIAABCAAAQhAAAIQgAAEIAABCEAAAhCAAAQgAAEIQAACEIAABCAAAQhAAAIQgAAEIAABCEAAAhCAAAQgAAEIQAACEIAABBr/H7Ra1b6PGro6AAAAAElFTkSuQmCC;" vertex="1" parent="1">
          <mxGeometry x="745" y="279" width="50" height="50" as="geometry" />
        </mxCell>
        <mxCell id="kkyCF6RHFg_3seXWVsR8-48" value="" style="endArrow=none;html=1;rounded=0;fillColor=#f5f5f5;strokeColor=light-dark(#454545, #959595);" edge="1" parent="1">
          <mxGeometry width="50" height="50" relative="1" as="geometry">
            <mxPoint x="549" y="379" as="sourcePoint" />
            <mxPoint x="552" y="376.5922746781116" as="targetPoint" />
            <Array as="points" />
          </mxGeometry>
        </mxCell>
        <mxCell id="kkyCF6RHFg_3seXWVsR8-50" value="" style="endArrow=none;html=1;rounded=0;fillColor=#f5f5f5;strokeColor=light-dark(#454545, #959595);" edge="1" parent="1">
          <mxGeometry width="50" height="50" relative="1" as="geometry">
            <mxPoint x="550" y="379" as="sourcePoint" />
            <mxPoint x="650" y="379" as="targetPoint" />
            <Array as="points" />
          </mxGeometry>
        </mxCell>
        <mxCell id="kkyCF6RHFg_3seXWVsR8-51" value="" style="shape=image;verticalLabelPosition=bottom;labelBackgroundColor=default;verticalAlign=top;aspect=fixed;imageAspect=0;image=data:image/png,iVBORw0KGgoAAAANSUhEUgAAAgAAAAIACAYAAAD0eNT6AAAAAXNSR0IArs4c6QAAIABJREFUeAHtnQe4LEW1tpf36hUxgmLOARVRwRwQc8KEAXNWzDnngIqYBQPmnDBhxohZERVQEXNERTFgQsVw/7/fS7fOmTOz98zUV9XVPV89zzk9e6a7etVXq6pWrVohwsUIGIEOgVNFxPkjYreIuG1EPCIi9ouI50bECyLigIh4SUS8LCJeGRGviYjXR8SbI+JtEfGOiHh3RLw3Ij4QEYdExEcj4tCI+HREfC4ivhARH2qfo95HR8TdIuLGzf1XjIgLRsTpO4J8NQJGwAgYASNgBNIQOHW7uF49Iu7QLrwvioiDI+LLEXFcRPxvRPy/Sv79NSJ+GhFfjYgPR8QbG8HgeRHxmIi4R0TcNCKu3Hx/oYigbS5GwAgYASNgBNYSgTNFxNUi4k4R8biIeGlEvK9ZKI+IiOMrWdRzCRf/iIhvRsRbWgHhho2G4lxryQVutBEwAkbACIwWgf9qFrodmwVvr4h4WrvI/3jkC/yqgsNv2uOHF7bHDJdtjjS2GS1nuGFGwAgYASMwGgRY7HdpdvD3a8/cD4+IE73YJx1T/DMijomIt0bEY5vjjxtFxLlHwzFuiBEwAkbACAwSgdNEBGf0j28N6P7gxT5psV9Gc/DbBvtPRsT+rY3EDoPkIBNtBIyAETACg0Bg+9aY7dmtdfxJXvCLLfibCQcYRH4lIp7eekWcchAcZSKNgBEwAkagSgROERGXbxb5J0fEYRHxLy/41Sz4mwkEv4+Id0bE3hFxniq5y0QZASNgBIxAVQiwy8en/g1rYI2/2SI6pt/xOsAt8bo2LKxqvJkYI2AEjECvCGC4xzn+5yMCo7MxLXxuy9b9+Zc2uNGDWg+NXpnPLzcCRsAIGIGyCFyyPS/+nhf8tRd4fhgRB0bEzRzVsOwg9NuMgBEwAqUQuGgTPe9JbRAa74y33hkbk4i/N66c72lDHf93Kcb0e4yAETACRkCPALHqCUd7lHf6a7/TX1bA+XlE7BsRF9azpWs0AkbACBiBHAicLiLu2VruLzvp+35rBqZ5ABfDT0XEHSOC2A8uRsAIGAEjUBkChI59eUT80bt97/Yz8QDuheRtgNdcjIARMAJGoEcEzhAR922T6Ezv3Py3d/M5eeDIiHhAE41wux753682AkbACKwdAldq89s71v78RR5NyI/aCHmk6CX7Hml6D4qId0fEB5oUvR9pQ+p+LiLIXcCihs/8dyOCpEWcg/86Itj54j5HJr+ci+oQ6yYVMtheKyIIHuViBIyAETACYgQI73r7Ndzts+j+qk2K89nWSv3VEUFI4ke39g43bzLp7R4Rl4iIs0fEqcTYT1bHIkeWvvO377xDm6gHV7oPRsQ3ImJd8yLgUvgEJyyaZJfRfsbWaNc2QRU2R3gYMQbe29offaJNYkW+ClJ+c8/1IoLnXIyAEVgQgdM35/oPa1LE/mTku0+0GV9uNRu0l8ninAPeVZ4xIoi3sEdE3Ke1qH9Ts1P+TKtdGLM2gbDRH2rbviCb+7YBIEAmSrJ9olFbNRcIfE/QMdKDXyMiTj2AdptEI1AcgXM1VtfPatXPQ1QNz6OZCeDoiHhbu1vcs1HNXygiSCe8ToX2MqFeLSIeHhFvj4ifjlDI41jl1mvYv2PhZbRq7O5JNjVvTKd8z9EaGr2dxwKY22EEUhBg1/i6Rm1GUJaUgdX3s7iPoRJ+X7v7vV27I/6fFHDW4Fm0HhxpIPzhfvfngfNBx4ffaQScu2c+nlkD9ijWRIRy7GUYx10f5r5ik3ODAWv9inWOXzQ+BK4cEYcUHGzqwfy3iPhYs2A9omnHFX3WJ2NQIvKRr+HeEfHaiPhW4UlZzSdoOchD4JgCMhaRVnSWxrODc/s+NyBoCElc5WIERo8AkzsW6eqJtkR9x0TEC1qp3RN6OVY9U2sj8cTW8PA3A+Sf41vjMGwlXPpHgPGLsV5NBqwIvHYz7Z83TEEGBC7eWK2/Y2C7ud+1Z9X3cJ75DByRVuVFIuKBjWfCoQPL6ghPPcppitM6P/Fpwj0jzJfYNCz7juMaz5pbJrbPjxuBahAgPv/rIwJL6WUHQ+n7SQ+Mxe6TG8tfYg84QUw1bLQhIWduvEbu1tpf4Kdfmm9Wed/PIgLB0jy2YdfKf0TVjhC2Sp+VfObNjS2R7Yfk3e8KSyGAVf/Lej5bW2TAEgDnFa3UjarZZdgI4He9Vxuspyb17jxexMYBI0iX/Ag8eGDaoo/btig/U/gNWgQI1/ucJmhNzTsxgtfgikbKYJfxIsAO6oatgEdwpXmLcA3ff7GJ0nj18XZFry2DD15Vef/P40EidqLhcjECVSNAxDjUsL+sdKCxGyR5EBb7LuuHAHEIiEHw/DZk8rwJt+/vCSh0qfXrnmwtpt+HanTc8SL2CsTQcDECVSLAovqlShd+ItHdpQmlu22VyJmovhAgrOs+bZCmbqKt5Yq9zEtsES5hDUJo19KvKXSQr8MeJBKWcCUqBIhDTxCfksEzFhlEv2isrPdrzoF3VDXU9YwaAQRYjK769AWfxde4DmIo6KRDq7HfHUey+He8Qd4B88JqvOCnhAhwpvbIJmY/Geg65uz7Ssjd90TETSKCREIuRmBZBM7RPPCUCo+xDouIyy7bmDW//wqV2yGtOl8+fs371c3vGQGMqlBHrcrA6ue+3fpVo41wMQIKBBBw2T3WdKzFsQDZ57ZXNHDkdRBeGi2geq6poT74gMRhLkagKAKEzERNWsMgIF48UbN2K4qAX7aOCNR2PEAUxL2dbGhDViQ1bw3zVC4a4IGzboiAfzQCQgRu06TF5DwyF0MvWi+aB2LEkzLYxQiURAANE8cDRGpblF9z3sexANE1XbZE4EaV9E/Ovqful27ZbP9lBPQIcCbKuXpuZt6s/qOapDAIIeuWQndej2LjQMzw8zbhlUlfStRCIpzdovV4IEQucc6fGREvbiMxvrtNXvS5iCAL2Tub518TES9sc5Vj03Gf5njn9q0dBT7pl4kIwqaezcls/t0VHA/coZLjARJSEVbY0QRP7h7mB2J8bDafpP7+9eYo5oDWDoqsn4yVmzabpPu1mUA/WMD+AJuni/2bK/3BCIgRIJXpCQUG00aDkcVqD3G7aq+OyZzwybT7oW00xU82Z9Lfb7UwfQZYYtIhjCrRE5kESX1M0Kd7tj7266aW5HjgTRFxUs/jBG2AF4OT0y9vNJ+k/Ib2kayO519wAsHtGKEgZ4phxp+LEZAicL6I+GjPE9qHmyQvu0tbVV9l7ODZuROjYN+IeFfrk86uLmWi6vtZBASi2uEe+thWK4GW4tT1dYGMIo4H0Lb8pce+QzAkNfW6asnI7kd+BTX/c/R5/0TPIjw4SFqlpo36riHjYle01gjgXwqj/ykToy7C/KipUTuPqaBCxzWRyfmVEUFgotrD0i7SV8veQ6IltBioR4nGhy0Hk9eYtAZEa8M4FUvtZfFR3f+FNQ1xzZGXCsOunoMbXiW0uaog7KsFfOYTFyOQhMAO7cTcMX7pKypu/HbHUC7UWmm/pSKDsdL9uez7SIhD5DvSoI4h7vklm5DTh2RYkBbFFW0AuS7WRRvA5uXnQrwJbPbUTEF3ODZSGpJCK1pbFyOwEgLX7tFn9siIuMFKVNfzELu+O7c7v58IJ6FFJ/ux3ceEdkSTBe25rR0E2f2GWhhbtKWvPkKwxpB37IXNgxJjtFM5Cwu2Ugh4dE5iXfc4EcCSnLPnPtSVP2itzYcY1hKVNR4JpDquKSCScgKsqS4MD1FrPy0irtmEeN5mYMMRHieoEIaTfeDKGfb1B4bZsuQ+XYgtXjMlCvY/quMAvKRcjMDCCGDJiqFW6QmJs+8HRMSpFqa0/xvPFBF7Nm53+7cuRrXlPSjdh32/D/U2gV4IicokOpSwzxhBYgeCkWRpDOFZhP2hYLXsqFe5/n26MEbYBKh4wTEhluWaNb3/1hHxeyHjLcLAuEk9o1HrDkWdi1oftdpXetKQLIKp7zl58iQfxftb3/whZHzE+4PjDdXubxk+wK12bGllcZldBoN592KkulMPa8KnRPST6hyj2jH966E7xvtKJsdXiZht3iCa9f3HBpKV77TtWf7HvehLJtRZvJD7OzxYsMLnqKD24yW0cITWLq1RIozsjUc0zT1ENKe9oidMMArMPS6GWn9PXTK+1+KK9s3CjIZPLtqGmgtW0kTQe0OjniW/wFAHiuneuu9+2qq9aw+Qg4946dj1CB1oIYZ0FDdvHvmQYNyijenTWLKGaKs1ziHz+tzfL4EABkAlI/phtMXkUrO6n8A0z8oUOKTGgbTuNB3e2p7U7GJIlk3iJJTsK+yA+lz4lpjG5t6qOP9HiOiz3Kpwv5fksZR39dkno3g38d1LWvkTlGLnSpHDeh91YZ9uWSmDwc+mL45/b3NbkDOBmP61FY6hSPJSsq/R1KGFGGr5rQAvcmD0Wdgs9RniuyS/LfOuPvtk0O8mLGbJ1L0MQnzhayu4jHEM8YHGahzNxDLM53vHjRc8y2KLJ0FthXzvxxbkV0IY135cN6uP8KxQjNNzzaq88HfMUYq2jKmOwl0wjteRIe6rBZkJC+za1IgE2nhRD94OYxp869QW4jmQeIkdeC0F91NsU0r2Q67od7kwxZAyFR8EwRoKuSRS2zK252vol0HRQAKdUnHmcSW8a2Xo7NimuEXVO7bB4Pbk79Nft/EFzlgRX9+8zQJZqv9JEz0Ed0q66CqCcf61SvqaFN6l+ngo76mka4ZBxn2bHPClFj7yyZ+nIlgu1aRDfVthe4ehDCLTufzEinBL3IqzVMLj2K+QmKZUXxKiu6bxPa8byB2RignJqWooirakYlHb8zX0S/U04MpGlLoSnYefde442csAjg8tObFL+1KXwHqzdxBRjtwDuHd+qXUlAwuSEOHTTMa9fZoUtY9qdpD3a200mGT2aCMb3rbV4CA4ov4mdS8qYLwj4KdXtwmiCIaEoVgp4XKzdpf8/cQWx3Muw5QZ78XOplQQr19GxJUztkVR9d0F8x4bhxoK3loleXsI76qhX6qmASOYtxdiHBKLXKASNIh2RYChITDxqjQibH09It4bES9oQsg+qE0rjAtjHypaAuuwI+b9JLm5Q5tx7oBmoUAjRKz7sQpi+ImT+6EG/ieSXynep914TNRaoG3V8dU9V0s6XWVY4K5tQ7/WyndV0MU5pSqM5EaMgvU8u8gaIquxe/28YNBv1N6Sv/0hIg6NiFe2O3B25Wg1SM88xIL3yaVbi/InRsSbIuLLEUG43pK45noXYwHDvL7jrjMW0eqgocjV1q5e3Ihr0vpNjgs2Ah2dq15JTFZDeYygLatiUOtzNfRLlTTgtsLuMHfHofrdrWcEOOIgUMbQ/ffZHR/Tqtbv2cZLWKd87UTkQ4X9kjbHwpCPFFgUMZbbteexQYTPUgLxk3pu66zXI2ymzoFoOf57VuWFvyMLYWpbxvZ84S4YxuvYfZTIO49at8+dKIvjndpFc4iMzVktGD6lTceKW5fLfxAgRgNW3NgfcA77o4FOgBiR0Y6+CuOExFUk3Mo9ThDeahJaOQ5RtLnvTQ68w+ZA0ZYx1dHXmKr2vVeNCEXkq42YhKxYT+hZ5Y8avGQsg43wWPQ3VIkkW7pHe05ew5FJtYw8hzAsz9GOvKNw+OpF+3ij+xBi+jQWvGRjl/G9AosINke1RFFkjCmMIjF87bNcpEC/bcS7tf7WZ59U9+6bNWfxROzK2VnHtZnU+mr89k1QIdJaDsWYjGMJVKO4IbpoEUAty84az4TDBuLiia0DGo1TaqFYuDZyHZSwCyJ50ekXpirvjWTvTJ0T2X33WQjZntqGMT7fZ59U9e67NbtyduY5OxljtLP11GokeXbOBGLJ2cbUujECAycs8om46FIOAYTD2zSW+K8X7fpSeWGj57HP6UutTIY/XDg3ok/xGxo64hP0XYjXoGgP4Zf7KGhTfihqgwKHmurooz+qeycq0dw7YlRgfZ3t7RIRX6h4AGBp/e7WgI1FyKV/BHB/3bO1HShhCb/KpMiYfW2PdjQlEoERQrnvOPpoRlfpn+lniAjYxxz4YBH9xzdj4qiR/et/pumZgntlXvwxHOornO8Z2oAzuTUb0wN9kb+xs3hN43lw0yYwDq5tLvUiQPx+3CfJqY5F9yL9W/IeAjYRbKmPxYXF8c+ZMUEI6NP2AaFc5VFSei5kDmThVvDj7esdoqZsFQRIUZlz54+6vS81JcyKvYGC8ZV1oInA8wALdZfhIUBsDCbxj2YeO6vwHPEQLtcDpGjYcmcW/E7PCcHwxFilT6afIS5HqRgPCIRE7pymYZW/0YKRUthlJAiwY8i5+B/dU1QzBhdn6Kswea5niLh3YBvAZiTs42ZExIWaiInPjojfVMRvxA+A17Yr3ENk6zw8Mw7fbqIlnr1wu7rXEZVSNT/gSVHiqO85QpoP6oDwdfgI3F/IGLMGxYea+OaonkoW1LT7CVV1s9q17Hec+aFlqcWauWR/rNO70Oag1fli5nG1DP+h9kVTUdJVlKOs3GHDv9WTITG7X6UtyGczCwFqq3/sYVxGgEDulJDElC8d9Qrm/Gklk+9f21CutSc5GQErV9kE1OEkSsp9Lr6oMMBCg/9+qYLA8bTMYxGXuj68AwjRvCjui9z3/QzHAXhoEPZ7kfcveg9xEDCKdRk4Aipr0FmMg6EdBoUlCzsvJttZ9JT+DkOlh0cEftIuRgBbgYe0WQ5L8+L0+zBcfEDhLrljZoNJjhhLCwGEmlYbFGMTgAu2woCTJFokHpru/9S/2dS5DBwBfOBTGWHe8+x6sWYvWS4aEajY59FU6ntS5e5VWNVaEme/Kw0BfLBJdFODHza5BRBMShWCLKks0GeN52/04AKp1gJ07UKgucmKHUN0S9xBsf/o6lNd2f17U7Nix9TyGK46asm1YzAk2KsXbigGORjWdTT0ccUqGU8DheReGD6/rgcEiNxHoiIM2frg1+6dhJMu6Slw/ibRFotb9371Fc8H7H9KFQw/CdalbkdXH8cCz229pzaaWwgSxnEuUQpz0kOWVpcBI7B7k8iDHXrHYMrrrwpnK8PIiFj4yjYsWxcDlIm8tJ3DgFnQpE8gwKR+6561V8TmINJkqYJBMIbBy461Re8/pHBo5FJBxTi6+XEbxOzgdrHH/uGEjFhOYk5COLsrlxolGd5DKktFIotJpug+w5gkmChVOH9D5de9v/SVTHIco/QVg70Uzn5PGQQwluPYjMhqpXm5ex/RJ0tlkGTckMyoe7f6SvjmEoXzcDXttdaHHYfLQBG4YMZAOJx7lwzPiYtVX1bVBDjBlQ/rWhcjoEYAjcDdGwPaX/S0sGCbcHl1o+bUh9bsjRnb+cw571V9vU6L/4dt16Rim/L1kHAnV9pOsqaVCGIBatsWSjoySwJnQsZy2u4v5fl3Hd/IOTZZCZW+5rP4etZ3HAngIVSiIPAQAnsWHYrvcnk7rNPij7az1BxfgufW6h2ct5FCVjGYpuv4ZEGDGyL65TQemm5b9zfnbkzEPvtaq2FTTWOJeZ/Lorvj8XlXzplLHAlw/EFK7nl0pHyPJfytxL25Tos/9mKXEePn6gohgMtRrjC4+JeWsra9S08qf3KQ71ior/waI7ARArtmHMsbLbDs/q6wEWGi3xACXpxJCECIx/hZUdZp8YcvSicrUvSR62gRYOew0eBe9TesXkuEs0Xln6sNG7UdbwbsDFyMQG0IEOXyZ5nG9bwxQea7hxYC4vmZ2oal/M6JbVi3xZ++cBkoAg/LNJBI8FEieAhJPkpbRJMMiUiCpROnDJTFTHZPCHCs95LMybtmCQNY7aNVzF2elWnuwlNphxWJX7fF/ykr4uTHKkDgBpkC/WBLUGJxvHAPkdK+3qR0JVKZixEYCgLwKx44sxbrXN8RaKaE9u9Fmdr1qRVcd9dp8cdm4n5DGQCmc2sE8I/P4etPmN0SISAvGxGo4HNNYNP1YmVNdCv782/NS/6mfgTYkT8pIrDcn+btXH9/pUDcfWwC3pSpTdgaLFrWafGHh26zKDC+rz4E2J2ThEY98NllrKo6Wwala0fEHzPQPw+P9zc2BudbhkDfawQqRQDBn0x/83hd/T1uxRfIjAVC+fsytYkgXpuVdVr86c/dNgPEv9eLAEE1PpZhsBArnDgCuQvhUEvtYtCQ8D4XIzAmBNg1o779S4Z5YJYAcVxEEF00Z8H9FrX9rPenfMdcs1GK7nVZ/FH5k2uAsOouA0bggAyDhMQ+OxXA5P6ZMlfNmiC+VGDnUgAyv8IIzEWANLClwmQjTOdO/oXRI8cOs8ZzyncIMLMimOZe/BFocE1MoV3xLJrdK87lIv8wGAT2zsBMZAu8fgEE9slA+6zBgYX/8xzCt0CP+hU1IMDO+aWFxhbBYm6eudFnac6nv5WhPWwIJqN75l78qZ9Cyl4SmeXM3DdrHuQ7tLpkDizh0dE215dcCGA0l0N1DoPkLBxZ5Ir+Nc34v2l2EDfO2RjXbQQqRYC4Ab/NsHBOjzE2DPfKjMG5I4KMdNPvTv37dS3dpRb/SZgINPaGQiGfsRFBUNsorfAkbf5cOQKoxpDmUgfA9PPsHHIWdidkHpt+b46/iVjIxOFiBNYVAfj/04XG2xMzg0xIcI4m1XNF7pS+3c5/Hjyniwiy7ZHKWKkV+HarCSqV4Gle+/x9BgTenmEgfDSzSxxBhHIY9UxPCBi3PD0i0DS4GIF1R4BxgLsgO/XpsaL+Gze7nLvMXHFO1Dh09W22+E/zJscdaG72bSzzibuwqMCD4EA2R6KnEsl0ln3D9Lv890ARICVtx2CqK2dsOZN/lIru98uIuM5A+9VkG4GcCFyr0JHAQZnPmMlWqJr3ctaz7OI/q+/x7kCLg8fFNSPiFm3K6L1aA0y0ImTr4z6XNUAARsDwRsm4nJNfKCN2FywU3Q9XyBJuixmhctVGICsCjMUSmTXZveZMGEbYbuUcqK5LsfhnZQRXPjwEOCv6jpjxSfaR05WHBTmHrcL0gH1aZtXj8LjFFBuB2QgQzve94nlkejzy94czet6cqpm3SEk+6719f+fFfzbf+dtEBHKEx7x7Ik0bPY6h4pGZBylnX4tE9tqITv9mBNYNAVTGz8g8NlmI35xRPU148u8XaMMyAoUX/3UbSYXayyK3DCMucu9zMtKOf21uCf1PEXHDjG1w1UZg7AjctkD0wJyLYi7PgEXmz+l7crZz7Hzo9m2AALG+1SE+UQHmstal3ndmEFgmBxyRvC6zAWb+yQgYgcUQIJ7IsZnH62MWI2Wlu/AMwPNncn4o/dmL/0pd54c2QwAXnsPEzH1UEwMae4Jc5UAxvdOD+Rgn8snVda53TRHAS4esn9NjTfl3zuPGJ2emfSMcvPiv6aAp0WzS1W7EfMv+xs6ZUJS5ylPE9E63j+A+ZD50MQJGQIsAbsCfzzh+iUNwUy3J/64NrSOeB9PzRe6/vfj/uwv8QY0A51vKxBG4D+ZMAHHfzAMQ/+LJ2N1qvF2fEVh3BLZtrfdzLZwcZeZKPYvH0S8yz0GTuHjxX/fRkrH9qP5JVjHJcKmf75aR3ltlPocjbaWDXWTsQFdtBFoEcLFD2E6db+Y9f0JjI7RzJrSvUSjioRf/TB3oak9GAKOZeQNole/fkxFYIowpNRWT7cO4J3dyoozQuGojMEgEUKnnTNj184x2PE8Qz52T8xGfvfgPkqWHQzQ5vZUL6vFNUoizZmr+rkvEq54eSJv9zZnhbTLR7WqNgBHYHIH9Mi6mJKsh9r26ILx8JBPdXvzVveX6tkAA1f+XxcxL/OgchfDBxN7fbCFf5Xd2/iS1cDECRqBfBNSGyJPzAcecOUIG7xARaBkm35X6GddmFyOQFYHHiZn2jZmozRni93+bwbt3JrpdrREwAssj8GjxvDS5GOcKGby72B4ADyqim7oYgSwIXESs+v9Zpgx/20TEVzNOCD7zz8JertQIJCHw1Ixj/vVJlM1/+Flimp8//1X+xQikIXCImFmvl0bO3KdzGgehbnQxAkagTgQIHz65e1d+zqH1Y7OiTKBG7pFcHgx19ripKoLAnuKBRTS+HIXY4cpBP1kX0bxcjIARqBuBl2SaA4hTcqkMTSfuAMeKk3NNyudPZaDRVa4xAqeJiB8JGZQMWTkMay4cEX8U0jk5CLE2djECRqB+BIjH8dpM8wCeATnClB8gpvd29XeTKRwKAvsImRPr+atmaDgR+I4Q0jm5+O+fgV5XaQSMQD4EcLV7a6b5gLTn6sKG6IdCevEwOL2aSNe3fgjgSqf0+X92Jghzqf2wJ3AxAkZgeAicMiLIKjopzKs+k/5cXa4tpjVnOnV1211fpQh8QMiUR2eKlb+XkMbJCQLLX4f3rZQxTZYRWAABji8PzzA/kDMgh7HdK4W0/j0idloAI99iBGYicBMxM15m5lvSvrxgRPxeSGcnAJC5i6BHLkbACAwbAVIJ/yTDHPGtDLZMZ4wI3KO7eSj1+olhd52p7wsB3FOUZ1JPzNCQ/4mIrwgHSzfYfhAR22eg11UaASPQDwJY7+cwEH5DhubcSDyn3ToDja5y5Agok/2gguM8Tl3UlrMIAH/KpNpTt931GQEjsBwCe4gj73UbhrsvR8ZCdxMhtas/9XpsBk3FQo3wTcNEgN0vKTFTGY/n8Z29WAYYbi6ib7KN+OIS78DFCBiBcSJAFM/JMa/4fGJEkCBNWZiDlXlM7Mas7J2R16WMpkXqS3U5v1BAmZwAHOhH3VOuzwjUh8CLMwgBx2TYZd9SSCcGgRetrytMUW0InKfdtU8ujKt+xhd1W3EDTxURZOhalaZ5z73LFv/innJ1RqBOBDDuVYc1Z155XYbmkuFv3py17PfvyUCfqxwZAsoIWjl8ZUl2sSzjb3b/1zNF9xoZa7g5RmA0CJA177sZ5pK7ihFSbsiYB3cV0+fqRoQA51hE6ttswVw/Zp2BAAAgAElEQVTkd3z+1W506kAZtOM3EYEroYsRMALrhcAuQm1nNydiD8ARpbJwft/Vn3q1FkDZMyOr631CRsOVRVlw+SMOd+oAmHyezFnXUhLpuoyAERgUAvcRzynML8yjykJsADYqk3NXymdrAZS9M5K6yEiVwlSTz34yAyaPF9LX0fqgDHS6SiNgBIaFQI6cAQRRU5YHC+c/wiO7GIEtEPi8iMFwpbvcFjWn/4FKjdCb3cKtuOYI4JHeUtdgBIxAaQRImqO2ByB7KmGIVQUNKAHKFHMfdeSIyqpqq+spjMANhYz1lgy0K48mYP4fO1NWhl5ylUZguAjksAd4uhgOIvqpBABrAcSdM+TqPiNirJMi4gJiIG4qoq0bOGgoriGm0dUZASMwfATU9gDMhzuKYVG6QFsLIO6cIVZ3FeECi4uesqBCQ5XWLd6K6wuVBLouI2AERoWA2h7go2J0dhfOh2pjRXFTXV0JBN4vYihCB6sT6DxDRFsnOJC9S3kuV6J//A4jYATKIfAi8ZzD3KNOxoP6vpvTUq+XLQet31QbApeMCFTiqUzE848UN46wlajQFLRRBy5/lxfT6OqMgBEYDwIvEM43k/MW6X1PJ4Tp4sKkRmwAXdYUgTeLGJ5c26QPVpaPi2jrBuI+SuJclxEwAqNCINfi380/zxWj9TLh/GgtgLhzhlAdxnr/FDHRncQNvq2Irm7wHRER5BBwMQJGwAhMI5B78WceQgO58/SLE/4+e0T8WTRPWguQ0BFDffSlIuY5UpxEB5/cX4hoY+D9LUOqzqH2uek2AkZgSwRKLP7dRgRvK2V5inCeVMduUbbTdYkROJswBvZ1xbSpB6TaNkHcXFdnBIxATwio55puod/oemdhW08bEb8WCQF4P7isCQIq6/qPiPG6tPBYgkH42Yj4LzGNrs4IGIHhI9DH4s+c9KuIOJMQPpUW4O8RwcbQZeQInDIijhNJjfikqsopIkIVjpiBxvmYs/ypesf1GIHxINDX4t9pBl4ihHIHoTb3CUK6XFWlCNxMtPgfJW7fzUV0dYPMzCzuIFdnBEaAQN+LP/MTxtcXFmL5ctHceWyGFO7CZroqBQKquPr3UBAzUcdXREzMAPupA/5MIOuPRsAIgEANi3+3QXmVsEuImaKK58JGzGWkCJxTdMZObmplRL3rCxd/BtjtR9p/bpYRMAKrIVDT4s8cxZn7eVZrysynVNEBib/iMlIEHidaaPcT46NKRsTAIlkG9gQuRsAIGAEQqG3x77QAhB1WFWWOADQKLiNDgEXx+wIBgPOr8wqxUTIuA4vkRi5GwAgYARCodfFnrvqL2PL+cMH8Dl37m3XGh8A1RczxLjE0uBJ2EnHq9W1i2lydETACw0Wg5sW/m+ueJYSXpENdvSnX30cEMQZcRoSAKu7/1YWYEH0qhVEnn/1rRJxfSJurMgJGYLgI5F78VUZ3f2x23NuJYP5vYfr0e4locjUVIACDsUBOLpirfP6auC0HC2jq2vFMMW2uzggYgWEikHvxp/7nCeeuJwthfrCILrWbt7CJrmpZBB4gYop7LvviDe4nMYZKiv5lMyDJIeBiBIxAnQicutXQYaNzy4i4W0TsGRG7RQTpbc8iIrvE4g+pJONRbKrYwPxWmC6YtMMniOb7q4r6xNX0jADSXLdTXvUKkypd/1RHErRn757x9euNgBH4DwIcxbET/WBEHN0ucIvMOwjyZKYjiNf1VhDqSy3+XUsxllukXYvc86iuUsEVL61F3rnZPW8R0OIqekaAXM+bdfQivytd/4iCpUpFzLGE4/33zGR+/dojQB4PVNlkB11kPlnkHnbY72g1Bf+zCcKlF3/IOVebbXSRtmx2D8LPNpu0cdGfifdykqAfqOOsi77U99WJwIECRlC7/hEFa7MBsejv6myEdfaiqTIC9SGAWv/hQsOzjcb87yICv3kW3enSx+Lf0UBc/43oXuY3jmpV5U0iuh6mIsj1lEdg24jApWMZJpx1r9L1j+hXRMGa9Z5lvzusPKR+oxFYewTQuN2lOcf/iWgcLzPu0QpggEcSHEqfiz/vJyaKYrcNBuB5qpOblfw/RyjL4Drv3i8mU+IKekOA3NPzOnaZ75WufweIaIJ+jIlcjIARKIfAjZtx9w3hGF5mHpq8909N0K+PZqYD4WKR8gohHXdf5IUL3INL4C8EdGGorQxZvADpvkWFgCLErtL1j/Mkol9NDuRVP3/PZ/8qNnE9RmBTBFgEPi0au6uO+ZLPLbr4A9wFIuIfImy+K8zIp3JVfOim3OEbqkNgRxFDKl3/9hXRxERw3+oQN0FGYJwIXCkiMFIruQD3+a5lFv+ux18jxOc2XaWJ111FNH0hkQ4/3gMChJhMHUSo2VSufyqVFG36tZCuHrrGrzQCg0HgDkJL99T5qMTzqyz+dKbSs0mZke+bgnWAY4BzD4ZjTWiw2Cok9oOEWCpT/iojZwmb6KqMwGgQIHmYUmNXYvFOfceqi3/X6W8QLLa04V/CBfcxIpoe0jXS1/oRINpW6mDgeZUqCsRUgX+wIVBFDau/J02hESiPwCkj4t2iOUQxD5WoI3Xxp5dIo8viraCXhVtR8FJQRFz9vIIY11EGgX0ETPi3FSJxzWsdYXpPFNDEwHrpvJf4eyNgBCQIKGKHKBbBUnUoFv8O+LeK5jlU96ryKQFNCBGzYjCoaHQ9QgS+JOjwDwjpIe63YjAjXV9ISJerMgJGYEsE7i8aq4rxXqIO5eIPkpcQ7bhpO9lSFQVDbgWWhHd2qRwB1OMKNZTKHxW4DhUx4Dsrx97kGYEhI3BtoTubYsHJXYd68e/6nnlKQTu5BhTljCJDzs8piHEdeRG4nYD5CP2rOmdXnUExoK6YFzrXbgTWFgGs2En4pVi4hlBHrsUfBkKQUmBwvDAyIDkVUmniGIA8Ay4VI/B6QUezY1eVxwnogXEJauRiBIyAHgFcfY8RjdPURabE8zkXf3qHUMk/FeF5E1F330xEz4NE9LiaDAjguqNw/3ugkLZviRjPYX+FneKqjMAEAo8VjdESi3fqO3Iv/h2szxBhys5dUcimqNDwfFZBjOvIg4Ai8pMy6MPlRYPghIgg89jYyunaMKJXiIgbRsRuEXFBBzkaWzdX3Z4zixKGLbIwM46xbifQzcERQaKZHwuT6WxGwycL9gQugZvRs8jveGNtJ6Jb4d2BfdnZRfS4GjECiqAPeBCoCuk7F2Hyze4h2caQCyrBy0TEIyLiQ616kKxmG7W7myw/1iTjeHUbkwF3ShcjoESAHfFGfJjyG1k/Sdhzv00C2xC4bPc2s9+PMtLDmCvpyoaAk4Jf9+y9RR1+IxE9txfR42rECCj8PR8toom0loTs7Zg45crkMLRCKmbcbwioolC9gR9pRxEg7mUpfGjsUCW9JLFRpbKdHN8YEb8qYbG9eSPwqo4OJ+ni80sK9gT5Sqbfv8rfqiA8pxX1N33rUhkC7A6RuFdhsMlnLiJql8rohBzZ2DYMpeD18OyI+J2gLyb7Zfozqjgmhr2GAozprA4BVXTOSd7EWHcnQUvRCiDoko9ksv7Uzwg85xPQt0gVqO5R4afSzPN4aSgKxyCp9PxAQYjr0CKwp6BjjxaSpPKFfaaQppxVcY7/9ohg95M6wJZ9nmObIWpJcvaH694YgYsJA9Z0/PoyodtaR/0lI0J9LMBZeKmicL8D36eKCFYcE0MPGx2XihBg8HUDcdUrIYQVRSn57qwgKGMdGPKhVlTE216137rn3ifafWWEy1VXgsATBPNFx3dcc7qH7RARhwnp/X1EbFOoH24sovuHIk0otkiT/bbq57sUws+vWRABhZS8y4Lv2uy2+4iY7KjNXtTz79drrZhXHUQ5nkMDgTCIDYKLEZiHwFdEYxQexuUtd0EIUMxx3ZgrdXRGYiWFazZ0X00AMsepBBjqcFj1+joBLa5ChIDC5QQJU1Ww/F2VsSafw2q+xnKGRgX2GlEbJ9ur/HxE4z1wnhrBM029IwBfqHgNd75SNjocB6hsAt5bsBeeL8L7hSKa3yKgB9ssl0oQIElD6oB+nqgtBJxQZP7DyK2ky86izccHFs1EKt4lnmfnceVFG+b71gaBB4j4F/4q7Zq6t4h2DKa3L9TjlxbR/A0RvXcV0UPMEpcKEDhE0KHXELUDYzTF4vYJET3KavCQQFOiaF+pOrBC9nmdkguGXxeBeBT8h5tb6YJ3AMGEFPSrwuwugoFi04Cd0VkXedkm9xDPX4HfPTZ5j38ugADGLH9J7FDOjfERVZQnJ9LSMaYyG6GiXZeNiF+J2ta1seT1WQoQXMfgETiTKOPfdyKC8+0+yk1F41Bl9LwIBg8V0XybRV62wD1oE1Lnnzct8B7fkhkBDNFSO/JrQho/LaCHiF2cs9dSrhoRfxS0K7WfUp9/eC2Amo7eELiSiI+V+UJWAQNf9NTxgOa0VGHn/g8BzS8XEcyRbyp+PxfR4moSECDoTGpHqkLtYnmuiCz2rgQ81I+iLlNZ8ab2U+rz2FXsoQbI9Q0KgVsI5gv4sG8/cMUCRqTSkkURqfV7IoKvL+KDHUX0uJoVEVBY3KvU7dcVMZUq9vWKkP77McIZf0HUptTFW/X8HyLi4v9uoT+sGwL3F/AzHiZ9F5WtEe6FpcqTBNirhC9SQG+Wj2SROQeXb5ceEVDsTi8hon9fEYNfSERPajUE+FlkEAztHnYRpSygU/vAz2sRUKSpfa6WpJVqwxhQoW0sKQxzlKiYK7DiVxQSjaXSc5CCENexGgKcK6V2IGfbZKtTFEW0LtKD1lDuLMA2tW9yPo8leCn/7Rr60zScjMBrBXz9kErAZK5IHSOk4C5V0Cgq4hi8QUTwYwX4/UJEi6tZAYHrCDpQ5W6H0Z4iDj6pb/suJXOkp05gKc/foW+g/f7iCHxYMGeoLNFTG69It0sOlZKFbJ4pY5ZnfyYiWGUHUPIYRdT0cVTzMAEzobZXFFXM6xpyTR8gwHXRQU7WQJIwHRoRnK1ypIOx3qLPp9xHTAMCN7msDwIKf/SrVwIXUQhT+J9n71a4LXjipNLM8wrjOxZuBS3XLoyhX9ciQDzm1A4kba+iKKxyaQuR9vosBPtRpFWe1y9I7y9tjAtx38QQZ1bBv5q4A0+LCIW/7jxa+D5nEpdZbfN3/SKgOKZD2K+hKM6wb1W4IbsK5mzGrSoIE/PRRvPDIr8R48ClBwSOFHSeasFV0KJMR7xqd+CCuAjTL3vPMU0IYdSNq5y7Xy4iVNHbpukmMUjpcK6r9o2fS0fggwL+JhxvDUUREfAqhRvC+P+NoA9IM6wo7xfQgl2JS2EE2CUS5nV6Ql/mb1VCB87MFelw9y+M4fTrVFa6k31A6lFCZmK1nFpwsyQC22T9is8lI6KlYuDn0xB4vYB/iPZZQzlB0Jbz99CQdwroJobBKpuJ6eYy9lPnkK9OV+q/8yOA615qx71dROYtBbTQFkJ89lkIbZmK6eTz34+Ii4kbRCjXj4jp/HNEbCem09XViYAiMx0LWN/l3KIxcOoeGoL6fnKeWPUzSYZSC1rJVd/fPcdGtK+w0KntH+zztxN0nCo07IsFtOBBcMYee4PzeIWLTjcoPpvR1x5tggLzjlaud+oRe7+6HAKKmPSME3KQ9FkUAY1+21MDMOCbHHurfsYIPLWcT0TLTqmE+PnlEHimoONQeSsK59urMnH3HMZJfZa9BG3o2oKanp16zoL6j3PA7p2p13fnJNZ1V4OAKoJe34aACpuYPm2OFMZ3HxBxFYJQ6vxxWxEtrmZBBFKNeUhMMc8KfUES/u82VMepzMPzRCjrs6iM/ziXvGihhpDBkUROCvxPFPFDoab7NSsicDqRm+nbVny/4rHziBLrMIf2VRS2GMw1ikIsmNQ5ROVOrmjPWtRxbGKnqQw3VNnFrtVjrxHESBEXm0FUOkjKhUUhUaG9bxuMHllgrV7Nzjd1wsfod5eeUFNEM6T9D+6Jfl57F0Ef0IazCdrwHAEtKm2EoDnjr4I47qkDGF90RVExMkl3yJbVxz+FCyP98SUFoCvUoTDsgn6786wA/gAfeY1g/oBfiCpYumD8rAqU1YcHQIeXyoiRI53UQvC11PXkp6lE+PnFEbiGoMNUCSVUCYBSGbCG5/uKkIZASETBVAxwLVK4Ky7Oyb6zDwRuJOCVjtdKaryIpf8ZEe0I/X0XvIQ6HFe9KmIykBBp1fdPPmdPokIcRfS2SeBX+awKgIHx2CrvH9szhxfq+3mvebaoH7AKdhk3AiykimA0jGFsRy5TCK6XiXgcumuIZfAeQXuIwJpaSAZHP6bOyX1tgFLbP7jnXyXorHOJWq2IxpXKeDU8/zgRnqtWg0CnwAGbDpfxI3CgiF/gOeyRVPPJPOQVm57J8aHwoZ9H66Lf7yfoA9XZO0ewk/is8vmBizbc96UhwG5zlQ7qniHWvSIFsCond0fXkK+cTfZZ6E8SCaVieIs+G+F3F0OANLipvDL5PEJADk0A7q54CE2+K/Xzj4qhvPGLOIZNbcv3Nn7Fwr+ShTWVFpVd2cJEr+ONCnWNagBcSMA0qUxXw/PHVcKIbxX0BwFWXNYDAUVioMnxhxpZaRNAjgpFxr9JGvmsCKCj4JArCsYrAdQUGT05EpnGadm/36sAxXVsjIBi0cXSXlH2EDDNskxW4/19n/93famwA+g7HkPXFl/zI3CdTOP3kIi4VAL52CggiCo0WtPzBZufPsL/zoKDyKfT9K3yN0Z8qeXuAlpUruWpbRn18wrV3RtECCnCiq7C8LU9gzFPDeUhgkFsV8AaerIcDZ8U8Mys8Yir3psjgk3CogsuBqj45ius42fRxHe4vNVU0B7Oo3XR74nnn1oUwiACm0tmBDijXZQx5t33dBGNSqvcebQO4XtwqKEQjjMVL3ZvLuuDgMp4dCO+I3cAYatRM+O2RhhhLMY5LkBofW4ThOoIAe9uRAO/sUNVZNBTcsehgnY/WkAQ0Us3w2+z3wkOhfbGJSMC9xF0lMJ3lCbm2j1sxmi1/a7SqKSyjUKN53O81F4Y1vMvEMwntY3HefRcu8KuwXBuHr2Lfq/Q2m0roAN6z1shxqMi6YmCjrq+CJFfCGhZlMlrvu9jIjxTq3mCoD+IEueyHgis0+LfZ9z/jbgJ17nUuQ0XPkVRxIa4soIQ1zEfgRcJGEZhNEL8/FTGHcvzxEKoobxE0CcYErqMH4F1WvwJU3vWSrv0uoIxq0prrDiGuVWlOI+GLLJwpS6cZJFLLZcT0JHajlqe/0slmfQURzKK88RU3vLzeRFYp8Uf18Rd88KZVDuZDRXz2FmSqDj5YY7/UmnpM8GSAIL6q0g1GkHNoyh3EDBLKrPV9HzfmfTIB4BPcComtVlJK3jVdfwHgRcKeCSVx0o+v9d/ml7lJ4wSMZJMxeSqgtYptMtkFnTJiMA3EpkFNY+i7JNIRyrD1/a8whAnpV9UWRl3TCHCz1aNwLot/sxRQyhfEcylGACnlkcJ6HhLKhF+fmMEfpXYSUTWUpS3J9JR2wKeSg/ncKdTALtiHR8V9AcZBWtzk1oRDj82hcC6Lf7vGhAvv0kwdp811d+r/KlwI/70Ki/2M4shQBjgVDXv/ou9atO7Pi9g2tRFt7bnn7QpanluuKaoLz6ShzzX2jMC67b441p3yp4xX+b1jxeMX4IupRaOEVLnVII4uWRCAEOP1A56uIi2rwtoYcEkilXf/x4gaAv98seI2EGE76LVsGNXqBChfygq00Wx8X0R67T4k+SMOClDKwp7qvcLGo0Pf+r68lcBHa5iDgI7CTpI5aZBTO1UZqkp9ewPBO0BjzfO6btcX99PRDe012wtnQu/Mde7Tov/r9vogkPsTyIjps6lCtU72V1TNcy0A4NklwwIED4zlVGuIKKLM+9UWhBoainKlKMqLctm2FwtItj1pPYDzx+z2cv8+6AQWKfFH23kBQbVO1sSyzhOHcMq424EqVRaFHFmtkTIf/0fAri0pHbOuURYKhYefGBrKTsLsO36hkQoN8rcMBKnpBqEdvRyJYqgyzgQwM5nsm/H+vmEiHhkRGwz8G67tKC/VGfvBE1K5ZfLDLw/qiVfoe5VqGfI7pXKJDxPOsyaytGidtG2kyIC17wc5fJNUpWfC2mFXtJMuwwfgdyLP0GESCD0cTH/LTOf/C0injciVfP5BViyGVCUbwtoUcQkULRldHU8RdA5Clc1hTEiA54zp5rKYwX4Tk9k+zXGdXhvqMrtIgJDm+n3pPz9PhVxrqdXBEos/pMN5EjyM2Je3IiPyTaHyxwL5pjKdgIMVcZ3inDAhDd2yYCAItb7orm5NyKf87aNBuoiv/15oxf09Bv5DY4XtG26/V9r86KnNOtSEUFCk+m6U/9mUt0lhTA/WwUCpRf/yUajkeL9yiOpSb7Gy4UjqotNvnREn9kITbZ31c8K10eFe3ffUVFHxBpbNoWc2qsyR/ecYjfKYtTVt+r1uC2bVs1f9xe0bR4mn4oI7DhOv2BrGdCkMGXXg13BvHpTvn/ngrT4tnoR6HPxn0QFft0jIl4dERynrcqz/2iPGHDPrclOaLKt6s+KcMCK410ym6bMJzx7GzU4ru9kBHD1SOkcXDwURREw4rsKQjLUwSSmOAfbqJ84w/xQRDwmIu4cEdeJCISq3dvB89DWnZDIfBvVk/obE/QlMmDoKsshkHvxf35CUzhuhKfhZ+p5favFOqyJ/XFURHw4IgihjQcOi/0tmu9wDT5TwjuH+qjCpgfD4NTCcWDqvHLXVCL8/GwEcNVK6Ryy1inKDRLpoA2o9WotNxO0L6WfSj2L+v++tXaC6doUgZoX/02J9w1bIJA6tzNnXHKLGlf7Q5Ft1nPKathv+tQPExemP2z6hsVuULgjkrq25vKJRKxLLeKp77EQUDMXzqfNi/98bIb4yxcF8w3eGanlNQI6HpZKhJ+fjQBq85QJnyAPinKPRDpoA7mnay7niAjsFFLwHsqzFgJq5sStaTsgM1+mqP23ptbfLIIAxyGp8wWa2dSiMDQnt4FLBgRS1US/ENH0EAGzYthWe+H8EoOk1IE5hOctBNTOjSfT58V/GP20LJUHCeYZNLOp5TkCOp6eSoSfn43ANxI758ezq1362ycm0sGCSMauIRTUWUNYwBU0WgiomyO9+NfdPynUvVIwz6CZTS0kBEudSwjS5JIBgSMTO+d7IpqenUgHDKbIXy1qzqbVKNwvUwdVqectBGzKDr3c4MW/F9iLvfS5gjkVb4vUgmdS6lwzlM1dKlbFn09N+/pNEcUHCphkSLHnT9PaLKQOjKE8byFANFBE1eRe/L1jE3VUQjUKrSrp1VPLgwRzO66dLhkQwH82ZRHB91ZROL9PoYNnYbQhFaJ1EeAktd1Ded5CQB3c6cW/jn7ITQWLd+rcgBYhtewtoANXQpcMCKSGaTxcRBPR41KZVXFeJWrOUtXsK2h7KnalnrcQsBRryG/24i+HtNoKnymYV14saN09BXS8S0CHq5iBQGokQAQIRSGiV+oiRMjdoRa0F/YOGGrvDYPuFwnG2EZj1Gr/uvhAEddBYVf1QAHfvbkuaMdDzaGJnaMKvoOkudHksshvGJsMuZDD+6sCHBbBqu97rAkoy6le/MviXcPbFF4ACruqRwvmtFfVAOgYafhoYufwvKIo1FXE/x56IW8AKYSJ7d/3Ip37/RYCynCrF/8yONf2FnbNqWP4wYJGKVLOw8MuGRA4JJFJPiCiiUUvlVk53xxLIU1pqnYmFU+0O9fM7K1gISAvx3rxz4tvzbW/WzCn3k3QQIWLN3W4ZEDg/YlMohIAyNyVumCN0VXkchHxlsL2Adh1XGuC1/7HQsAEGsP56MV/OH2Vg1JFKOBbCQhTHO8+VUCHq5iBwHsSF16VEeBdEulAeBizpei520BHJwhwmiVokSb45U3O9N1m8AhfWQiYA0ylX+de/BXuYZVCNxqyPiOYK64vQEPh6jx0+y4BjHmqSHW/I8+9opC3e9bCtMx3KnsERXty1XGqiLhaRCARI3yleA78KCLeGhE3bxf4zWi2ELAZQnX87sW/jn7om4rUIG/MvYpsgMwxy8zjs+5V2CL03R9Vvj81YYQqG+B1BUxC+st1K6ePiBtHxCMjgqQbb4gIVH9HRMRPI4JkT5+NiIMjAktarHrJ8HWWFYGyELAicIUe8+JfCOgBvIYorbMW02W+u6SgnalaZui9l4AOVzEDgVRL0X82u9FTzKh32a+uJGDWo5d9qe9fCQELASvBlv0hxVnrRouD1f7Zu1D6AjR8G/XnIr+dX0BRqqcZdN5JQIermIEAO8ZFGGGje7abUe+yX11CQMdPln2p718ZAQsBK0OX5UEv/llgHXSlvxLMqWcWIPA5AR0KY0RBU8ZXxWsEnXNhASznFdCBIZtLOQQsBJTDeqM3efHfCJ31/e1PgjmVMZ5aFMHNbpRKhJ+fjYAiWtQVZ1e91LdoETbSMizyGwZxLmURsBBQFu/pt3nxn0bEf3cIcDy7yLw5756TuooSr99KpAP6Jt2SE8nx45MIKIyG9piscMXPRMCbx4jLfL/Niu/3Y6sjYCFgdexSnsy9+GNU6jJMBBiTy8ybs+5VGXj/WEDLlYfZDfVT/ThB56gMNP4ioGWH+iEfJYUWAsp2qxf/sngP7W2c3c9a1Jf57oeiRh8voGUXES2uZgqBOws65yFTda76p8Jo5YKrvtzPJSNgISAZwoUq8OK/EExrfdNlBfP61wQI/ldE/F1Ay0UEtLiKGQhwtrKMVDjr3qfNqHeVr74voIWMei79IWAhIC/2LxGMkVljuPvOav+8/Veq9lsL+ATr/dRyTgEd8ObpUgnx87MRuKigg146u+qlvz1SQAsBhVz6RcBCQB78vfjnwXWMtSqSq5EoLrVgIN4Jl6tef59KhJ+fj8BpBR1ENEFF+bSAFpIKufSPgIUAbWDDDgIAACAASURBVB948dfiOfbaFN5dinl9L8GcTkRDl4wIpCaY+biIttcJmIXzUZc6ELAQoOkHL/4aHNepFkUq8f0EgD1MMKevQ44XAdSrV/GNxE46avVXb/GkQm31sS1q9B99I2AhIK0Hci/+zrOe1j+1Pk1U1FVV7t1zdxM07oUCOsaY5l0Ara4Kznq6Tl/leqyIFLLSrfL+yWdIgONSFwIWApbvD/JrePFfHjc/cXLq7n8J5lKF7z0p2ifn51U+P92dmhcBssSt0jHdM/jvK8pOiXRAz/82WfGwa3CpCwELAYv3hxf/xbHynVsjsKNgHmUu3X7rqpf+5ssCWu679Fv9wFIIPEXQSadZ6o2zb2aRSA1fCePuOrt6f9szAhYCNu8AL/6bY+Q7NkbghoL5XBUF8JcCWm66cXP9ayoC9xR0kioAjyIWwG1TAfHz2RCwEDAfWhZ/XGo7zVqOq8/85+M/ll/whErlHUUMgFO3GtlUWi4zlo6ptR03EDDMTUSN+6CAFjQaLvUiMGQhgMhmLNTq4sVfjej61vcCwRz6agF8FxLQgfBwNgEtrmIDBHYWdBQ5BRTl+QJa3qogxHVkRaBmIYD01reLCHjxExFBSFSsqv/Q7mgwsCL1NLHSj4iID0UEhkp7RsS5VkDNi/8KoPmRuQi8VzCHPmpu7Yv/cA0BHYQRziFwL96KNbhTkYr3LSKc7i1gGiZll/oRqEUIIBMlWrA3tQt7qsry560q/yoLdEGJxf9ZC9DhW8aDwNGCOfRmAjgUeWYQvF0KIHBiItN8XUTj1RPpYPKmLZYaRR2SuZo+hQA0X/tHhCIJ1TyhAS0BuTLOMwNHL/4zQPFXSQjAU4qsqoSITy2PF8zlX0glws8vhsB3EjsLVc2pFnvVhnedPZGObiKeNeFu+GL/2BsCpYWAi0XE20QGSh2/bXb9W+NWdUBEwN8UL/4tEL5IEVAk3/mHaC5/uWAuf4cUHVc2FwHOOjebxDb7/RJza1/uB85aN3vXZr87KdBymPd9dwkhADuVN4hcTTfjv3m/o53CEl8xOc57B99b7d83R/fz/hsJ5k42g4ryKQEtz1MQ4jo2R4CJcaMJZZHfbrP5axa643ABLU4KtBDUVd2UWwhYhIfHcI8X/6rYuigxxO9P5eH3CShGw0UWv1RaFOGIBc0ZfxX7CjpLFbLxjQJaXjT+LhtlCy0EpE2aXvxHOSwWbhT++6mL7nMWftv8G1UugJed/wr/okTgfgLGeY+IoCcIaPmsiBZXUx4BCwGrTeJe/Mvzak1vJPAOtiapAgCB4VLLrQR0EBV2m1RC/PxiCFxL0GFE8VMURQ7pk5qz1m0VxLiOXhCwELDcRO7Fvxc2reqluwnmcISHqwla9QwBLd8S0OEqFkTgzIIOIxGPYtG9pIAWGPl6C7bdt9WJgIWAxYQARd72OjnAVC2DgCKdOvPmDsu8dM69BMdK1UQcNKduf50JgZ8JOu3yAtpQ++BWmMpAnhgFndFzFRYCNh4H5vGeGbSi1yvCqB8vao8iCRBxBFwKIqBgIJXVpsKYBW8Cl+EjYCFgthDgxX/4vK1qATkqThBsmt4pIOgcAjrY/N1YQIurWAIBhSeAym9zHwETYURyxiXa71vrRcBCwJZCgBf/enm1D8ouJZgvWXQxBk8te4hoOW8qIX5+OQRuLei4jy73yrl3KxJJwNDOJT0X4sH9YCHgZCHAi//gWDc7wQovLuZLomSmFkUIYLQZLoURIP4zTJDy7xcimnFp+WsiLbTjhSJ6XE0dCKy7EODFvw4+rI0KkrGlzNs8q5q73yWg5TO1AbwO9HCOlJoUCEbaXgSWIjwxqVxdxoXAugoBXvzHxcfK1hwrWHTfLCKIBFipwsiLRbS4miUR+JKg88jopygKVRKuiQq3FkV7XIcOAYQAhatR6kRV6vnn6qBzTSND4HyCORs+vocAlzOJaLmXgBZXsQICrxB04KNXeO+sR64soAXGJrCQy/gQUHitbLSA/zEiyEZGZDSSS5E+GO3W2SJil4jA2OnBEfGRiCDw1EZ1pf72zPF1n1skQuAOIt67gIAele3WFQW0uIoVENhbwEyo7hXllBHxJwE9ByqIcR1VIaASDmctzJ+PiBtGBFqGRcvpIuJ2EUH0sll1pn7351bwWJQe37c+CDC/pfLXj0RwPUxAC1rb04rocTVLIrCToAPZDak6UKHmVaW3XBJK354RgY8J+HR60oRPbpFIM0LrfZp/ikAo0/Ttn0ibHx8nAize07yy7N+vEUFDJsFl3z19/7dFtLiaFRAgjeNvBZ1IXmpFeYSAFhjsXApiXEcVCOwu4onJiQcDqNMIW4fdCQmpJt+R+plEL+cR0uiqho8AqvJUvuL5OwqgOJVIY/syAS2uIgGB9wuY6oCE908+ehkBLTD4nSYr9edBI/A2EU/AF/9q3E1VNivToHKE8CohrdD7lOmX+O+1RuD5Iv46pwBFlWB+GwEtriIBgccImEqlxsE18XcCel6XgIcfrQcBztr/IuAHFlP+YcSXu7xaSO93cxPr+geDANpahfufaq5+uojPMbJ16REBVVpJ3FMU5WABYxFZiuBCLsNGAE1Ot3inXlXnnpshiiZAeRygSLi1Gc3+vX4EVPO0ykj6y4KxeXT9sI+fQrLxKdyaVL6cDxQwFovFrcbfdaNv4SEiXjiisECITYDKMPAFo+9lN3ARBF4kGgsKN2nSyXOcliqU0yaXChDAFSq1MwkJqSiXENBCW7BQdRkuAhjpKdJEwwv4K5cuqnjt3ytNuN9XHQIcjR4nmBdVgdI4t09dL3g+1Qunuo4aKkHPFnTo7yPiv0UA/EpAzz8cFVDUG/1UcxUBDzDJYOTaR8FKmsVbMVGy43JZXwSuKeIjVah0hZ0Lwoj5uhKevpmIwZi0FUWR7IKJt4TRl6K9rmNrBB4i4kmi+PVV7ipqww36aoDfWwUCuMopBEm8CBRFYYx4lIIQ16FBYLuI+KeAyZ6qISduIqCFAfNVET2upjwCCiGwbyt6YqUrjjGeVB5+v7ESBAg29WvRfKgwKL24iBaVMFJJNw2fDIUdwGEiGFCfqpgemwKX4SFApL7UXQ9HW32Xjwra8d6+G+H394bA9QT8wzgibLWiqDRzbPJcKkJAkY0Py1BVemCCC6UuADz/rIowNimLI0ByntT+v9rir8t2p8KrRSVYZ2ukK86GgOK8nXH0OBGFinDtaJvPKKLH1YgQ2FUw4cJotxbRczkRPT+LCKxoXYaDAL70qYs/z5+jgiaTaCi1LX0fZVQA41qSgCZUERgNg7vzChAktsqJAn4mhoBLZQgQaUrhakI4VFU5RsBsTL6kd3UZDgIs3KmLJrsMlVdKCnIYIaa25TcpBPjZwSJAjpVU3uH5Q0UIXEtEj7Wyog5RV0O0tFSGw0JUVR4roIf2vFFFkOspgsDOgn7/RRFKN3/JWQVtQZhBQHdZLwSYt1LnY56/mwi254nosVeLqEPU1RAlSsFwpBlWFLKhKSJOobYirrzLMBBQCABKQTQFNXydU8cUMS0sAKT0wvCeRXD8q4B3mPtOL2g+x6g/F9GzrYAeV5EBAQwzmGxSJ6yHC2n7hIAe2oNPtsswEMAtNZUHa1k0xyTMDIN7xkElLtWpY4DnSX2tKNcW0fMOBTGuIx8CnxZ0tCriFK28i4AeBoLqHCwf8q55EgFFFkB2UX0XhRvXl/puhN9fFAHCYKvcoK8vopwMqwqBRGUkLmqWq5lGQJEeGEbBil9RUN0rLE+xhD2/giDXUQSB7wsmnCsUoXTjl5AkK3XiJEOmy/ogcG8Bz8Bz2MEoDGERSBRuuczjp12fbhxmS1WRnl4qbP6bRAPC2aeEnZK5KoUm6smZaVykekV6a+VYWoRm39MfAth6fFs03z1X1Izbiuh5p4geV5MZga8LOpzkQEiOiqJQoyIRY1RzNgVBriM7AopQwEdmp3LjF8D/Cu3VEzZ+jX8dEQKqMOjMd5cS4fIBwXoAPWQRdBkAAoqogHT4HUVtRY2lsECFphrCw4pgGXU1zxFNOhfoEaU9RW24R49t8KvLIvApEc+oku3sIDIMx6bH6v+yvLTy2y4sYkKl4Z1qQfiTMFzxygD7wU0RuKWIBwml2lc5XNQG57PoqwfLvveyIn5ho6PyxFKEsoaed5WF0m9LRYBMenRcyj8M7y6YSkj7/CUTaZlsx1NENLmafAhg/Pk3QZ8TRwJXvNJFFVPje6UJ9/t6Q0Bx7MU8R+Cos4tagQfK5Ny56mfsCFwGhMAjRR3/dGGbOdNdlQEnnyO+tiI4hrBprmoGAorEI/Q7GflKBtLh7J/4/ZM8t+pnNF8u40eAoGeKGCzw2SEiuHYU8TC2Vw7EJuqUUtWcT9T5JONRuKLQ7r1FNDFIHlUKSL9nZQRU7lD0dymtD4LG24V8etWV0fODQ0IAi/1VhcTp51SpdvcR0fTuIXWEaf0PAl8UMQAZ0RSFLHEIFNMMv8rfvxR6KSja5jq2RuCcEcEx0ir9O/0M9aCWz11UEdyg/1fOZJm7u6qo/wwR8QcRnxOETaXt+oGIpttVgbKJWBqBh4gYQOn/+WARTUywGLi41I2AypCO/sYSOWckMpX3TCe8vLLurjF1IgQeJpzTVK52VxHRhPrfx60iRildzblEO7C/RwTuJIpCIonjRcz504gg57ZLvQg8SNTX3aKKJoBdumqXBHLkSVcFq+ro5Hr1ervFlIkQOGWTre8nIh7/jlBjdKCIJkexFDFKX9V8TMQIDxU2QJUmmEnWPtbCjslQFYvrj0U8OLm4Yhh4aQG95EhXGadO0vdhAW2uon4E7ivkbVXaX5Jx/VlEl9X/9fPghhSiMp2cmFb9fPSGb1nuR87MThDRhZuVykhxuVb47kURIKDUqny30XO4CJJz/WKLEjJx35Ui4iOZ6EJLscvEu/xxnAiQfVWV9Actgkqbqdpg0TYEeJcBI4DhnUrlfkUhDk8TTr63F9LlqvQIoK7PscueFA6OaSbQZ0TE1SICl6zJyRS3PuJZkFmNfBIcHU0+q/6sSuGq7wnXqERAafl/fxFhzPckEVLw9H4imlxNzwioovC9XNiOMwvVVN8Qnp0Jm+iqJhBQ5YNYdGJjF47gq9I0Lfrek4TBsybg88fKECDaKn29KF9sdN9xEbGNqH0cI2z0rkV/Q7vm7KuiTum7GlVACFxdMOJTFaUEfR8VUa4nGwIqe5RFJ7E+7jsgG3quuCYEFFkiO/58hLBhbIa6elOu7xfS5KoqQECVpOKuwracQxQuFkYnOqDKU0HYRFc1gQCCaOkdecokuOyz348IDLBcxo3ANUSLLPz1W2GUvRsI6VLFfhk3JwyodXcQMQephpUuWORKX3ainXf/awfUH+tKKufwxDqf14dD/Z702Rdf105do3b/l9ie5UlC7D4uGlcEEFLO8cImuqpVEeCMCWlTMcHeeFUiZjzHOZMqhjbnvrvNeIe/qgsBVYAqBS8r6kCgQbBxGT8CuB0reIY6/ijUGOF1oqJLeSQxfo4YUAtfKGKSL4jb/DoRXQwAzsAIzuFSNwKvEva5auJbtR6iW7qMHwES4mCwtyqfTD+ntLLHHXa6/lX+JvIfBtouI0SAvOSrMMWsZzgHU5WLRgRWp7Pes8p3qlzaqva5nq0RwF3ps8I+X4VPFM+8Yuum+ZuRIrCvkF8Ja31WEU7njgiitSr4mc2Yy4gRUFliE4lNWQ4SMTCD4E8RQRhkl7oRYKfxGWG/KybAZepgspyMN1A32qYuBQGyq7I7XoY/Nrp3/xRipp59tpCuy0/V7T9HhsB1hcxyOSE2hHXlDH+jQbPMb+8Q0uaq8iHAAkrSnGX6tu970VY5HXU+nqix5rcJefRvEcGuXVFI1IMBqmJMfFlBkOuoH4GjRAzzLnFT1QuBDbPEHZSxOs7Rh+AdgHZJla89I5yuWoiAKrNet0gTBVVVlJkIVbkIVG1zPZkQULkEsmNXuj6hEv6NSDhhsJEnwLGsMzFRhmqJFlhznIAfRcQlM7TbVdaLAHlG2Bl3i3fq9YcRQWhqRUF7pspEiIeYii5F21xHRgSUKSxfL6bznsLBxmBV+tmKm+rqZiBAsCDsS1InWuXzCLqkC3agqRkdNvKvnizmRaULtTLVNlFZXdYIAdL7KiZJzkN3FuJGAIovimijfRjuXEhIn6sqgwC2KkcI+WBVXietrzP7lenz2t5CxkjlsdR7hQ1UZiLEJsFG08LOGUJV+LSq1K3quNG7igfeh4bQIaZxKwQQBslHjtp01QV81ecOj4hrbkWRv1gXBJgfCe28Kv9MP4fbnzK5zjOFtJEh02UNEVD6te4uxo+kKtODKOVvZQ4DcVNd3SYIEDPgfhHxeXG8iGl+IrsbwuItN6HHP48fgdeI55/HCSHDgwCBYpp/V/nbu39hxwytqrMLk/EcJm48Kq5fipicgXFiROwkptHVlUfgbBGxd0R8UMS7uFC9JSJuHRG4VLkYAQTAVRbTec98OyIQYlVFGTnV2StVvTLQeohkNo9xl/1evXO6o5A22vJNcTrjgXb5aMhGTbtXRDwnIt4cEZ+MCCZbYqxP8y5Wzke3BoZMoM+ICLwOHMhnNOwgaQhn4aqcKR0PXkdC2cmVXEqoBcM+6pxC2lzVABE4r2gnBbN/J0McflUa424wOmPgAJl0BZIRDi7SnrvaFXQFANfwEWxOVBn1uvmGAELKglFqV3fq1bt/Zc8MuC7left9xDigtlfFue4GzF3ENLo6I2AEho+AMqgOcw2aKOUOWxnF1bv/4fOrrAXYAnBG3i2QKVeyZZ1WRtnJFSljXdM22wOIO8jVGYGBI0AocgziUua+6WcRKFTlvyLiSCF9ylwEqja6nh4ReJaQuZ4qbgcCxbFC+hionAdvK6bT1RkBIzA8BLZp54PpBTzl76+Lj0PvJJz/2P2fY3jdZIpzIrB9RPxBxGQ5gu+oLXMZ3Lj6uBgBI7DeCCiPQJlXiBy5mxBSBBRVyF/o8+5f2DljqkoZ9jJH8B2lAUwn3d95TB3othgBI7AUAjcQZyFlXsHLRFnIPNnNV6lX7/6VPTOyus4gdoG5uRifC0fEn4WDgcFEfcqERuImuzojYAQyIUBAHWyWUhfVyeePF+eMIEGaKmIrdL4wE5audiQIKKVN1Fbqc3Z27JMDTvHZ9gAjYV43wwgsiABBn74mnktQ/aNRUJYDhTR696/smZHWxYKtlIqJWa0u6jCdCBG2B1D3kuszAnUiQDbUHMeJhFZXlmuIjyeeryTOdY0XAWVKXnz4LyaGCiGFXbti9z9Zx93EdLo6I2AE6kNAGf20mz8+GxH/LWwqc5wyGRFHE2cS0ueqRowAPqdfES6wn8iAFQGCVLELukGMsKJW4WVouqs0AkZgRQQeLZzXunnj1xnS6bJb7+pXXO++Il5+bE0RuIqYAUnrqi5k+FMMjsk6MAq8oppQ12cEjEDvCJDwiXP6yfGe+pn6bihu2ZWF8f5p3xcjgjDHLkZgKQTeJBwsv4qIsyz19sVuVmbG6iaD32Q4tlisNb7LCBiBHAiwocEIrhvjqut+YmLJW3GMkM5/RcRlxDS6ujVBgMxYSre7d2TAjbMy5YDpJgY8GHATcjECRmDYCOA+jJq+G9uq6+fE0f5AGUNCFX3U85Jhd52p7xuBx4kZ8rYZGnSJDPYADB7SB2+XgV5XaQSMQBkE8KP/rngOY25AS6jeILBT/4eQVoQez19l+Gy0b0El9QMhUzJwSD6kLljwKyXnrq7PZ4hloG676zMCRmBrBJi7sM7vxrLqyrn/jbZ+XdI3p4qIo8S03iOJIj9sBFoE9hQz5vsyIfsGMZ3dhPGBDKq+TBC4WiNgBFqjt7dkmg/ITqouTxTTepgN/9RdtN71fUzMoHfJACdZA78lprMTAjA2tCVthk5zlUYgAwLPyDQPfCHDZoAjzJOE9GL4d9kMmLrKNUaAYD7KfNnEt1afodE9O0fEX4SDqRMAuOaQ/NeYpdx0I5AFgQdmGv+/jYjziCkmeNCXxPQSPtjFCMgReKyYUQnHmaNw9jW5cCs/PzwHwa7TCBgBCQKPyTT2Ofe/sYTCLSt5hJheDP9I7e5iBOQIEEP7CDHD3k9O5ckV5gj3iSDBROAUwpk6zdUagQQEcqn9Gff7JNA179Ec2krCuLsYgWwI7CJ2VeFYIUegClRr7xELK50mAVedHDYM2TrNFRuBESOAbc4BmcY6Y/6VGbAjG+G3xTRzlGA7pQyd5Sq3RODpYsYl6cUZtnyF5K9tIuIzYlo7IYArqZNdjIAR6A8B8pbkyA7ajfODxUl+OqQOyjAvHR4RZ+xe4KsRyIWAOlwlgy1HlEDaTwasr2cYbN0E8TxL3bnYzPUagQ0RwHc+x0Laje1PRwSbCHXJZaQI3bj/5dhMqTFwfQNH4ErihBUwLwMjRzlHo7L/UUYhgJwJTEYuRsAIlEGAhZn4HN1irb5+LdNu+gpil79Z7bYQUIYH1/4t6pSV+MJeLhOqO0YEObFnDRjFd4dEBHEIXIyAEciLwOki4tCMY5nNApsGdcE6nxwjivlmszosBKh7z/VthQCJeJRhgmHqH7Zq+61eJvgC4eJPGQcgRjg5Mh4Kmu4qjMAoEOBIj/S2my2Aq/7OJuEiGZDCOO+DGeme1V4LARk60lVuicDuGY4C3r3lK6R/XTezCg7L3vNJKXZlRsAIgMBZM8TLn1w42Rzk0kA+vvDi37ULYck2AR4/WRHAR7ZjONWVABm5ChkJ8edX0Tpdz8/aiIS56He9RmDdECA1ea4w34xfjh+vkwnUa0bEPzPON9Pzz/TfFgIydayrPRkBfO7JjT3NeCl/E89anXFrsr9yWuLSbkId7zb5Qn82AkZgJQQuldmIl7nmNitRtvlD2BL8Ujw3rjKvWgjYvK98RwIC542I34kZ/Y+Zd9I5I4cxSMlJcNMETP2oEVh3BIi6mSu3R7eQ5vI+YmOEK2H3nr6vFgLWfTRlbv8tMjA7Frk7ZKSbKF85Byaqv/tmpN9VG4ExIkCskZdnHpuMe4Ka5SovLED/snMX2QxtE5Crx11vvCwD03O88D+ZsM0ZMnhycJKbnPCfLkbACGyMwPmbxDtfyTCPTI5HPucI8du1LPcR43RblvkbIcBzUddTvkoROE1EHJ1h8L5eSuWWlbHbeGcGmqcH5Xeb/ATkUnAxAkZgNgJ7NAHBSLs7PXbUf6NdIIxwjsKxH3YFapqV9VkIyNHzrvP/EMiR5QrmJ9VnrsJkQB5t5SCbVRfJj3wkkKsXXe9QEWD84U2U0zunG485Mvt1uF8xIk4sMI90bUm5Wgjoes1XOQL3yTAImBz2lFO6ZYVPyUD3rEFKDHOfxW2Jvf9aTwQInvXRAuOOXfn9M0K8UyHtxaz5ZNXvLARkZIh1r/qNGQY10vWVMwPLDr2ECo8siDlSIWeGx9UbARkC5BQ5NsM8Mb0g4ue/l4zqrSvCCypHO9j0vCBz8LLP2yZg6w71N+kIcLaujg/AwMbd8JLp5G1Yw62aIwfU9dMTifpv3vGADSnxj0ZgnAjA938vMMZwJ752RgjRYBABVD03UN9TW7qxK0CIyfEO6rQQkJFB1rlqBoc6XwAMe1xEXDAzsNeKiD9kHHSTgxkjROfyztyhrr4KBEiahVfMJP/n+vyrzFo2EhN9OVNbDp5KNY4QkFNgshBQxfAYHxEXj4jfZxgkCBY5snZN9sCuBSN5kQjp8pMv92cjMDIEOL47JsNcMEuAYH64cEb8cE3+eKa24EmFcDFdLARMI+K/B4EASXj+kWGwfCMitsuMwIUyaTFmTVqo+R48Jflnbp6rNwLZESCLHzFCSlj5M66Oat539oytwmvhHRnmM2j/zSbazZtZE5CxZ111NgTunWnAYMmKWjFnOVtEHJmJ/lmCAOq4S+dskOs2AoUQIPlWyXj4nypwnJYrSiEq/qsv0C+5hQBstxwsaIGO8C3LIfD8TIvoRzJGC+xaiNveJzPRP0sIIIww4UTtLtj1gK9DQgAbnQ8XHC+MoXdFBMbHOUvOHCL3WoLwEkLArGOIJUj0rUZgSwRQnb0/06TA4D/Vlq+T/1UqauCkQPCLiLidvCWu0AjkQYAxSNCu3El8JscIn3NG9+uQenSmuQv69+9essSVuCg5DQPRBFgIWKJDfOvmCMBQnNFND2DF3+8poAlAiDkgE/0bYXBoRGBQ6WIEakXgKhGBXc5GfKz+DbuCJxUA5JEZ28WmiLwkqxQLAaug5md6ReA8EcHOVj0ZUN8HCqgBAY8c4vgY52jDvDqR9veLiG177T2/3AhsiQBGfuzASxn5dePj+Ii4/pakZPnr4RnH+VcFNkwWArJ0uyvNiQAub7nUhNgEkJgod8HN6IiMk0M30U1ffxIRN8/dONdvBBZAgOOpkkZ+3VjA2O+cC9CXestDM47vnwpdmXMLAZ/1cUAqK/n5aQSIuJdr1/CJQjtl7AJemnGS6Ca8WdcPRQRuii5GoDQC8B2C9iy+zPkdYbpJ6LOqynwZnHLmBiHImDqiKZuCnDYBFgKW4R7fuxACj804iXy6oNR664KRAycn2L82+D25ORrYZiG0fZMRSEPgrI2L2PMiAr6b5MMSn9E0XCeN/IWexs4np1BPTBRio+QoFgJyoOo6syLwuoyTCT71pVzp2BVxpldiMpx+x88bm4SHCc4Ts3a0Kx8sAts3tjXPjIg/98TfaPRyBvfpOoYIf2/P2EY0nnfuXpbpaiEgE7CuNg8CDDp269OLmupvFuUS54Wgw5HAizO2ZTNMiCT2hCaGAIZZLkYgFQFyVJCUplRejGn+RuWPhotdee5C8BsEjWkalH+XSv5lISA3t7h+KQJnjojvZRx8P8ucGGQaDOwbcuRAWHQyYsLeNyJ2mCbMfxuBBRDAXffxbfbNRXlOfR+eQtdcgFbFLRxt5NbePU5BukzsuQAAHQNJREFU6BJ13MI2AUug5Vt7R4C82jmyB3YT04kRwaAoVYiG9pWMQk3Xro2utJmIgucu1Wi/Z9AIsPDj8/7rnvn2o805PItyiXKBzJsPxicGhX0U5rsceVi6OceGgX306ojfea4m8t13Mk4+nMGVlMQ53ugjcFA3QLsriYZeaa+BEY+ctKadvzGYfW7PWit4lRDYaB5KqPxB7FIZY5J0Y6+vxb/jCAsBHRK+DgIBjH2+mVEIYGC+oVDAoA5wBuEJmdvUTTgbXZlg39xkM7tER5iva43AbhHxznbh3YhvSvzGMd3uBXvjagUEnr4X/w5OCwEdEr4OAgHOrr+WecEk1nXJM3IEGxbfEpPpZu9AE3Jw48tNjnaX9UIArdSdKjie6ngUoRQtGQaHpcpeBVwZa1n8O0xv6eOADgpfh4AAhoG5DXN+1MNuGMOmYyoRBJiEOXLBc+B8Q2AK07gyApypPzEijquI974YEbuu3KLVHiS0b64AZJ1QU9vi3yFlIaBDwtdBIIA725cyT1hYzN+wMBpkTSO7WF9+1d1ENXllUiTE6j0Kxk4oDPvavQ63VHa778tsET7JR4t8xl1178bF8BQFe4QxV8JFt9bFv4PaQkCHhK+DQIBAPgT0WWRiWfUe1JAP7gENEiORynhVunM9R56Gt0XEHhFxyh5w8StXR4BFlfPtVxQ4416W/xAyXxURaPdKFrxgcs8hYFH74t9hjpuyvQM6NHytHgHck9idLjvhLHv/y3pa8NBAfL9A+5bFg/sJwfqCHlS11TNlZQTu2MTIf1pEcKy1Sj/nfoY04H3YnFyvkFvjUBb/jm0RAgi0lKvf7SLYIe2rBAHS4H4sI8N2A+HjEbGdhOLlKiGeP1HP+oiz3rV9s+vRTRbHRzUuhbhruvSPwE7NMdIjChyTbcYXG/3OERvatRIJfCZ7BFdCFuWci1zX7qEt/uDEXNPRn+tqIWCSI/05GQEWSbLg5WLYrl4M4y6STO1qFZBToEQbu7aucmVS/UzTPCY+XLewLHfJjwD8j7aIs+xad/qT/PQWYcrbZdDFu4dgQpO05PrsxX9jnC0ELMO5vndTBFhs3ltgcP+2UPaxeQ0mnjc5w3NNXMp6sRlAc0KQJdS8thuY16vLf493xn0j4gON9gWclf2Wq65vNQLitZZvquSJq0YEMQVytW2yXrKZDq2U2PlPYsRnCwFD45LK6cWilwAm04ym/hujJULpnqYnPE7bpPrdLyKI5KduW876/tRqMVBPX7ZgZLeeukn6WqLy3b4xlHtRRHDkkrOf1HXj1cKi2JdGiIyYOY3bOryYF+4n7fUylfWx+HeYWQgo08dr8xZ2magYOwbLef12s6BdoUdksWLef0A7wOm+IArie9qz4EsWdv/qsds2fTVueleJCHzT8QapyUd/ug83+pvEV89ojibOsmmL89xAEKF3F5oL/t4Y7N4xTzOy1trn4t/xjoWArF28fpVj6PP6QgMfV8GnNxMd2oe+CsFcyMveV3rWbiCnXkk2w5HBS5qMcw+KCCy1UXWX9Asv3Yekm718mw/+eRFBEJyhaXam+51+JHZ/ySh+0/22S0EPGgSda08TMIC/n1Rojpzmj1l/WwgYAMMMiUSEAHYfs5gtx3dHNrs1drF9FgIkEdWNgCo52thXnZxx4y52UHNssE+rCucIATfQoRQM0DCMvHd7fPSRJrjSsSPrp59HBOp2jqj6KngVEEyrlBD144jA62JopabFv5tXCMM+pDE9tD5fS3rxay0VWY9Jh8mnVNayeR3KBIz6mNzp3eAa6xXDrk80aWJf2moNbhsRN4qIqzeR7i7Tem2co51YcmgScEMlxTMqe5Kr3L/1uyfL4vsbWr48QoFsmpfwPLhP4URas3ifmAdfKMjz9C25PIZWalz8O56yEDA0bhoAvezMf1BwYiC62IUrwAX3MIyS2KV0A2ydrxhpYYjImfp3I+KIiPh0a0lPhEMWbRLQEPjptRHx1jY50iGNQPHJdnHhGXI2/LDZ7f5xzXHFqv/OFXh3INhxZFTSGwLbFYS/oZWaF/9ubrIQMDSuGgC92xcKGNQx8Ynt4ptj17ks3BhG3rVN8NPR56uFolV5gOMuNGt9a7oYB3hHHFpYEMNWo4a2LzsPDGHx73jSQsCyvev7N0WA88HnFp4sCDyCtX4NhUnr1u15ejfQfLUgsCgPoF7neKWWcs/CWhiO+O5eS+OXpAPboEX7uZb7LAQs2cm+fTEE7lBYXYiVMKrSmgoTOYGTcF+qZcCbjvr6ghDUHI+QrrqWQrKs0lExj288VHarBYAl6Rji4t/NBRYCluxs374YAhiI/aTw4ndwY6yGy15NBR/tBzQZ/g4vjEU3wH2tb9HHVgLbCFJA9+nKNz1O+kqX/bXWHXWaniH8nXvxf02rVcwZaMlCwBA4bYA04ppVIpvg5CLHToKIbjXYBkx32cWaaG379iAYTeLjz/0JBBhGsmBwrl5bQQOB8WVp/iCyaJ9ujSn9UGLx72whcqcSRgggZoaLEZAigIEc4VVLTyy4EF1D2hJdZQgnTLhYwq+7pXtpvij9PnJb4EJ5JR37SGvChbNUZM9J7NGCsIDWKKgvAnDJxb+jx0JAh4Svg0MA456/9SAI4CtecyARXJ3QWHw4Ioh6ODlJ+vMw8cDug+MoEkv1FZ9/swkCg13SBfcV3RIX0KGWJ2Qep6j9u53/NEYWAqYR8d+DQeCKEUE0s9ILGwvrywcQVITdGIl8OBMtjZHfl475l9pARWeufESSuY/Ij333+WMqx2kWeX0u/h09FgI6JHwdHAIsciWjiU1OckQsJI/4EMJhXrrNgQBWOQ2AJvHx5+UWRTRa2LigDr7oAEbixVvNRE39PCQhoIbFv2OzW2aeF2wT0CHtqxwB1KIH9rgDIVIdMeNRgw6hILDcsDGWek5EfLVZcP7VI3Y1LR6laUEQI5kQOTBITtNXuupleZY4Ga+u+IhpCEJA7sUfe6B5av95/W0hYB4y/n4QCFy/Cfzx0x4XM6yebzIIpLYkcrtGhbtnG1Z3aLnrSy/aKe9D0CI0McGt9higlTTROZ/d5M8g1kAKDiWerVkIqHHx72aE3EIAYdftHdCh7ascAZiL8/kSk8y8d6DGJWXsUAuxD27T4vi9nrGch/FQvv9m67WCAR8L6BALmgkW1BMGxgs1CgGkXc7Ju6vs/Kd50kLANCL+e3AIoFIl61nOwbZR3bglYZl8gcEhtzXBRHIjMuLr2pztPjKYzVeo9Em484qIIMvh2baGclDfkJzqvj0Z2m40tpb5rSYhYAiLf8egFgI6JHwdLAKcdb84IliMl5k0lPcSj/z5I1gMJpng1BGxc0QwSTyuEXJeHxGHDXCHuGo//zoiMGriHPxREXGzJvwuQZmIfDeGghbtkW0WxlUxqum5GoSAIS3+HQ9bCOiQ8HXQCJBr/vs9CgFMhggCb4oIXBfHXNj17t7sGvduz7qJm0DEuqHFJKC/sOnA/36/Jtri3SLiKo06v3aXvBTeom37NKl6f9fzWMkhPPQpBORe/NHMLWvwtyifWAhYFCnfVzUCBMh5YSUW7/h337HioC45OhJPDdzGMDZ8dKuZeUO7wH688UoAExbcYyOCZEzqYwbU85xhk08CQ0es78n8+K72aOOAJoriw9rseRcekEeHoq/O1eQQeEETMwK31hyLby119iEEDHnx73jLQkCHhK+DR4CgJd+pZKL7ZbvjOufgUc3TAIQ2NAoXiQiSQaHJuXHTf7eLiHtFxMMbzQIW1SzcpJrFcBHr+qtFxC4RcaE2mdNQ3OvyoDi/VgSyV7baqRoW6UMj4h2Zx2ZJIYDjsZy45tz5T3ONhYBpRPz3YBFgQcAHXr3LXHWwE+oVg0FUzC5GICcC2MWQNbCv4FmzxgjGuiwwFGJpcFQ26z7VdyWEgDEt/m3X/F8f5QwiZhfBDmlfiyBAQpU+MpZtNJERmOeuEYGhnYsRUCGAcInR4p8yL64b8fb0bye2Ghy8DSbL0IWAMS7+Xf9YE9Ah4esoEGChfWaFRmpYmhMhjqhrLkZgFQQ4PsGaH9fE6cW377/JGLgRbw9VCBjz4t/x4C0yhw22JqBD2tdiCFyuOT8+vMKJEpUb56JY1rsYgc0QYOHETgLvhZzq2lUFCDRcu23WiPb3oQkBuRd/3G1zWfsv2CX/vs1CwL+h8IcxIUBmrFqMBKcnWaLKkXyIxD4uRmASATwX9q04aM/xrWvosgvYUISAx2bePNS0+Hd8ZyGgQ8LXUSFwytbKvI9Uw9OL/ry/iWuAIeOVI+IUo0LfjVkUAbwkiNBI6Ol5fNL39xi4EgjrjIs2asZ9tQsB67j4d91kIaBDwtfRIcAEi8Vw7THQEVRe0maUQ3hxGS8CLIao0F8WEX+oeOFH8PhwGyFR0Ru1CgHrvPh3/ZpbCMBjxQmEOrR9LY7AkLKg/TYiSAhCVsJp6+riwPmFEgTO12qkCFpEkKS+d/WbvZ8EUjmyYtYmBHjx/w97Wwj4Dxb+NFIEsFp+VYUeA/MmZFy+DmoT01iCHg5TnraNSLh/03ffHsCC3/HfH9soj0R9zFVqEQJyL/5EyVzWXiIX5ovWixDAkU/HD+qrNQGL9oTvy4oAEdTenZHR1QOH+v4WER+IiLs3xwU7ZEXHlS+LADYcGHaSWOgTFUXmW5QP8TZ4TZM++hzLNnzF+/sWAjgWXBSbVe4b4uLfdaWFgA4JX0ePAIGEajbA2mjyQU1LxLUHRsQV1iwvQQ2MedaIuENEMNkTEnqjvqr1N3IHkF+DI4rSpS8hwIv/5j1tIWBzjHzHiBC4YZPk5qiBTuLd4oKGgJS+qJ2JtX/BEfVPDU0hBO812qBT+ML3maK66/NVr79qYgyQ5AbbmD5LaSHAi//ivW0hYHGsfOcIEECNy47uBwMXBCYXBaIRcmzwxCZ2/PWa3d6ZRtBPuZvA+fclWyEKv/z3Na56Pxz4gt/xBGmd712ZcWkpIcCL//Ijx0LA8pj5iYEjgOEOFtAfGcmk303+XNm1YpRGUJL7RcRlI4Kd7ToW+plsgzdr49m/rU0zXGP0vck+XOUzqZOZzGs1SishBKyC26LPDPnMf7Oxf3MbBm4GkX8fKwI7tir12v21F52o5t2H6+GREfHeRi18QJNX/hFNkqVbN37g2EhgGDb0QEW0AQ0IaYcxdvtyE2OfRDbz8BjD9wh7729TKw9hfA5VCHhjxYKVqt9LCAFnUBHreoyAGgF2yfdpd4hjWByWbcNJ7dEI+d7JYb5PRNwzIq7bpEG+aESQnrlUQUV/9ia/wiUi4urtznbvNuATkRVZ4BFkPtcm0ak9CNSyfbHZ/fQVGOxUqkOE7xmaELAOi3/XvRYCOiR8XWsEMAR7Z6WJWjZbHHL+/psmT/2xraBA9rqvN0ltvhIRqJ8/3US/+3jjrfChdnEmORLZ5BAmXtlGQcQa/dltBsWnRcSL2ns4iqEecs7jp56zDUOumwBDz4qIcw58dA5FCFinxb9jKQsBHRK+rj0CBBV6ekRgUT3khcO0D7v/ftYe2YxJhVq7ELCOi3834VsI6JDw1Qi0/vd4D7DT9WJqDErwAC6fBLIi8+WpRjoKaxUC1nnx71gttxDAXDomgbbDzdeRI4BVPXH8/2phwMKQmAf+FREfayNBpmTmG9IQrE0I8OL/H+6xEPAfLPzJCGyBwJlbi/PPj9CVsMQO1+/4jyblS002ywe3ho9bMNma/FGLEEDUzVrdKPtiBQsBfSHv9w4GASzWCb5CatWciTa8aP5n0Rw6Fse0wZuIU+AS0bcQ4MV/PhdaCJiPjX8xAlsggOr29o0LG1bwZPob+kJl+nV9+NPWC2KXLTjGf3QI9CUEsPjzbpf5CFgImI+NfzECMxHYpo04+OqIIGSvF9P1wwDXyZdFxO4jCLY0k8nFX5YWArz4L96Be2bWcNowcPG+8J0DQ4CJjaA2+ML/2MLAqIUhAhO9uYltcOMRW/DnHH6lhAAv/sv3ooWA5THzE0ZgKwQu06gdCYZztIWBwQsD7PIPbg35UO/bkGwrdl/6ixJCwOOWpsoPgICFAPOBERAicJE2cQ8JR75ngaB6geD41sbjAW1WwaHnURCysrSqEkIAGQRdlkfAQsDymPkJI7AQAmdp1cdEISS8rsPj9ms7cFxEkEnwvgONv78Q01V6k4WASjvGmoB6O8aUjQsBVMrkr79XmwSGOPxkgrNRYR4MCL3LGT4JiMgW6dIvAhYC+sV/o7dbE7AROv7NCGRC4ExNaOLrN3U/pY0/sG4Z8VTCzy/bREavaCPw2S8/E8MmVmshIBHAjI9bCMgIrqs2AosgwDn0xdtF7AWtUdqREUEGOdViOdR6TmzUlUc1+BzUGl7eMSIuHxHrEm53Ef4Zwj0WAurtJQsB9faNKVtzBNAWYJ1OMI+HRsT+bcpe0vmOxb6AOPqkEyYaI+27f0RcJyLOY//7UXG/hYB6uzO3EHCYEwjV2/mmbLgIbB8RJDm6ZRO98OER8eKI+EDrosjRwkk9aBFY0NFeED3vGxFBzoVDWmM81PXPjQgsuKF554gg6JLLeiBgIaDefrYQUG/fmDIjsDICGCKeNiJIgnTuxkgO10UME6/QBjjCHoHBf9uIuFvr1viwiHh8RODNwIKNYPH8Rph4cquJuEeb7vZ6zc79Su0Rxrki4vTeta/cT+vyoIWAenvaQkC9fWPKjIARMAKjQMBCQL3deLPMYYN9HFBv35syI2AEjEARBCwEFIF5pZdYCFgJNj9kBIyAETACiyJgIWBRpMrfZyGgPOZ+oxEwAkZgrRCwEFBvd1sIqLdvTJkRMAJGYBQIWAiotxstBNTbN6bMCBgBIzAKBCwE1NuNJYQAB/eqt/9NmREwAkYgOwIWArJDvPILLASsDJ0fNAJGwAgYgUUQsBCwCEr93GMhoB/c/VYjYASMwNogYCGg3q4uIQRsW2/zTZkRMAJGwAjkRsBCQG6EV68/txDw9tVJ85NGwAgYASMwBgQsBNTbi7mFAEKRuxgBI2AEjMAaI2AhoN7Ov2nGsMH/GxE3qbfppswIGAEjYARKIGAhoATKq70jpxBAyvOLr0aWnzICRsAIGIGxIGAhoN6ezCkEfC8itqu36abMCBgBI2AESiBgIaAEyqu9I6cQ8JGIoO9djIARMAJGYI0RsBBQb+cjBJwUEf8vw7996222KTMCRsAIGIFSCFgIKIX08u/JJQQgWJx/eXL8hBEwAkbACIwNAQsB9fZoLiHgdfU22ZQZASNgBIxASQQsBJREe7l35RAC/hUROy1Hhu82AkbACBiBsSJgIaDens0hBLy73uaaMiNgBIyAESiNgIWA0ogv/j6EgH+KjQIvv/jrfacRMAJGwAiMHQELAfX28APFAsDH6m2qKTMCRsAIGIE+ELAQ0Afqi73zQLEQcK3FXuu7jIARMAJGYF0QsBBQZ0+fMiI+IRQCqMvFCBgBI2AEjMAWCFgI2AKOav7YPiII7asIFIRdgUMEV9O1JsQIGAEjUA8CFgLq6YtJSq4pEgAQIm4/WbE/GwEjYASMgBHoELAQ0CFR1/UQkRDwlrqaZWqMgBEwAkagJgQsBNTUGyfTcqmIIKhP6lHA7yIC2wIXI2AEjIARMAIzEbAQMBOWXr98vUAAQIC4eq+t8MuNgBEwAkagegQsBNTVReeNiL8LhIDn1NUsU2MEjIARMAI1ImAhoK5e+ahAAPhWXU0yNUbACBgBI1ArAhYC6umZBwgEAI4BLlBPk0yJETACRsAI1IyAhYA6eodjgFRDQJ6/Th3NMRVGwAgYASMwBAQsBNTRS0cKhIA71tEUU2EEjIARMAJDQcBCQP899VSBAPDI/pthCoyAETACRmBoCFgI6LfH9hIIAM/rtwl+uxEwAkbACAwVAQsB/fXclQUCgCMC9td/frMRMAJGYPAIWAjopwsVhoCH9kO632oEjIARMAJjQcBCQPmePFVE/G+iFuCY8mT7jUbACBgBIzA2BCwElO/RXyYKACeUJ9lvNAJGwAgYgTEiYCGgbK/+OFEA+GtZcv02I2AEjIARGDMCFgLK9e6JiQIAAoSLETACRsAIGAEZAhYCZFDOrWjbxMWfSIBfnFu7fzACRsAIGAEjsCICFgJWBG7Bx84nEAAOXvBdvs0IGAEjYASMwFIIWAhYCq6lbr6cQAA4cKk3+mYjYASMgBEwAksgYCFgCbCWuPWWAgHgSUu8z7caASNgBIyAEVgaAQsBS0O26QMvEwgA99r0Lb7BCBgBI2AEjEAiAhYCEgGcevwnAgHgplN1+k8jYASMgBEwAlkQsBCggXUnweKPFwB2BC5GwAgYASNgBIogYCEgHeZHCASAP0QE4YRdjIARMAJGwAgUQ8BCQBrUnxUIAG9PI8FPGwEjYASMgBFYDQELAavhtrtg8Uf9f+fVXu+njIARMAJGwAikI2AhYHkMPyUQAP4VEWdZ/tV+wggYASNgBIyADgELAYtjeW3B4s/u//OLv9J3GgEjYASMgBHIh4CFgMWwZeFmAU/999jFXue7jIARMAJGwAjkR8BCwMYY31qw8HeCw84bv8q/GgEjYASMgBEoi4CFgNl4XyIi/iQSAJwCeDbG/tYIGAEjYAR6RsBCwJYdcKaI+K5o8UcD8Jgtq/dfRsAIGAEjYATqQcBCwMl98V8R8UHh4n9cRGxbTzebEiNgBIyAETACWyNgISDimcLFn93//beG2d8YASNgBIyAEagPgRJCwLMjgvfUVAjR+3Lx4v9Dh/6tqYtNixEwAkbACGyGQAkh4CMRsf1mhBT6HToOFS/+7P4d+a9QB/o1RsAIGAEjoEOghBDwg4i4lI7klWq6WER8L8Pif3REYE/gYgSMgBEwAkZgcAiUEAL+3O6UT1EYnVNGxL0i4vcZFn92/3sWbo9fZwSMgBEwAkZAikAJIYAF84iIuJGU8vmV3TwivpVp4acth81/tX8xAkbACBgBIzAcBEoJASyeX4wI4u/nKLu1Mfl5T65/v42IC+Yg3nUaASNgBIyAEegDgZJCAIvzl5tF+skRcaWEs3TO4Fn0nyMO7DNPePhHRuGljz73O42AETACRsAI/B8CpYWAbqFlV31QRNw7Im4YEZeNiHNHxP+0/YL9wNmbAD6Xj4hbRMSDIuJ1jQ/+rzPu9DvaJq8PNJ8YASNgBIyAERgrAn0JAZML7eRnjPhOKrzQT76/+/yqsXa422UEjIARMAJGoEOgNiGgW4T7upIyuNNGdBj5agSMgBEwAkZglAhYCDjZkPDYiDjbKHvYjTICRsAIGAEjMAcBhIA3VqB+72vnTwyDy8zBxl8bASNgBIyAERg1AhjgPTUi/nfNBIEfR8SlR92zbpwRMAJGwAgYgQUQuFVEnLgmQsBnImKHBTDxLUbACBgBI2AE1gKBXSLiJyMXAsgYSOZAFyNgBIyAETACRmACgbNGxOdGKAQQ5Od+E+30RyNgBIyAETACRmAKAVzi8IvvyzhP/V4CCl1jqo3+0wgYASNgBIyAEZiDADvmEwYuCHw6Ii4wp33+2ggYASNgBIyAEZiDwHZNkJx9IwKXOfXOPGd9X2kSE11/Tpv8tREwAkbACBgBI7AgAgTL2T8i/la5IPDNiLjlgm3ybUbACBgBI2AEjMCCCJw3Il4dEf+sTBD4YUTcOSHz4ILN921GwAgYASNgBNYbgR0j4rURQaa/nKr8jeomeNFXI+K+du1bb2Z0642AETACRqA8AoQT3i0i9ouIowsIAwQrel9E7B0R5yzfXL/RCBgBI2AEjIARmIUAFvcPiIgPC+0Fftok7DkwIvZoBI1tZr3U3xkBI2AEjIARMAL1ILBtROwUEdeKiDtExMMj4jkR8aZGa/DxVmNATP7DI+K9EUGUPvIS3Cci9myEiCtFBDYHVZX/Dz0M8785jvyFAAAAAElFTkSuQmCC;" vertex="1" parent="1">
          <mxGeometry x="745" y="384" width="50" height="50" as="geometry" />
        </mxCell>
        <mxCell id="kkyCF6RHFg_3seXWVsR8-52" value="" style="shape=image;verticalLabelPosition=bottom;labelBackgroundColor=default;verticalAlign=top;aspect=fixed;imageAspect=0;image=data:image/png,iVBORw0KGgoAAAANSUhEUgAAAgAAAAIACAYAAAD0eNT6AAAAAXNSR0IArs4c6QAAIABJREFUeAHtnQnYfVP5/u8MlXkMGdNoKJIkIjKUIUXJlFSmZkqUKUoDlQgNVEpkSJIkqTQomSKVIfllniljZvr/983Zvuc97xn2ftaw19r7Xtf1Xue8++y91rM+a3r2Gp4HUBABERABERABERABERABERABERABERABERABERABERABERABERABERABERABERABERABERABERABERABERABERABERABERABERABERABERABERABERABERABERABERABERABERABERABERABERABERABERABERABERABERABERABERABERABERABERABERABERABERABERABERABERABERABERABERABERABERABERABERABERABERABERABERABERABERABERABERABERABERABERABERABERABERABERABERABERABERABERABERABERABERABERABERABERABERABERABERABERABERABERABERABERABERABERABERABERABERABO4FnA1gZwHsB7AngIABHAjgawNd6/+8K4E0AlrYnoydFQAREQARCEXgOgOUBbAzgwwAOBnAcgDMBXATgmuL6vwHcDeBeAP+v6PAf6f3PazcAuALAOQB+DOCbAPYDsC2A1YtBYZFQgive6AReBeALAP4C4LFeXWB9qPJ3G4ATALwHwDzRJVeCIiACItBxAnMCWA/AXgBO6g3cj1fswKt08qPuuQfA7wAcAmA7AMt1vBxyyj4Ha9aXaz3Wk4cAnAjgdTmBkKwiIAIikBOB2Xtv9of33tqe8NiJjxrsq16/A8ApAD4ihSDJKjU/gM/3zfpULde691ExXDtJAhJKBERABDIj8PzeoPpLAA8nNOBPGhj+VUwNHwpgHQCzZMa8beJuDeD2yHWHywOsuwoiIAIiIAI1CPBt7QPFm9TvATwZueOeNLBbfr8TwGEAVqnBQLe6E1i4t/fDUmY+nuFS0dvds6EYREAERKDdBJ4F4PW9DXs5venXHSj+AWB3AFRyFMIRWKm3obNu+YS4/wjNAoUraMUsAiKQLwHu2t+xt4EvROebapwPAvg2gBXzLbpkJd8MAPmmVPZnAOAeFgUREAER6DyBeYvp/U81sDab0qBQynIMgAU6XyP8AHir4UhfWQ6hP/9UHEvlyRUFERABEegkAXaA+/TO3YfucHOKn8fSuGatYCdAIz206ZByuf+qsD1Ao0MKIiACItAZArMWg/4uALghLuUOuknZzgMwU2dqhN+MLgPggUzq1rF+s67YREAERCBdAusWu6Evy6RzblIBYNqbpluMyUr2XACXZla/dkqWpgQTAREQAQ8EFgfw08w65qYVAJosVqhH4DsZ1jFaD6TJagUREAERaBUBHunbGcB9GXbMTSsA9EWgUJ0Aze/+L9N69kcAbCsKIiACItAKAkv1HOk0PZDmmj4NH2kfQLWmMHOAqX86iKJJ568UCuzHegap9i+s+h3VMz/tu169u1pWdZcIiIAIpE1gmwi21qt0wHwj5K76n/U6crpx3RzAagBe2PPoN/cASprrna9w/7oEgFcCeCOAdwLYF8D3APBt7a5Ib5oc2BQmE6D9iCr1oco9p/XKfNIOfSq4NORE3w9V4p10z/WFjwJukFUQAREQgSwJzNGz4Depswv1+629t7aPAlgVAOUJFZYE8DYAB/ZmOh71NBD0s5ECMLn0OHV+pQf2FwNYY3Jy0+6YC8BnPdkc2H5a7LogAiIgAhkQeBGAv3noiPsHwEnf6bv9t703sWUbZkS7Bm8uTPvSQ6EvF7NSACYX6oYe6txxAHiCwCW8AcC/HWW5wkUAPSsCIiACTRDYKKJBH66N09Uq35ZoRTDV8JressONDoOCFIDJpUvTupMUxXG/HzQ5icp3UAnmLNS49Cb9JkdRlXHrRhEQgaYJfKhYH3/CsdOb1Cny95t76/Bcm88pzObARgrA+JLm/g0Xi38/DrD7/rWO7qo5g6QgAiIgAkkT4A517pCuMni73HNusca7RcYbpDi1bM2/FIDxTYD1wsr2XwH3iNCFtVWua8ZnWb+KgAiIQLMEuFv5JIdOrkrn+HsAazebTS+pSwHwgnFoJN93qINbDo3Rz0UqblzPr1LPh93zAj9iKBYREAER8EuAbntDWvU7v1jjX8uvyI3GJgUgHH7rIHtJgKn/wVzSlPOwwb3Kte0GI9P/IiACItA0Aa5n/9KhYxvX+XGzHO0HtM0imhSAMLWWXB831kXagwgdaE/CeirA58bE0PlU/CIgAh0gQMMovzB2uOMGfh7l+zyA2VvKUApAmIJdyaEuxppiP8Yo40/CIFOsIiACIlCfAN9mTjV2ZuMG/7/0rO3VlyifJ6QAhCmrjY31MeYmO07lj6v/o35ju1AQAREQgcYJcEqehlJGdVaW65y6pV11KhZtD1IAwpQwl4ssde+cMOIMjXUdo4w8oaAgAiIgAo0T+JyxExvVOXOtf83GcxVPACkAYVhbj9qdGEacobEuY2w79C+gIAIiIAKNEqC1vVEDueU6nfLM32iO4icuBSAM812MdfOEMOIMjfWlRhnpbEpBBERABBojwKN43KBnGeiHPcOdzV10bysFIEwVfpexbtK+RKxAOxbD2sKka5wlUxABERCBRggsDuB2Y+c12Lk9DGDbRnKRRqJSAMKUg3UT4NVhxBkaK+v9YHuo8v/fh8amiyIgAiIQmAAN/dAYT5WOatI99xeucuklrctBCkCY0qe750n1b9jv/wOwWBiRpsX6baOMZ06LSRdEQAREIAKBw4yd1mBneyeAV0eQN/UkpACEKaG5ANAz5GC9q/L/B8OINCVWLndZZ9HkEGgKSv0jAiIQg8AGAPiGVKUTHXfPbYWvAO6AVnjaz/w4VuN+kzOg8TXon8a6et74aL38yrY0rmzH/cYjjgoiIAIiEI3Agh58mbNTu6fwFUArbQpPE9AMQLiawB394wbScb+9JZxYT5mzvthBtqUCyqaoRUAERGAagVMcOqyyo70XwMrTYu72BSkA4cp/J4c6S0dC3O8SIrzbQa5bQwikOEVABERgFIHNHDqscvB/tGVe/EaxqntdCkBdYtXv56yV1SEQ6y1t9fsOKwB4wKE9hZDJdx4VnwiIQEsIzAvgFocOix0p9w3IhenwCiEFYDgXX1ddvVPu6UsQAIsCuM6xLb3eozyKSgREQATGEviGY4dFBeCAsSl0+0cpAGHL30f95a57V78UPPFys2Nboo2CtrnDDlv6il0ERMBMgNOVTzh2Wmeo0xrLXwrAWDzmH3kM0GUTYLl0VX7SQuArDNJwH8HHATzk2I4oh8/ZCENW9IgIiECXCPzGsdO6AcACXQJmyKsUAAO0CY+sCMB6BLAc8Id90q7Ad3v2Kya9idOnxQ4epvxLOWg3Y54J+dbPIiACIuCFwKaOgz/9BLzWiyTtjkQKgN/y3RkAzUuXA2eoT9rj/1bhD2PvYpDnrv53APhIcXLgwMKbJRVnl82Hw2Smd0MFERABEQhOgFbK/ubYie4XXMp2JCAFwE85zgngeMc6O2zgTeHalR72IPihrFhEQARaT4CWxlw6vksBzNp6Sn4yKAXAnWOoKX+XNuDrWc4krOmOSDGIgAiIwGQC3O3ssn7Kqf9XTk5Gd/QISAFwqwqc8vexwc7XgO07nj3c8OhpERABEahOYCvHt/8vVk9Kd0K+AKyVgLv82zrlXyoRp+kEjbV66DkREAELgYscFACaKWXHrFCdgGYAqrMq7+Tx1Ksc6mk5wKb8eaF2/ZfFrU8REIEYBNZy7FRl7a9+KUkBqMeMdexBx3qa8sBP2egoaL56WHS3CIiACLgRONWhY71E05Um+FIAqmFr8y7/foXkXABzV0Oiu0RABETADwHaKXc5u7yJHzE6F4sUgMlFHnLKnzYD7nNQfPsHb9fvRwT0QDiZsu4QARHoLIF9HDpBTllOsozWWbATMi4FYDygkFP+dMzzGgBLAeCbt+sAbn3+/mJPAzffKoiACIhAdAI0/HOtQwe4UXSJ25OgFIDhZckp/x841MlJg/FJA1PtPP7KI3cx9xfQSyb9FSw5HIGuioAIiEB4Ams4dLS0Uqa3f3sZSQGYzi70lP/7pyf5zJXFAdD7X2jbAufLVPYzzPVFBESgQQJce5z0xjTqd9kodys4KQBT+e0YcPClO92qRqoWKmw0HATgHoe2MdhmqFQcA2C1qVnWfyIgAiLQDIGZAfD8/mBnVeV/do5zNCN2a1KVAvB0UYae8j9xYMq/agWiSev1AXyt8O53k6GdsG1xKWN7He2rilz3iYAIxCLgcvafU6UKbgSkAACvAPAPw+BaRUnlLv9xU/51S4/r9VQIdilcXXPm7DgAJ/f+uK/gqwA+CuBtAJatG7nuFwEREIGYBGi6t0pHOuwe7qBWcCPQdQUg5C7/OlP+bqWop0VABEQgQwJ/NyoA/6fNf15Ku6sKwGwAvm2se8OU0cFrPy7exuf1UkKKRAREQARaSIA7nnkUabDzrPL/fi3k0USWuqgA5DTl30SdUJoiIAIiEJzAu42DPxUE+mBXcCfQNQVgh0R2+buXnGIQAREQgYwJWKdguRtaZ//9FHxXFABN+fupL4pFBERABLwQoBGfKtP9g/cc5SV1RUICXVAAuBv+MmNdG6x7g/9zl/+uqkoiIAIiIALVCczvsP7PI04Kfgi0XQEIOeX/zxqGffyUlmIRAREQgRYQWM/hjWzhFuQ/lSy0VQHQlH8qNUxyiIAIiMAAgd2MCgCP/yn4I9BGBUBT/v7qh2ISAREQAe8EvmdUAL7vXZJuR9g2BYCGff5rrFuD6/uD/8uwT7fbinIvAiLgicDFxk76I57SVzRPE2iLAkCfEMca69TgQD/sf9ryn0uVRgREQAREwJ3AvcbOel33pBVDH4E2KADLaJd/X4nqqwiIgAgkTGA+4+DPN7NFE85XjqLlrgCEnPLXLv8ca7RkFgERSJrAq4wKwH0yAOS9XHNVAGgI6iBjPRo2xT94Tbb8vVc1RSgCIiACwGbGjvsSwfNOIFcFgMZ3BgdtH//TsM/7vFNWhCIgAiIgAk8RYAdr6azPED/vBHJUAJ4XaKc/p/zlY8J7FVOEIiACIjCDwN5GBeA7M6LQN08EclQAdjHWn3FK5wna5e+pRikaERABERhD4BBjB37AmDj1k41AjgrAScb6M0wBkC1/W73RUyIgAiJgInCMsQOX0xUT7rEP5agAnGOsP4MKgKb8x1YN/SgCItAVAgsBWB3ApgB2BMBpeu6y5t83ANAD32G9//fseUDbAsAaAJYG8OwaoKxvcDvXSEO3ViOQowJwngcFQFP+1eqH7hIBEWgRgTkBrNkbwGk57S8A7vfQoT4O4B8ATgHAqfpNACw4gtupxvR45lvBL4GuKQCc8pci6bcOKTYREIFECcwCYK3eoPwnAByoB6dCQ/3/v55S8O3CUtvb+zZZcTe/Jc0tE2Wcs1hdUgA05Z9zTZXsIiAClQg8B8DGAL4L4N/GwdYyQE965lEAvwZwnVGmt1XKvW6qQ4B1ZVK5jfp95joJebzXugRAF9QKYQgsDmAVAGRMOx+cAVwHwEoA5g+TpGIVARHoJ7AcAO6wv8uhUx/V2adw/Z39mdV3LwS6pADIj4SXKoN5ALwVwFcB0KnXAxX6G/ZJvy8seX6m+Fy75p4hP1IrFhFoIYGZeo3R187oFAb6UTJo7dZ/BZYC4J9pG2NkP/NmACcD4D6KUW206nXOTH6tN2vQRl7KkwgEJTArgJ0AcF2zaqPL/b6PBSXazcilAHSz3Kvmmv3MewP3M5wZWL+qQLpPBLpMgE5Q3gHg6g4N/KXism+XCz5Q3ru0CVBLAPUqEafqr4jYz1AR4DKmggiIwBACPHPPY3vlgNi1T9okUPBLQDMAfnm2Iba5AfygoX6GG4U/BaCpDaZtKD/loWUEFgZA63k8Vte1Qb8/v0e3rFxTyI4UgBRKIR0ZVgbwrwT6md8AWCQdLJJEBJohsA2AuxNokP0DcVPff9dMEbQ6VSkArS7eWpnjzv6HEuprbtSSQK3y080tIkAretxx29Rgm2K6N7SofFPJihSAVEqiWTm40S+mkbCq/ct/ALy2WTRKXQTiEuBa/y0a/KcpP08C4ICl4I+ANgH6Y5lrTFsV6+5sW1UH5dj33QfglbnCldwiUJUAd/h/PFFNPHajH5XeS6vC1H2VCGgGoBKm1t7E43fceDeqvaVynS9ES7W2FJSxzhPgm5jVS56vRvoIgMsLr4C/AkBHQQf3vP99sjD+wb/9ev8fAeDHxdld+ha4KXLnsWHna4pfAFIA/PLMKbYlEjMVPqkfu1AWBHOqXpK1KoHn9QbTSQ3A5+8P9kxzHthzAfxih6M3PDa0KoD39xSHawIqBVRCFPwRkALgj2VOMdFJ2LkB26nPvqo/Lpo6VxCB1hBYOuKxG76tHw5gAwCzBSb4AgAf6Tn/ecxjR/OLwHJ3LXopAF0r8afzy6XG/oE1l+88Cr16N4tMuW4bAa5nh55Cp6MOuuOlS2Da824iLARgt8Il8GUeOh0eiWwqH02wC52mFIDQhNOLn5777vfQFgeVBjr8+XsxG0glnUd2r6zoKGgwnkn/XwqAMxgKIpAtgeUB3BagEZaNh9PwtJ1Pz10phdcD+JmjUSOZC/VXolIA/LHMJabveex3/gpgz2L/0jIjMk9lnW/sXwJws8d0dxyRni6LQPIEXgTgVo+NoRz0+UkrXu/JQENeweHo0fbJl3A+AkoByKesfEjKpTkfS3LsZ3h8kCeXqgYuO1JZuNdD38f0NQtQlbzuS4bA8wOt+dNgxoczaxScyutXXqp+PzGZ0sxfECkA+ZdhnRzwBE/VdjbqvuOL00A8tWQNXIK42IMcW1sF0HMi0ASBuYod95wyG9WwLNe5Keabxea++ZvIkGOa3JBoyTMNg3DgUnAnIAXAnWEuMXDQdjUrTkc9dd76R7GZvXeU2NL+y2fOHhW5rotAagS4FnaaccArK/zgJ9f510ktozXkoVvjwTxV/X+jGuno1tEEZAlwNJu2/bKFQ3tju6TC7jPMCuAcB5lovZC2DBREIHkCX3Co6MMGRXrGoxadc6C3L6uHQ55sUHAnoBkAd4a5xOBiaOy3gZYX2Qe4mD3nUWMFEUiawGYOA93g4P/fYg/Btknntp5w1iWROxwMF9WTsN13SwFod/mWueO0PdvMYH9S5X86CVq2jCjA57uNclH2nwSQR1GKgDcCnKLiBr0qDW3SPbQZsJI3ydKI6DMObNZLIwtZSyEFIOviqyw8jx1P6l9G/f6tyqnYbpy5Zz9gVPrjrssuiI25nopAgBX7Dw4Nr7/iXwJg0Qgyx07iVQ586I9AwY2AFAA3frk8vY1DO6PyEDrs5CAfjzYqiEByBD7hUKn7B/+LMt3lX6VAODV5o5ETpyZ5pEjBTkCbAO3scnrSOtP2f5EySWuhTxj7gTdGklHJiEBlAnSuQ4c7/QO55TtNas5ROdU8b7QeByTPA/LMcjJSawYgmaIIKgjP7lv6n68GlWpq5BcYZfzQ1Gj0nwg0S4Bvtdw1a2lw/c/wzZ+2A9oeVnFgRXPKz247oID5kwIQEG5CUf/c2MZi7rK3Kin7JsRZoojAUyYy+wdyy3c60liwQyxdHAW16VRE7CKXAhCbeDPpWc/bvz2iuF82KilfjCijkhKBsQS4pnq9sSKXigJPDdBfQJeCi3vSqwOdUe4CfykAXShl4EJjn7R+RDx8ky/7wDqfh0WUUUmJwFgCexsrcVnhuRFmg7EptPNHbgJycVLCXcQK9QloE2B9Zjk+YZ0BeGfEzFr9FBwYUUYlJQIjCcwL4B5HBWCfkbG3/wcXS2W0kcDBTKEegS7NAHTZboR1D8Du9aqT09081lu+CNX57HKf6QRcD/slsJ+xApeV/fcdt27nshmQDD/mtzg7EZsUgE4UM2jMp+xn6nweFxEPXfzWka28l+7PFUSgUQJzO1r8u1+OLZ4qP+tUJTuDOwEs0GgtyC9xKQD5lZlF4r2Mgyv3I81iSbDmMy83ysd2v1bNtHS7CHgn4LKJjZV4V+8S5RnhWxw6AnI8Js9sNya1FIDG0EdN2KVdxdgIuL+x3dOZWJdOS0WtNEqsGgG6+rVOX3HQurjjU//9lMnyCmNnQJbsEGJ0WP0y5/xdCkDOpVdddnrdY/uw/NGcecjAvVNWfymxLBWGzL/izpzAhsaGVTbG12eef9/i8+xxycbyeU0LXCX7ZjoqPikAo8i07zqPy1raE5/ZJCCOgxzk+l5AuRS1CFQi8FOHCnx6pRS6dRMtKdIKorWz4nMHdwuZObdSAMzosnvwKw5tiqdsnh8gx3z5cTn+G9NQUYDsK8rcCXDTmbUCc7qam18UphPgNL6LAkB7CutOj1ZXBghIARgA0uJ/13BsU+d7PmpLL37cuGtt5/S1MmeLy0tZy4DA+xwq8M8yyF+TIp7twJadCjsXeQscX4JSAMbzadOvnFm7yrFN0TmZj013KwK4zlGW77apcJSXPAnw7L5Vg9Xa//gyX85hdqUsE761yFnQaM5SAEazaeMvtJVRtg3r57UAaLPDGrYB8F8PcrjIYJVdz4nAMwTmd/Bh/ddnYtGXcQTo6MPaUZXP0cSownACUgCGc2nrVboWd5l2L9sUly9PqOmzZE0A53loz5ThV20tIOUrHwJbOlTmXfLJZqOSssO6wYFz2WGxrBSmE5ACMJ1J26/s4aE9le3qSQCcZdsTAAf4F/b2CdCN+bLFgP/G4kTOlwC4nEAo0yo/qXys3vZCUv7SJ8A1qLJS1vl8RBbrahXupkbO/WVyN4CFa6XajZulAHSjnPtzyTL/p4c21d++Yn6PaZ64n5u+i8AUAjwaY6n4dMyhUI/AD4ys+8vn0/WS7MTdUgA6UczTMskTMnyT7m8fOXynwSAaNVIQgUYJLOnQeHZuVPI8E58HwPUOzNm50eKiwlQCcgc8lUeX/jvEsT01oTBoKa9LNTThvL7D2HiodS+acL5SFm0dAFxztHY8D6ScuYZk0wxAQ+ATSJZlf6FDe7K2Q+tzX0+AmUQQgacI0NKcpSLTzr2CnYCVO8uKR48UphKQAjCVR9f+43S6j022lr6wzjNnRfJK2LXyV36NBKxGao40pqfHniYwKwA6J6nTeZT3/kUQpxGQAjANSecuLAPgNmObKttWyM9zAfBUgYIIJEPAugFw22RykK8gfGu52dBhfSbfLAeTXApAMLRZRcwje7cY2lTIgZ9xU9nX4J9VVWq/sLQ/bd1Bu3z78UTJ4WuLs8c8Tlm1A7pHu4eHlosUgKFYOnmRZrNpoKxqmwp93/GefQ90slCVaf8EXmVsJHQaJLO0/srjvRUVMW4c5KZNhekEpABMZ9LlK3y5oYvd0IP7uPgfBbAbAPouUBCB5AjQN/a4CjzqtyuTy0n+Ar2r6CzuH1MefPPX0aHR5SwFYDSbLv+yRUP7ArhPhy9YCiKQLIGdxgw4owZ/XpcBoDBFyqnLAwFc3nMe9DiASwEcoGn/icClAExE1NkbaHvj0JpLbeP6v3G/3QHgQwBm7ixtZTwbAvsaFYDvZJNDCdoVAlIAulLS9nxSwT4cwH3Gfm/cwM8jiLsDoM8PBRHIgsBhxobAN1IFEUiJgBSAlEojbVk4SG8P4BeOswL0y0HT3hsXs3QzpZ1lSScC0wl826gA0Be3ggikREAKQEqlkY8syxn7QLoipi0PBRHIlsCxxsr/gWxzLMHbSkC+ANpasmHzRbe/46b2R/1Gg0MKIpA1gZONlZ/H1hREICUCUgBSKo18ZJECkE9ZSVLPBH5sVAB4ZE1BBFIioCWAlEojH1mkAORTVpLUM4ETjQoAjw8qiMA4AjQURXPRrGMXALgm8N+1xrrMKd7Qso2K/2GjzLc2IPNlPY97pwH4EoC3A1hgXAXI5DcpAJkUlMT0T+D7xg5oF/+iKMYWEaB5Y5cBedS6q67b1qtDcaOdijMAvDlja3dSAFrU8Sgr9QgcZVQA9qyXjO7uEAEOBnV8G4QanBRvXGXhEgCvy7CeSwHIsNAksh8CtDpn6ShpVUtBBAYJaPC3tSdLG0zxGToWY9+Qk58QKQCDrVj/d4bAx40KAE8PKIhAPwEaQ9Gbf7cVgFIp+SOA+forR8LfpQAkXDgSLSyB7YwKwJ/CiqXYMyOgwV8Dfzn4l590xztvBvVYCkAGhSQRwxB4g1EBoBUsBREgAQ3+GvzLQX/w85wMrOVJAVA/1lkCSxkVADb0RTpLTRkvCWjw1+A/OOgP/s8jgykHKQApl45kC0qALisfNSoBbwwqmSJPncAGAKzn2AcHCf3fXkXiSQA8FppqkAKQaslIrigEaODD0gHvFUU6JZIiAb3529qMpZ214ZnzU6zEPZmkACRcOBItPIHjjArAL8OLphQSJLCRdvubFOY2DOQueVgvwbpMkaQAJFowEisOgd2NCsCDAGh/XaE7BDTtrzd/qxKQ6tFhKQDd6b+U0yEE1jIqAOwI+KxCNwjozV+Dv3Xw53PcLzJHgk1FCkCChSKR4hGgG1XrZq7D4omplBok8CaHOuIyaOjZdikdKW4clgLQYMeipNMg8AfjLMDNAGZKIwuSIhCBDT2v+X8LwMr6y47B6gA+CuAuY19BZW7fQHXUJVopAC709GwrCHzGoVGv2QoCysQwAr4HfzqfetawhHQtGwK0HXKPsb/ghuPUghSA1EpE8kQnsIqxQVOrPza6tEowBgEO/taloWFT9xr8Y5RanDT2N/YXZ8URr1YqUgBq4dLNbSTAt7JbjI2ag8SCbYTS4Tz53u2vwb9dlYleH4cpeZOunZsgBikACRaKRIpP4JvGRs1G/4n44irFQAQ0+AcC26JoeaZ/0mA/7PfzEmQgBSDBQpFI8QlwLX9Yo61y7TYAs8cXWSktgcQ8AAAgAElEQVR6JsBd2j6n/b+jTaKeSyiN6KQAAOzzFESgNQS4DHCtgxLAHcIK+RLQ4J9v2cWWXAqAFIDYdU7pRSDgchrgVs0CRCihMElo2j8M17bGKgVACkBb63an87UogMccZgEO6DS9PDOvN/88y61JqaUASAFosv4p7YAEfuigADwC4CUBZVPUfglo8PfLsyuxSQGQAtCVut6pfM4PgBu3qmz8G3XPTzpFLN/M+jbvq6N++daFupJLAZACULfO6P6ECbwAwEGFqc97HQf/UimgqVeFdAnozT/dsslBMikAUgByqKeScQKBVwHglP8Tngb+UgE4fEK6+rk5Ar4Hf735N1eWTaUsBUAKQFN1T+l6ILA0gBMB/M/zwF8qAOd7kFFR+Cegwd8/0y7GKAVACkAX6332eeYaP6f6fRp7KQf9/s+/Zk+qfRlYv7DY+JBHhU9GftpXR6rmSAqAFICqdUX3JUBgZgAfc/Di1T+4V/n+6wTyLBFmEOCbv8/BX9P+M9h28ZsUACkAXaz3Web5FQAu9PjmV0UBSNHvd5aF50Fo32/+Gvw9FErmUUgBkAKQeRVuv/izFlP9nwTAs/lVBm1f93B5YfH2480ih74Hf037Z1HswYWUAiAFIHglUwJ2AisBuCzywF8qELvbxdaTHgn4Hvy/BYD+IhREQAqAFAC1gkQJ7Bxhk1852A9+Hpook66JpcG/ayUeN79SAKQAxK1xSm0igTkAHNvQW/8lADadKKFuiEFAg38Myt1OQwqAFIBut4DEcr8MgMsjD/7/BPAFADQmpJAGAXbMPnf7a9o/jXJNTQopAFIAUquTnZVnXY8mfAen9Af/v7qg/GkAPFmgkBaBnAf/5wFYE8A7AXAJi5tX3w9gWwBvAPD8tFB3XhopAFIAOt8IUgDADvLRwG/+TwI4AwB9xs+UQqYlwzQCuQ3+swPYprdkdVPF+ns7gJMAvBfAPNMI6EJMAlIApADErG9KawiBPQOa8uWb/wMADi466RcOSVuX0iGQ0+BPV9FcVri/4qA/OANV/s9ljh8AWCGdYuiUJFIApAB0qsKnlFm+hX/dsQMtO9JhnzzHf0iRBqdlFdImwOnxHNb8FwHw/QBOp+jL4tQibvq2UIhHQAqAFIB4tU0pPUOA57BpiW3YwO167bFe3DLi8wzupL/wbfoej3Uh1Ia/HSPsUaEStIfsFESrr1IApABEq2xK6GkCHPy/5rHD71cYzgWwnEBnReBnHutCiMF/TgAneJSxv76O+n4mgAWyKsU8hZUCIAUgz5qbsdRfDNCZ3lu8Re6qzX3Z1YrFPO7/CGHel14nzwtQX0cN/P3X/wXgRdmVaF4CSwGQApBXjc1c2gMDdKZcO100cy5dFZ876PsHPev3EG/+CwK4wpN81nzxZMELulo5IuRbCoAUgAjVTEmQwPs8d6bc5PcBoc2awG4e6kSIwZ/T/rE9T45SEmioShtZw1RzqwLwXwAXJ/Zn9ZlyWxi0ilUEZhBYy/M5/+sBrDojen3LlACPgI4a+KpcDzHtT5THOcpVRfY69/wWwMyZlnHKYlsVgDpll/q9UgBSrqEtkG1Zz7u8f1Qc75u7BVyUBcBFAQjx5s8y2SGxwb8cQPZVhfFOQAqAlgC8VypFOIMA11Gv8dihHqQjUjPgtuCbVQH4eaB6sLBnZbUcvH18PgLgZS0o85SyIAVACkBK9bFVsvC4H48z+ej8ngDwoVbRUWZIwKoAHBYI3zGe6quPOj8sjrMC5bur0UoBkALQ1bofPN8+NnixE+SbzxbBpVUCTRBISQGgqejHE1cA2B5e10RBtTRNKQBSAFpatZvNFl3rcuAe9hZT5xoto9FLoEI7CaSkABzpob6WdfuvxXT9iT1T17T1zx3jdEZV/u7yeXo7q0IjuZICIAWgkYrX5kR5hIpHl1w6OT5L74AbthmU8pbMEgC9+t3nWGep8B4KYKkR5UpXwAcA4BEyl7bBWQr6JFBwJyAFAOCJKgUR8EaAu7NdOjg+y05uM28SKaJUCaQyA7CVY53lRtflK0KmYR/OELi0kY9WTEu3jScgBQD443hE+lUEqhN4vQfTrvSMtnX1JHVnxgRSUQBcNv9dC2ChmmXAWbJLHZSAX9ZMT7cPJyAFANh/OBpdFYF6BJ7tyXSqKmQ97jnfnYoCcKNxMKbnyVcYC2BJh2UHLiOwvSm4Eei6AsB6JDPqbnVIT/cI0FCJy7Qmnz0l0PluFVKaBFJQAGirwlpv6dXSJbi0Gavi4SJv257tugLwwbYVqPLTDIEXA6BtfmtHyue4LjpHM+Ir1YYIpKAA8Fidtd6+1JHbfAA4i2BJf3PHtPU40FUFgCdS9lIFEAFfBHg0ydKJlc/cPWb3tC8ZFU96BFJQALjfpKyHdT7/4Qkn7fzXSbe8l3Y2FNwIdE0B4MmqMwoDba9xw6anRWAGgdWMHVjZkfGTu7AVukcgBQVgZ2P9Pc1TcX3DmP5nPKXf5WisCgDdRPPZnP5eDoCbTxVEwCuB3xk7sFIBON6rNPlGxnPiKwOgEaWuuH9NQQHgkbqyLtb5pCdCH4EDeZ10y3sP9pF4x+OwKgDndZybsi8CTxF4k7HzKjsx7r6et8Ms6S9h+xGnJ+4BcH7h+fAQAG9vqVKQggLwPmMdPtVTveVGwrI91PmkUSEFNwJSANz46ekOE+DgRROndTqtwXvZALsauOGxjrMkOkQ6BwDfWNtiCS4FBWAbYx2+zFPF/ZUx/T08pd/laKQAdLn0lXcnAhsZO65SCfihU+p5P0zliZtxShZ1P7lznPxoeCnnkIICQIZ1+Zf3L+0If56eyesyvjqf2jfjCL+3hl+HeXmvlgDc2SuGzAlY31zYiB4EQEMoXQ3Wt86yA+r/5KzAWpmCTEEBWNhBAeDyjEv4hEPaK7kkrGefIqAZAFUEETAQoN1zmuztH4jqfN/PkGabHrnAgd0ozjyKSTvzOYUUFADyusVYHnQAtKwR+GIAuM9jVHmOu06bG881pqvHZhCQAjCDhb6JQGUCLg5/rgMwW+WU2ncjj+JwPX9cB2/9jTMrXBueKRNsqSgAdNlrZX41gAVq8qb3wYsc0vxNzfR0+3ACUgCGc9FVERhJgKZTH3LovHYcGXM3fqDVROtgU/W5szOx8Z2KAvAuxzKh++tlKlbfJTxsntUGwIqwJ9wmBWACIP0sAoMEPu7QWfLYX9edmHAAqDqQu9x3BwAaaUo5pKIAcFaGjlFceHNa/ktjFC8qzrT9f79jOjTjunjKhZqRbFIA0ios2kLZEMCHiiWugwAcBeDYwkrs94pZtiMAfB4ADXet3dJj0WmVxghpLnHowD48Is4uXeYJgP84MKwzSHFQSnm3eCoKAOvfdz2VCffGcHr/+4Vviy8X+zLoavhcj8s+Z3WpsQTOqxSAwIAnRM+j0LRxwrZyk6H9XQmAdjSoNMw8IS397IEApznrDED9997W8bX/fvxfd+DYz7TKd74x7tSfeELfU1IAuJmPrKowbfIevv0o+CEgBcAPx7qxrNh7u3edDetvhxxfqHBzhlUhEIFPO3SQ+wSSKcdoeQTSZ+XvbwjDvvOtNEUlICUFgPXoRIf6PYy772s0u63gj4AUAH8sq8TEgZ8+NFxOkE1qU3R4RDPdS1URSPfUI8Adz5MKYNjv3PW+aL2kWn/3Zg6uYIcxnnSNb7ebJkY1NQWAa+sxFbNJZdb/O40/0aGLgj8CUgD8sRwXE829cw0/1Omn/nZSfueJKLo87vqes3HlUus3Oqkp4db9/FmtlLpz8zoAbnDgWrccuNHt1QnhTU0BIBruU6nLNcb93ACl4JeAFAC/PIfFtmbkPm6wLf61mNl72TDBdK0eAU7hD8Kt+j/fdhWGE6CGSp/0RwPgBssHHDhXKQ8qHPMNFyX61RQVAG7SpKOfKixj3fNHALNEL532JygFIGwZ87hqzLf+Ue2Rs3pbhs1q+2P/vbFTvL04vjFr+/F4zSE1Vnqp48wJp35HVWzr9R97ldYeWYoKAHNDG/1/C8DdUl7Xa/nMXsEmPCkFYAIg48/ckc91eEt9D/UM9x3wCLuCgQDPSXNzhaVwvmFIT4/MIMDz43sDoCJl4T/qme1mJNHYt1QVAALhnpVrPTMfVRajrt+p6cugdVMKgH+8HPyPb7jdjGpPvP45/1luf4wbOxQovQYquBOg+dj9e46UxlXwqr9xcKlrwtY9F1NjSFkBoKS010+3v1WZ+ryPb/5au5xaX3z/JwXAN9GnlzJ9toMQcWkmoGa5H2bsBLkTs8t2/2tirnQ7TQlfaCyPwcZ0ZKUUw92UugLAnHO/xM898R7kP+p/rvnr1Ey4elfGLAWgJOHnk7vuR9XplK5zOWALP1nuRix/NhbsT7uBJ3ouuSGMg7dro3q8mK57SXTpZySYgwJAabkxcHdHHxhVyor7PbjbXxv+ZtSRkN+kAPiju24mhrTKdsiNgS/1l/32xsQNfDQpW4Kr85mi8Zk2lZTLyYyyHOkJr6mQiwJQ8nkhACq1JTufn7/VOf8Sc7RPKQB+UHMp0epS22cbqhvXpdqgPrkCrODQ4VX1kDZZCt0xigD3BdSt+P3385hOU1azclMAyjKgLQWepHA9oUHjTL8AsFYZsT6jEpAC4Ac3jzD39yk5fZdnzQl1gLvFLQV6b0Z+6ScgSP7n44xlVJbrFxrKYa4KQInreYVjp48AOLOG/QbOptFdMzseefUrSTbzKQXAnfvqAUz70r32t4ult88A+EDPONdne06D6FG27Ld8fNLuitrhmHpwqBH4b8bEqZ/8EuBGyyuM5cRGxBMBTdhqyF0B6C9F8qOpXno3260oC87M0KUpOzHuH+Cmo1cCeE7/Q/reKAEpAO74uXTlayDmET065RoXuB9nZQCHOxxNH5T3m+MS7Ppv1gI+sOvgIuef09Lc1DdYuav+v0FkeZlcmxSABvApSUcCUgDcANLMb9X+Zdx9RwFY2CAK9+RwKW5c3FV+e6R35NcgQvsfsRpDeVv70SSXQzakKhV+2D2ccosdpADEJq70+glIAeinUf/7Dx36G/ZBXA7btn6y057wYXJYL6zTsAIzOUyzyHPZEKCBLy3icGKDlgY5vRYzSAGISVtpDRKQAjBIpPr/3P9itQ7Lwf8hAK+rntzEO7n0xk21w15uqly7SXvWpjOmMZIq8IbdQ/PBCvEJ8E1+WHlUuTZp/c13bqQA+Caq+OoQkAJQh9bUe3d06GdoiGerqdF5+c/an5R9I20ZKPQRWNVYyNxUptAMARe3zXRAFDNYGywtUyqIgCsBKQB2gqcbxwYOttzAFyq4yHVIKKFyjfcdxkK+KNcMt0Tuq43lVmrCqX9KAWhJRW04G1YFIPX2kbJ89wT2QULrflb7HDQMpNBH4MPGgeTkvjj0NT6BrxrLLeWOo182KQDx61QbU5QCYF8u7G+Pdb7Ts2no8C1j/8eliXlDC5dT/J8wgtS5ymZLeXNjudVpyE3eKwWg2frVltSlAMRVADjALhGh8rgcT3xtBPmySeLTxoHkK9nksJ2CvshYbk0O6nXSlgLQznobO1dSAOIqAHQqFyPw9BpPNdXpU8p73x1DwFzS+KIRIs02KjRHgN7krOtgZUNI+VMKQHN1q00pSwGwDZLWvuHLESvPKcaxa7+IMiaf1BFGiNzdrdAsgVuNZWdt3DGfkwLQbN1qS+pSAOIqALtGrDjWfVAxlZSIOGxJfcc4iOxiS05PeSTQ5pMAUgA8VpQORyUFIK4CQH8YscInjWMXrakq9AhY3TzSQ5pCswToUSvmW3nMtKQANFu32pI6Db/ErLddTyumAkDzwBbePEGg0COgJYB8q4KWAPItO0keh4BmAGyDpGVg5TM5LAEcHKfq5ZHKl4xa1AF5ZK+1Us7saKfb2sBjPacZgNZW3agZ0wxAXAWA40ms8CPj2EU33go9AtZjgNKimq1CdJMZazBuIh0pAM3Wr7akrhmAuP1ELAuxPAZ4m7EPfG9bKrePfMgQkA+K8ePYzFj5mxjMLWlKAYhfp9qYomYA4ioANAS0eISKRC+Dln6Fz6weQb5skrCaAqafaIXmCNCphbUB5PCcFIDm6labUpYCEL+fiHFE/Ehj/0cFZf42VXDXvHDXpmVAuMA1YT3vROAfxnKzlHUTz0gBcKoeerhHQEsAtv7dpc3TGVDIQdbFGdDf1TKmEqBdZEth3zE1Gv0XkcCKxjJjOe8cUU4mJXfAkYEruSkErDMA502JpZv/uLjdPTQgsp849H80HqTQR2AxI0xOpczRF4++xiNgnf6iArBMPDGfSkkKQGTgSm4KASkAU3DU+mdH49jAfobjAx2W+Q67O8hEud7kW6Dc4+NxMqtN+eVyz3yG8i8E4EFjI+Cu2WdFzrMUgMjAldwUAlIApuCo9c+CxQzeI8a+hoPtfwG8plaK429+C4AnHOSh3RSOdwoDBK43Qt10IB79G57A141lxQbZhAUsKQDh64RSGE1ACsBoNlV+OdGhv2Gfw5eVd1RJaMI9ND3/uKMs8gEwAvLvjWA/PyI+XQ5D4JWOjaCJ6S8pAGHqgmKtRkAKQDVOo+5yOW5HBYB/XA44HMACoxIZc30JACcYx6cyfX5ylnvJMel0+icWTj+sqt9/1WlqcTP/HADcwVq1bAbv46bNWeOK/FRqUgAagK4knyEgBeAZFOYvZzv0O/39EE8H7A1gqQqScK8SXdU/5CltOr1TGEGAlpH6C6rqdxZo7DXlEVlo/WWr06ayLL/QECEpAA2BV7JPEZAC4F4ReFKMb/FlX+Lj8xIA3JH/cQDvBPAuAPTu9zUAvo84U4l4gTuG9sbAqWVrob6svViSyZnV7WVZptw409T0lxSAZKpRJwWRAuCn2K1u48s+qMnPffwgaG8sz3bY7blDe7EkkTPXYy9seMc1mBOrAsBlKQURcCUgBcCV4NPPc/3+FocXxaYUgMsBcPlUYQIBTslYCunUCfHqZxsBHlehNTxLmfQ/w52zL7aJ4OUpKQBeMCoSIwEpAEZwQx5bB8CTHvqk/v4p5HeeQFh+SD50aQiBI4wF+4A0rCE03S5xveqPxvIYbFBHuYni/LQUAGeEisCBgBQAB3hDHt3LU7802E+F+H+7IfLr0ggCNLJgLYQmjpeNyEbWlzlVxQGTSpW1LPqfu9N49MYnRCkAPmkqrroEpADUJTb5/u966p/6+yrf3/ebnA3d0U9gbgeLgJw9ULATmK8wmLEHgJs8N6wUNGApAPZ6oSfdCUgBcGc4GMMsAFwNBPke8Pvj0/6hwRKr+L912pkmFlkpFKoT4Lo8N1Ce5rABs7/SD34/pbooQe+UAhAUryKfQEAKwARAxp/Z36c4E/BpY370WLHB41MOb6CbiOBIAjTAsyWAbwO4CMB9DpwHB/ph/9O0M2cVUghSAFIohe7KIAUgbNlzT0AKGwN51n/7sFltf+x03DBsQKlyjW+yCtMJrAXgWgeuVdj330MHHCtPF6OxK1IAGkOvhIvNtFYF4HzRq0zgDQBujtjH9fd3/H4VALpIV3AkQKt+1xgLksfNFnFMv22PbwzgUSPPwUpe5X9q4m9NDKIUgMQKpGPiSAGIU+DzF/0/3ZTHnA2gp8LPAZg9Tha7kQqBVhlsht3Dzl7haQKLAbjXgeUwvuOu0VTnTgnClwKQYKF0SCQpAHEL+9WFC+AzA/d7tGzKTYgvjZu1bqS2nEPh0VLUc7uBaWIurXYVxg3yo35LdfAnJCkAE6uKbghIQApAQLhjol4FwPc9OvNh33c3gG9q4B9D3dNPlzooAR/wJEPO0XAp5S4HhqMG+mHXHy7WwLZKGJYUgIQLpwOiSQFotpDnBbAtgJMB/NvQJ95YeA/8HoC3y+BcvILkmfRhg02Va9yB3oTb2Xh0JqdEH9ZVWLneczuA1SaL0+gdUgAaxd/5xKUApFUFXgJgiz7Pf8cDoDn5H/UGep7hp4dA7p9aOi3RuyPN8xynbuheuMuBldx1cJ/0/G8ALJoBZKsCQD8ICiLgSmA9Y1s8zzVhPS8CORNwcf/IkwRd3gswJwBuVJk0iFt+p4MLegicKZPKZVUAZM0rkwJOXEzNACReQBIvTQKvcBzAuu6D+QJHfsOUg58W02RLpVldRkolBWAkGv0QgYAUgAiQlUQ7CZztMIjRIM3i7cRSKVdbO7AbHPzPAUCDQjkGKQA5llp7ZJYC0J6yVE4iE6B538HBqM7/J0SWN6XkeBLgdAd+j/V2zuY68JdlIQWgJKHPJghIAWiCutJsBQGuM7scCeT59LVbQcKWiTkAnFVDCeC+gT8UBoQ+2iKrilIAbHVHT/khIAXAD0fF0lECG9UYwIbNDvBY4DwdZcdsU4mibYR/DeFIS4HcK3AogM0BLNRCTlIAWlioGWVJCkBGhSVR0yTAt9Jhg3vVa7QI1fXAJQEeD+SxpNULi1YLdwSIFICOFHSi2ZQCkGjBSKx8CKzhqABQUaAlJ4XuEZAC0L0yTynHVgXgyp6yToU9lz+e3Jo7JfiSpT0EznBUAmgGssunAtpTE+rlRApAPV662y8BqwJQdXYztfu4efgXGVgI9VvKii04AXpeot15lwp/MYDZgkuqBFIiIAUgpdLonixdUwDK/pkbsLtui6V7tT1wjvdzVABYOenGkevhCt0gIAWgG+Wcai67qgCUisCHUi0YyZUfgWcXjhy4NlZWLuvn3vllXRIbCVgVAPkCMALXY1MIWH0BWPu21J57SEuvU+qD/nEkwHP9nF5yqehPAniHoxx6PA8CVgVAvgDyKN/Upez6DAD7ac7cKoiANwIujoJKxeFRAG/2JpEiSpXAJ43KohSAVEs0L7mkADxtXCyvUpO0SROYC8DVxo69VAD4yU2F6yedUwnnSkAKgCtBPe9CQAoAQGNsCiLglcDKAPgW3z+gW75zjarL5oK9FkqCkVmXALQHIMHCzFCkru8BYJ98e4blJpEzIPBxDwoAKyh93NPxkEL7CEgBaF+Z5pQjKQBSAHKqr1nJ6urxrn/GgI5waDNfoV0EpAC0qzxzy40UACkAudXZrORdEMA1nmYCqBB8VnYCsir/ScJqD8AkQvo9JAHtAZACELJ+KW4AywK4x6MScAKAOUW2FQSkALSiGLPNhBQAKQDZVt6cBF/L06bAclngKgAr5ARAsg4loCWAoVh0MRIBLQFIAYhU1ZTM+z3OAlAR4AmBHYQ1awKaAci6+LIX3joD8N/CTgl9l6T0d5mxf9UpgOyrcT4ZOMhYScs3/2GfJwFYOB8EkrSPgBSAPhj6Gp2AVQE4L7qkkxN8obFvlQIwma3u8Ejgi8aKOmzwL69xj8GuAGbyKKeiCk9ASwDhGSuF0QSsSwBSAEYz1S8iMJYAjwceEUAJoDLwh96mw7EC6MdkCEgBSKYoOimIFADtAehkxW8601QCvhFICXgMwFEAFm06k0p/IgEpABMR6YaABKQASAEIWL0U9TgCnK7/eiAlgLMBtCDI5YYFxgmh3xoloD0AjeLvfOLaAyAFoPONoGkAe3lwIVzuBRj2eS8Abj5cqumMKv1pBKQATEOiCxEJSAGQAhCxuimpUQQ273n/GzaA+7r2JIBf9/wKcAlCoXkCWgJovgy6LIGWAKQAdLn+J5V3auP3BVwS6FckaEhoPwDLJ0Wge8JoBqB7ZZ5SjjUDIAUgpfrYeVloNviKSEpAqRBc2fMxsGLn6ccHIAUgPnOlOIOAFAApADNqg74lQWAOAMdFVgJKZeBCABslQaEbQkgB6EY5p5pLKQBSAFKtm52Xa+cI+wLKgb//838ADuw8/TgApADE4axUhhOQAiAFYHjN0NUkCKwE4PKGZgNoWVAhLAEpAGH5KvbxBKQASAEYX0P0a+MEZi1mAjhQPBJZEaDDD/kYCFv8OgUQlq9iH09ApwCkAIyvIfo1GQKvKNbnL4qsBNBGgUI4ApoBCMdWMU8mYJ0BOH9y1NHvkDOg6MiVYGwCMwPYrXD8Q+c//ev2ob7/MnYGO5aeFICOFXhi2ZUCoBmAxKqkxKlCYP6edb+HAysCl1YRRveYCWgJwIxOD3ogoCUAKQAeqpGiaIoAp71OCmhK+IKmMtaRdDUD0JGCTjSbmgGQApBo1ZRYdQi8GsDJAJ7wPCNAZ0UK4QhIAQjHVjFPJiAFQArA5FqiO7IhsDSAwwBwB7+PfQGrZ5PzPAXVEkCe5dYWqbUEIAWgLXVZ+egjQBfARzsqAWf1xaevYQhoBiAMV8VajYBmAKQAVKspuis7Asc7KACPA+CxQ4WwBDQDEJavYh9PQDMAUgDG1xD9miWB5zkaDvpSlrnOT2gpAPmVWZsklgIgBaBN9Vl56RGgAR/rHoA7AcwlklEIaAkgCmYlMoKAlgCkAIyoGrqcK4FnAbjOQQH4RK4Zz1BuKQAZFlqLRJYCIAWgRdVZWSGB1RwG/7v09h+1EmkJICpuJTZAQEsAUgAGqoT+zZ3AoQ4KwD65Zz4z+TUDkFmBtUzcNs0A8Ai0Zdnz9paVqbLTYQIzAbjZ2BAeBbBQh9k1kfU9jGV1VBPCKs3WEdjQWP/OS5CEFIAEC0UixSWwqrFBU3M+Ia6oSg3AB43l9WfREwEPBD5lrH+/8pC27yikAPgmqviyI2Bt0FQA1s4ut/kLvKWxA2Z5bZN/9pWDBgksCeBuY/1L8WVBCkCDlUlJp0HgD8YGfRsALh8oxCWwkrG8qADQ78PhANYHsLL+xKBiHaB5748C4IZf1iPL3/5xm0ml1KQAVMKkm9pKgGf3HzM2aDn9aaZWPAfAg8Yys3TcesY24InbVG4bN9NcxqYqBWAsHv3YdgLrOAwk3A2s0AwBrqdqgBGDXOoANwunaChMCkAz/ZdSTYQADfhYOpGHATw3kTx0UYwdjOVmKWs9Y2sj4jaD208SbaQvNLYjHQNMtEAlVj0CJxkbwNn1ktHdngnwbcq6GUsD0yE1qUAAAB7pSURBVIyBSSzisNjIc/33FZ1mAHyRVDxZErjaqADsm2Vu2yX0Z4xlp0EvzqAnzk9zvgQATY2nGKQApFgqkikKgWf3doVbOqo3RZFQiYwjMDuA66UEmJawLHVez9RXnP6X+FFhLQGM62H0W6sJvMRh8Fis1WTyyRytsrGT1eAkBinWga8l3pQ0A5B4AUm8cAQ2MA4c/w4nkmI2EPi8sRxTHDAkU3sUmQsB8MhqykEKQMqlI9mCEviAceA4P6hUirwuAa6vft9Ylhpw2zPgplSW3FuUg48QKQB1exvd3xoCVhPAp7SGQHsyQouMNMyU0iAgWbpZHtz0t3AmTUsKQCYFJTH9EzjEOGAc5l8UxeiJAO0DyEpgNwfeFBSu7wDg5tRcghSAXEpKcnon8D2jArC3d0kUoU8C3Nn8M2PZpjCISIb8FJirAOR4MkgKgM+eR3FlReBU4yCxa1a57K6wr+m5a37IWM4aiPMbiGOWGU+f0JHY1gBmzrSZSQHItOAktjuB04wDw/vck1YMEQnQauAmAL4M4OcA/g7gup4lQVoTbOKP9guu8fh3rbEuc8D0lX8yrZMnmtO2DNi31kynjkzj7r0SwO8AHFnYn3gPgCUi1uFQSUkBCEVW8SZP4HRjB7Rd8jmTgF0jQKNWlsGUz8zSEKw/GWWmK2cFPwSkAPjhqFgyJHCGsQPaPsO8SuR2E5AC0O7yDZU7WQIMRVbxJk+AHrosb00fTD5nErBrBKQAdK3E/eRXMwB+OCqWDAkcY1QAdsswrxK53QSkALS7fEPlblljH3gXgFlDCaV4RSAGAZ7nt8wAfC6GcEpDBGoQkAJQA1bHb50TwI4AzgLwiLEPZL95D4ATAbwl41MQHa8K3c7+AcbKf3S3sSn3CRKQApBgoSQmEk8t0DnR/cZ+b9zL0k2FMrEnAJ64URCBLAhwLX9cpR7125lZ5C4/IRctdqRzduVvAB4F8DiAS4u3i88WR68WyS87USWWAhAVd1aJzQvg8F6bGtWn+bpOR2kfa/BkSVYFI2GbJfBmowLwj2bFbmXq2xQdx31jyoPTjVu0Mud+MiUFwA/HtsWyFYDbx7QrXwP/YDxU4ldpG0zlp10EXmFsGHwzZYer4IcA7So8WaEsngDwdj9Jti4WKQCtK1KnDHEqvmkPmY8B+AQAeutUEIHkCMwNgOY8B7XXKv9TeVBwJ7BqzY1ItFqXg5tVdzL1YpACUI9Xm+/mWj/fwKv0YzHuORnAbG0GrrzlS4AmWS2NQNYA3cucLlO5eagu//3dk25dDFIAWlekpgwtB4Cmkuu2qdD3nwdgHlOO9JAIBCTwU2NjOSqgTF2ImmeI6UjF0vHQ37rCVAJSAKby6OJ/HPybWO+v2oYvkBLQxWqZdp6tRwGvSDtbyUt3sHHwZ2fzYPK5iy+gFID4zFNKkadkbnRoU1UHcdf7zpYBoZSqjWR5q7HRcO/AYsJnIvCGipv+RnU2UgCmY5cCMJ1JV648B8CFxn5sVBsLeZ3eFBVEIAkC8zsMRnILXL8IuQ54g2NnRdsAClMJSAGYyqNL/x3q2J5CDvaj4t66SwWkvKZN4K/GBkRvggr1CPzAyLq/IzmwXpKduFsKQCeKeVom13M4ydTfpmJ/p10PGv5SEIHGCVh9AtBa3YKNS5+PAJt6GPxpxnTxfLIcTVIpANFQJ5MQp/7/6aFNxR78y/ROSoakBOk0gTc5NKJdOk2ueubn8DD1z45jh+pJdupOKQCdKu6nMruHQ79VDsLlJw1xnQ/gkwBeVxgRopvg5wKg46BlAKxb/H8QAFpBLZ/x8fn67hWbcpwaAXae9xorttajq5XmF418+zsZWjZTGE5ACsBwLm29yoGZLnn724flOzcz06Pfi2qAooJwroe0Ke9va6SrW0UgGAE2AksD4jNrBZOqHRHzfDLNglr58jnu05A1sdH1QQrAaDZt/IUOd1zaE5+9DsBrHOBwI98DHuRYzUEGPSoCXghs7lCRf+ZFgvZGwrO/Lp0VNwzVeUNpL8nROZMCMJpN236hbf2rHNvUHz2Z1F4RgNWaatknaGavbTU0w/xwQ81/jI2K02jyDTC80LlLuWzolk+yfcvwqHW1j4AUgD4YLf+6hmOb+rPn2bQXALjTQaaHANAvi4IINErgaw6V+PRGJU83cW4ssgz85TNfTzdrSUkmBSCp4ggqzCEObeq2QKdoqJTwVFTZbut+viMoMUUuAhUIrOxQgVnhuTlGYQaBzRx50lGQ3gxm8Bz3TQrAODrt+u1qh3bFNhkq8JRA3YG/vP/YUEIpXhGoQ+BPDpWYU2sz10msxffOBOByB5bsGDZpMR/fWZMC4JtomvHRg2Y5aNb9ZN8WMswL4N9G+a4NKZjiFoGqBN5mrMBlY/xw1YRafh8H75KJ5VNGQupVECkA9XjlerdLu9ogQqbpqtvS3vkMlRsFEWiUAN/g/+VQiWlPQJbqgN87MLxbnUHtNiAFoDayLB/Y09iueJKGLrhDh5cb5aMCQCdhCiLQOIGdHCoxK/JvAHAKvKvh1Y78aI1MoR4BKQD1eOV691HGtnV8xAz/n1HG7SPKqKREYCQBasrWSlxOf9FMZ1eDi1GlWwHM3lVwDvmWAuAAL6NH6YCs7GPqfMbsj04xyvipjMpBoracwDuNlbhslI93dEprIUerfx9qeb0KlT0pAKHIphXv74z9EvuzWMHqXI3mwhVEIAkCnMKnnf9yQLd80jjGkknkJp4QLiZKuROYA5lCfQJSAOozy/EJq12NN0bM7D7GfvOIiDIqKRGYSIDn+mmJzjL4l8/8HQCPx3Ql/M2B13u6AilAPqUABICaYJTWGQCaOo8VvmTsA74cS0ClIwJVCRxjrMylAsBPau10h9v28CoHVpwtoTlmBRsBKQA2brk9Rb8j/X1L1e8x3Zb/wCij9gDkVhs7IC/XtK0+Avob55k9/9ptRnaoseGT0+fbDCZC3qQARICcQBK0mNffr1T9/tWIsluXKT4SUUYlJQKVCdDtZdWGNu4+no2nH++2Bq7hj8v/qN+eAECHIgp2AlIA7OxyetJqaIe2TWIEvjCxPY9q6+OuxzBUFIOB0mghgZONlXqwwp8LYMEW8qFb0MG8Vv3/py3kETtLUgBiE28mva0c2tnyEUTmWf6q7X7wvhdGkE9JiICJAAdtnlEfrLSW/2lj4KUmKdJ9aD8HNm9KN1vZSCYFIJuichJ0WYd2RiNCIQNPTv3FKB8tFXbZeFrIclHcngis6XjGvV9ZoLnbNvm5v9jY8O+SAyUvtVMKgBeMyUfyLIcXEdomWSZgDrc19gHsF08LKJeiFgFvBFzOufcrAPzOI4Y8MhPDRrc3AEMi4uyI9bjk0UPi06X6BKQA1GeW6xM06zvYl1T9n2bKZwmQ8ecBoPvuqnIM3qcNgAEKRVH6J0AN3MXU7WDF5/80OMQ19FzDpg4N/825ZjoxuaUAJFYgAcVx9Vjq+0QA694fHPqAJwEsEZCXohYBrwSeC+CPDhV+mBLwWDEV/tlM7eB/xcji/g4cjfRa8cZEJgVgDJyW/cSy/rexzZV9z96emLAv/KGjLGd7kkXRiEA0AgsA+KdjxS8bY//njQC2BMCZhlzCRUYO7DgU/BCQAuCHYy6x8C2+v9+wfKfBHg7g1rAYAGvb75d3G6sAek4EmiTAYysu6179jWDw+yUANslAEeD5fW4uGpS/yv87NFl4LUtbCkDLCnRCduhj5FFju+tvm7QPwKOFdV44ZgNAl93cud8fl+U70w+xJ2ECPv0sAn4IvATALR4awqjGw2M1tJGfmpnclQFwMxKXLkbJPul6jHPJfko5/VikAKRfRr4l/I5D2xtsm/ThsSeA5UYIOTOANQqT5rTXf7PHdPUSMAK4LudD4GUOR3MGG+Ko/+/oNb4VGsQyP4APArjQQwegc79+C1IKgF+eOcS2KID7PLTFwT6H+wsuA3AWADofugrAgwHS4eZnKhYKIpA9gRcBoIGfwcYU4n96GOSGwVUjGM/g7tz3AzijeEN4xGP+fpl9iaeVASkAaZVHLGl29dgmQ/RVo+Lkzv/VYkFSOiIQg8DCAKwGcUY1lEnXqa2f3luTewMAnse1htkBrASA5jy/W2xG/EfAzuXTViH13FACUgCGYmn9Ra6fuxzBm9S/hPqdJ4cURKB1BOjshwNyqIZTJV4qBfTI9RMAR/RmC7hpZ7di4w7fGPh9HwCHAOBOYE7z0ZEPtfIq8fu4Z+PWlXyzGZIC0Cz/JlPnbny60/bRLmPEcQEA1lcFEWglAdq0pteumANqjIbrMw3um1DwR0AKgD+WOca0juclOp9tvT8ubiDkCQYFEWg9AVq5o83//gag708rRqmdasi9MkoByL0E3eV/R+IvHdz4+wr3bCoGEciHwOIAfi0lYIoSRNsJCn4JSAHwyzPX2N7tYJcj5MsJlyVfmytUyS0CLgRoZINr7w9JEXhKETjHBaaeHUpACsBQLJ28yJnHEMf2rArCDYW5YLoxVhCBThNYunecztqQ2vIcTxgo+CUgBcAvz9xjo0GfKxJ44fgtgOfnDlPyi4BPAvTmRa24LQN63XzQBbKCXwJSAPzybENscwE4xsFVd9123X//w4WVUDoc4oZoBREQgQEC7LB3BnBbBxWB/QZY6F93AlIA3Bm2NYbX9yz79Q/QIb/zrV9T/m2tTcqXVwK0G7AvAJr6DdkoU4p7d68EFRkJSAFQPRhHgAaD3gXgyoD9zG8A0BiZggiIQE0CdMu5U+AGmooS8IGabHT7ZAJSACYz0h1PT8lvCOAET5uSaYDocAB0DqYgAiLgSIAnBqhFc+3ugYDaepPKwHaOjPT4dAJSAKYz0ZXxBDj7yBMDtAhKB19VHAtxppJT/DR0Ru+AcuU7nrF+FQEzATZQDpanAvhvQsoAnQKdDeA6o0ybm4nowVEEpACMIqPrdQhwxz7f5tcDsCmATQCsDeCVAOatE5HuFQER8EeASwQb9abb6EbzCePga33zvxrANwC8BQAVEwarz4Ote8/rwx+BWR3qQ1NvcX8yysz6/xJ/6BSTCIiACORFgEd83tg7anN8MTD/pXDyw6M31gG+fI5x0P/3jwHsBWB9APONQHOKMb33johPl+0EuqQAsK7eX9TTrey49KQIiIAItIsAz9zSM9gqvam79/U8/x0A4KCeZ0C+xfM7j+LRKyCPItKG+KoAFqmJgxuJSsWhzuf7a6aj2ycTcFEA+GwTwToD0F/XvlnUZ86OKYiACIiACEQkQIt+/Z1x1e8fiyhjV5LKUQGgSeiqdWbcfVoS6EotVz5FQASSIXCwsQP/fDI5aI8gOW4CtM4gDVMGuCSgvSXtqc/KiQiIQOIE9jQqAEcnnq8cxctxBmAXY/0ZpgCU147UkkCO1Vcyi4AI5EaAhovKjrfO55m5ZTQDeXNUABYK5LWOSwIvzaDMJKIIiIAIZEvgrUYFgCcWFPwSyFEBIAHuB6mjPFa9V6cE/NYvxSYCIiACUwjQOEjVDrn/PnbOtHio4I9AjnsAmHvWg0ON9ai/To36fiyA2f1hVkwiIAIiIAIkQMtgozreSdcXF0KvBHKdASghfLSwO/GoQ30aV9+0JFBS1qcIiIAIeCRwj7HTXtejDIoqT2+Ag+VGE7TXGOvTOAWAv3HWaZvBBPW/CIiACIiAncCfjR32R+xJ6skhBHKfASizRKuTpxnr1CQlgL/rlEBJWp8iIAIi4EiAR/qqdLyD9xznmK4en0og1z0AU3Mx4z9aqAy1JHAFgOVnJKVvIiACIiACFgJcux0c3Kv8/y9LYnpmJIG2KQDM6Ku1JDCyvPWDCIiACDROgGv5VQb8YffU9T3QeGYTFqCNCgBxzw3gZIc6Nqze9V/TKYGEK7VEEwERSJsA12yfNHbQm6Wdtayka8segGHQeVSQ9gJCLQn8VYaDhmHXNREQARGYTOByowLADVkKfgi0dQagn46WBPpp6LsIiIAIJEDgKKMCcJMMAnkrvS4oAIQ1T7GB70fG+tY/9T/qu5YEvFVJRSQCItAFAts5dMgrdAFQhDy2eQlgEB+XBHYD8JhDvRulAPC6lgQGiet/ERABERhBYDEA/zN2xp8aEacu1yPQJQWgJLMqgOuN9W6cAsDf5F64pKxPERABEZhA4O/GjvjqCfHq52oEurIEMEhDSwKDRPS/CIiACEQm8EWjAsC3rVUiy9rG5LqqALAsuSSwa8BTAjIc1MYWozyJgAh4I7CWgwJwmDcpuhtRF5cABkv7tYGXBHz6ElgSwBsB0JDW1wCc2LN3QJsHNIV8OIDdAWzZs1pIJUdBBERABJIkMDOA24xKwN0A5kgyV/kIJQXg6bKaH8Dpxno4aV8Af+eJl9kM1WIWAOsB+DqAmw3y3QHgh0Ube1+hHDCPCiIgAiKQFIEjDB1b2emyY1OwE5ACMIMd35Y/HviUwMtmJDf22wsAfAXAfxzaRtlGys+HAdCXxhpjU9aPIiACIhCRwJoOnRzXWTXNaS8sKQDT2XFJ4AaHOlkOuMM+J7kXXrQ3W/B4oPRLmS4A8LrpWdcVERABEYhLYCYA1zp0eBvEFbdVqUkBGF6csZcE2Abo6poKQjlIh/7kEVzuHVh6OAJdFQEREIE4BPZx6Pj4NqNgIyAFYDS30EsCfys28XFJgG/9v3Oo/66KgmwXjK4D+kUERCACAXaCLtOeG0WQsY1JSAGYXKqrBV4SuLPBwb9febBuVJxMUHeIgAiIwAQCPMbU3yHV+f5n7QWYQHf4z1IAhnMZvBp6SaBOXQ957/kA5h3MvP4XAREQgdAE1nZQANgpviu0gC2Mv8uGgOoWJ5cEQhoOCjmw14n7EgAL1IWj+0VABETAlcDFDkrALQDmdBWgY89rBqB+gYdcEqgzUIe8l0rAfPXR6AkREAERsBPY2kEBYId4oD3pTj6pGQBbsdOXwCmOdTXkAO4j7jMA8HSCggiIgAhEIUDLZ3T0Y+3AHgUgV8HVi0ozANVZDd7JJQGa3Q3lXtjaBnw+t9dgpvW/CIiACIQk8E4HBYCd318AcGBTmExACsBkRpPuWD3gKQGfg7klricAcG+OggiIgAhEIcBpR6ub4LKT2y+KpPknoiUAP2XY5iWBq6RQ+6kkikUERKAagbc5zgJwWpYmXRXGE9AMwHg+dX7lksAekZYE6CPgJAAH9U4m7ADgU8XuffrVuBAArfyVyrCPT1opVBABERCBaARcraPRnruOM40vLikA4/lYfuWSwI2eB2AO4qXp3jcA4F6ZcYGGtThoWzwIDlMY/q1TAeNw6zcREAHfBFYEwDXIYR1S1Wvcycw3M4XhBKQADOfiepWKJ+te1Xo66T4a6HmNQajZAXAjHz0BTkpj0u/7GtLXIyIgAiJgJnCkh47rAHPq7X9QCkC4Mqbi+W0P9ZdxcK+GS1gVwK2OstBhl44FupSCnhUBEahFgMZIXDsuTp3KSuBw7FIAhnPxdfV0x0F3f1+CFMrIYgCuc5RnXY/yKCoREAERmEhgc8dOi1ObjwB4/cSUuneDFIBwZU6b+rRLMWlqfdTvPwiwfEUbGQ84yHR8OFyKWQREQASGE/iJQ6dVdrD3AFhpePSdvSoFIFzRv9ehzv6j2OH/3ECicTasbBN1P+8GMHMguRStCIiACAwlsBCA2x06rrKjuwvA8kNT6OZFKQDhyv04h/q6aTixntoUS++ZZZuo+7lKQNkUtQiIgAgMJbCRp/PNtxVnqJcZmkL3LkoBCFfmfIuvO7jy/gvCifRMzOsbZaN8H3gmFn0RAREQgYgEaOjE0qkOPnMngJUjyp1qUlIAwpTMXIVhnieNdfXDYUSaEit381s31/JkjoIIiIAIRCfwnJ6ls8EB3fL/fbJz/pTPBAs7PkPlQWE4AR67s3DliZUlhkfp/eo3jTL+0rskilAEREAEKhJgB3mHsfMa7JRpIGWbium28TbNAIQp1Y2N9fNfYcQZGutWRhkvHxqbLoqACIhAJAI0h/q4sQMbVAL41nVgR42cSAEIU2GtO+3PCSPO0FjXNLYfmhdWEAEREIFGCexk7MAGFYDyfxptoeGhLgUpAGFKexdj3aSDn1jhRUYZeRRQQQREQAQaJ8A393IA9/FJJy58M+pKkDvgMCXNnfKW+nhyGHGGxvpSo4w8SqsgAiIgAo0ToL31E4wd2agOmksLdHwyyeNa45n3IIBmADxAHBIF95WMql/jrv9xSFyhLq1llPGaUAIpXhEQARGoS4CDmKvN9WGd8sUA6JGwzUEKQJjSfbNxcKWt/ljhnUYZL40loNIRAREQgSoEaDb118YObdjgX157rJgJ+ByA2aoIkeE9UgDCFNorHeri0mFEmhbr0UYZT5sWky6IgAiIQMME5igc/vzW2KmVA/6ozxsAbB3AOUvDyGQHIFAB0F4FlcdR9Wnc9Y8Gkqk/Wtrztx6l/WJ/RPouAiIgAqkQ4Jv6z40d77hOufzt/JZ5FdQMQLiay/PyZb2p83lJBEXTaqeA+Xh3OGSKWQREQATcCHBn+4+MnW/Vjvr3ANZxEzOJp6UAhCuG7znUwS3DiQWaAf6bg2yxligCIlDUIiACbSbAKc6vOnRyVRWB8wDQohoH0hyDFIBwpfY2h/pHi4Bc0goRdnSQ69oQAilOERABEQhBgAZZnnDo8KoqArcUngr3A7BkiEwEjNPFDkCuSk9AnFOinhMATU1XrUOD950SYCmADrAecpDp8Ck51D8iIAIikDgBHsm616HTG+yYx/1PD3A050orhSlbFaRP94MBcHPjuPyM+00KwOSK/1MHvmRPQ1e+wgsA3OQoz2t8CaN4REAERCAWgZcA+Ltj5zduMBz2Gw0Kca/AHgCWi5XREenwbXQTAHyD4zTuMHnrXpMCMAJ23+X1PbA+FgCPuboEWrekC+y6Zdx//5UuAuhZERABEWiSANdUj3PsBPs7xLrfbwPwYwC7AViteAPnoBwq8G1v88J+AY9scUbCeiRtXB6lAEwuPVqqvMxDnePJgDUmJzftjrkKJ1cHAHjUgwzbT4tdF0RABEQgMwLbArjPQ4c4bnCs8hu9ENLy2xkAvlIsU/D89xaFQaPXAXgxgMWGLCPM07u2FACu574JAPPzKQB8U+SmxP9EypsUgGoVn8fmqtSHKvdwSYFlzr0b4wIVwN0dzvoPynJ9xhtdx3HSbyIgAh0kwKNMtLs+2NHp/+pMuuArwUfT4LG7izzXNSqwpwI4tDejROdDnwbwHQA01eu7Hm/nA4TiEAEREIFUCLBj/nDRgd4foMP03QGnFh8HIIXqBF5bnBLhjE9q5VhFnj8EOI1QnZzuFAEREIGABJYI5EyoSuea6z2/CVgebY36GxkqADwyuHxbC0T5EgEREIGSwHqeNmzlOqjXkZsbDBXqEeBOfm7mq8O56Xt5nFVBBERABDpBgBvbdgVwV2YddcyBgm6SaWlRoT4BHkdNYQNqlfry/frZ0xMiIAIikD8BHtHbB8DdUgSmvLHScNCi+Rdvozl4g6M1viqDt+s9v6pw0qBRiEpcBERABEIT4LG7fQHcLkUAPwDwvNDAOxL/hp7O5rsO9MOe/1NxLJX2AxREQAREQAQKk6z0704nKrSGNqzTbOs12rL/brFJ8lWqBd4J0CVvaidQaJNidu85VYQiIAIi0AICtOy2Vs+ioIujl9QVBnqj2wvAgi0os5Sz8HIA1ySiVB4GQLYdUq4tkk0ERCAZAnT2834Av43kcTC00sD9Dkf2LBFS0VGIQ4BK1k8aVALuKfxk0HWxggiIgAiIgIHA83tGhc5ydAEbepAfjP9GADyfvkFvmcOQdT3iicDbAdwaURGgYSLu61jEk/yKRgREQAQ6T4BrqBsB+CoAHpmjV8DBgbep//mWf3rPfOwrO19S6QGYtxCJJn1D+3OgISd6CFQQAREQAREISIBHCtftramfVHjpuzySUsDz5jTjekRvA+OKhWc4mj9WSJ8Ad+HTjfRVHpXHBwEcD2D19LMvCUVABESgvQTozW253kzBhwrXwAf3NhaeCeDCwsMfN+Hd0bNDUO4Up0tfvsHzj97Zrui5+qVTmKOKgWL/YkPZu3pr+FySUGgHgRUKw0ufBfBnw9FBLinQBTbrhY72taM+KBciIAIiIAIdJEBLlVy6oXe+TxT7Ng4E8E0AR/dmevg/HVy9EQBdAiuIgAiIgAiIgAiIgAiIgAiIgAiIgAiIgAiIgAiIgAiIgAiIgAiIgAiIgAiIgAiIgAiIgAiIgAiIgAiIgAiIgAiIgAiIgAiIgAiIgAiIgAiIgAiIgAiIgAiIgAiIgAiIgAiIgAiIgAiIgAiIgAiIgAiIgAiIgAiIgAiIgAiIgAiIgAiIgAiIgAiIgAiIgAiIgAiIgAiIgAiIgAiIgAiIgAiIgAiIgAiIgAiIgAiIgAiIgAiIgAiIgAiIgAiIgAiIgAiIgAiIgAiIgAiIgAiIgAiIgAiIgAiIgAiIgAiIgAiIgAiIgAiIgAiIgAiIgAiIgAiIgAiIgAiIgAiIgAiIgAiIgAiIgAiIgAiIgAiIgAiIgAiIgAiIgAiIgAiIgAiIQNYE/j/G+hfQNXbgmAAAAABJRU5ErkJggg==;direction=south;" vertex="1" parent="1">
          <mxGeometry x="745" y="489" width="50" height="50" as="geometry" />
        </mxCell>
        <mxCell id="kkyCF6RHFg_3seXWVsR8-53" value="&lt;div&gt;&lt;span style=&quot;font-weight: normal;&quot;&gt;Bi &amp;amp; Reporting&lt;/span&gt;&lt;/div&gt;" style="text;html=1;align=center;verticalAlign=middle;whiteSpace=wrap;rounded=0;fontSize=10;fontStyle=1" vertex="1" parent="1">
          <mxGeometry x="725" y="339" width="90" height="20" as="geometry" />
        </mxCell>
        <mxCell id="kkyCF6RHFg_3seXWVsR8-54" value="&lt;div&gt;&lt;span style=&quot;font-weight: normal;&quot;&gt;Ad - Hoc&amp;nbsp;&amp;nbsp;&lt;/span&gt;&lt;/div&gt;&lt;div&gt;&lt;span style=&quot;font-weight: normal;&quot;&gt;SQL Queries&lt;/span&gt;&lt;/div&gt;" style="text;html=1;align=center;verticalAlign=middle;whiteSpace=wrap;rounded=0;fontSize=10;fontStyle=1" vertex="1" parent="1">
          <mxGeometry x="725" y="444" width="90" height="20" as="geometry" />
        </mxCell>
        <mxCell id="kkyCF6RHFg_3seXWVsR8-55" value="&lt;div&gt;&lt;span style=&quot;font-weight: normal;&quot;&gt;Machine Learining&lt;/span&gt;&lt;/div&gt;" style="text;html=1;align=center;verticalAlign=middle;whiteSpace=wrap;rounded=0;fontSize=10;fontStyle=1" vertex="1" parent="1">
          <mxGeometry x="725" y="539" width="90" height="20" as="geometry" />
        </mxCell>
        <mxCell id="kkyCF6RHFg_3seXWVsR8-56" value="&lt;b&gt;&lt;font style=&quot;font-size: 22px;&quot;&gt;DATA&amp;nbsp; ARCHITECTURE&lt;/font&gt;&lt;/b&gt;" style="rounded=0;whiteSpace=wrap;html=1;fontSize=20;strokeColor=none;" vertex="1" parent="1">
          <mxGeometry x="50" y="110" width="270" height="30" as="geometry" />
        </mxCell>
      </root>
    </mxGraphModel>
  </diagram>
</mxfile>
